<svg width="40" height="37" viewBox="0 0 40 37" fill="none" xmlns="http://www.w3.org/2000/svg">
<g clip-path="url(#clip0_229_500)">
<path d="M35.6992 19.4655C35.533 19.4655 35.3737 19.5266 35.2563 19.6352C35.1388 19.7439 35.0728 19.8912 35.0728 20.0449V35.8413H4.92674V31.168C4.92674 31.0144 4.86075 30.867 4.74329 30.7584C4.62583 30.6497 4.46652 30.5887 4.30041 30.5887C4.1343 30.5887 3.97499 30.6497 3.85753 30.7584C3.74007 30.867 3.67408 31.0144 3.67408 31.168V36.4206C3.67408 36.5743 3.74007 36.7217 3.85753 36.8303C3.97499 36.939 4.1343 37 4.30041 37H35.6991C35.8652 37 36.0245 36.939 36.142 36.8303C36.2594 36.7217 36.3254 36.5743 36.3254 36.4206V20.0449C36.3254 19.9688 36.3092 19.8935 36.2778 19.8232C36.2463 19.7529 36.2002 19.689 36.142 19.6352C36.0839 19.5814 36.0148 19.5388 35.9388 19.5096C35.8628 19.4805 35.7814 19.4655 35.6992 19.4655ZM39.752 13.7128L20.3784 0.117793C20.2695 0.0413791 20.1366 1.59567e-05 19.9999 1.59567e-05C19.8632 1.59567e-05 19.7303 0.0413791 19.6214 0.117793L11.9414 5.507V3.63048H12.6513C12.8174 3.63048 12.9767 3.56944 13.0941 3.46079C13.2116 3.35214 13.2776 3.20478 13.2776 3.05113V0.579354C13.2776 0.503272 13.2614 0.427935 13.2299 0.357645C13.1984 0.287354 13.1523 0.223487 13.0941 0.169689C13.036 0.115891 12.9669 0.0732159 12.891 0.0441007C12.815 0.0149854 12.7335 0 12.6513 0L3.29838 0C3.13226 0 2.97295 0.0610389 2.8555 0.169689C2.73804 0.278339 2.67205 0.425699 2.67205 0.579354V3.0512C2.67205 3.20485 2.73804 3.35221 2.8555 3.46086C2.97295 3.56951 3.13226 3.63055 3.29838 3.63055H4.00822V11.0739L0.247673 13.7128C0.143215 13.7861 0.0662756 13.8879 0.0277046 14.0038C-0.0108664 14.1198 -0.00912356 14.244 0.0326874 14.359C0.0744984 14.4739 0.154268 14.5739 0.260749 14.6447C0.36723 14.7155 0.495051 14.7536 0.626189 14.7536H3.67424V28.0782C3.67424 28.2319 3.74022 28.3792 3.85768 28.4879C3.97514 28.5965 4.13445 28.6576 4.30056 28.6576C4.46668 28.6576 4.62599 28.5965 4.74344 28.4879C4.8609 28.3792 4.92689 28.2319 4.92689 28.0782V14.1743C4.92689 14.0207 4.8609 13.8733 4.74344 13.7647C4.62599 13.656 4.46668 13.595 4.30056 13.595H2.48806L19.9998 1.30649L37.5117 13.595H35.6992C35.533 13.595 35.3737 13.656 35.2563 13.7647C35.1388 13.8733 35.0728 14.0207 35.0728 14.1743V16.9551C35.0728 17.1088 35.1388 17.2561 35.2563 17.3648C35.3737 17.4734 35.533 17.5345 35.6992 17.5345C35.8653 17.5345 36.0246 17.4734 36.142 17.3648C36.2595 17.2561 36.3255 17.1088 36.3255 16.9551V14.7537H39.3735C39.5047 14.7537 39.6326 14.7157 39.7392 14.6449C39.8457 14.5741 39.9256 14.4741 39.9674 14.3591C40.0092 14.2441 40.0109 14.1198 39.9723 14.0038C39.9336 13.8879 39.8566 13.786 39.752 13.7128ZM3.9247 2.47185V1.15871H12.0249V2.47185H3.9247ZM10.6888 6.38597L5.2608 10.1949V3.63048H10.6888V6.38597Z" fill="#F68939"/>
<path d="M33.5619 31.8693L28.8855 27.5436C28.3279 27.0278 27.4601 26.8901 26.748 27.2051L23.6527 24.3419C25.0235 22.761 25.8449 20.7559 25.8449 18.5763C25.8449 16.4927 25.1124 14.5261 23.7265 12.8892C23.6758 12.8294 23.6128 12.7793 23.5412 12.7419C23.4695 12.7045 23.3907 12.6806 23.309 12.6714C23.2274 12.6622 23.1446 12.668 23.0653 12.6884C22.9861 12.7088 22.912 12.7435 22.8473 12.7904C22.7825 12.8373 22.7284 12.8955 22.688 12.9618C22.6476 13.0281 22.6216 13.101 22.6117 13.1766C22.6018 13.2521 22.6081 13.3287 22.6301 13.4019C22.6522 13.4752 22.6897 13.5438 22.7404 13.6037C23.952 15.0346 24.5924 16.7542 24.5924 18.5763C24.5924 23.0273 20.6778 26.6483 15.8659 26.6483C11.0541 26.6483 7.13937 23.0273 7.13937 18.5764C7.13937 14.1255 11.0541 10.5044 15.8659 10.5044C17.4477 10.5044 18.9969 10.8998 20.3459 11.6478C20.4882 11.725 20.6578 11.7471 20.8177 11.7093C20.9776 11.6715 21.115 11.5768 21.1998 11.4458C21.2847 11.3149 21.3102 11.1583 21.2709 11.01C21.2316 10.8617 21.1306 10.7338 20.9898 10.654C19.4464 9.79816 17.6745 9.3457 15.8659 9.3457C10.3634 9.3457 5.88672 13.4865 5.88672 18.5764C5.88672 23.6663 10.3634 27.807 15.8659 27.807C18.5619 27.807 21.0112 26.8125 22.8087 25.1998L25.863 28.025C25.5308 28.6708 25.6512 29.4677 26.2283 30.0015L30.9047 34.3272C31.6289 34.9973 32.8377 34.9973 33.5619 34.3272C34.2945 33.6496 34.2945 32.5469 33.5619 31.8693ZM32.7094 33.4748C32.4752 33.7279 32.0452 33.7435 31.7905 33.5079L27.1141 29.1823C26.8862 28.9715 26.8713 28.6227 27.0809 28.3962C27.3151 28.143 27.7451 28.1274 27.9998 28.363L32.6762 32.6887C32.904 32.8994 32.919 33.2482 32.7094 33.4748Z" fill="#F68939"/>
<path d="M15.8655 11.8184C11.8364 11.8184 8.55859 14.8503 8.55859 18.5772C8.55859 22.3041 11.8365 25.3361 15.8655 25.3361C19.8945 25.3361 23.1723 22.3041 23.1723 18.5772C23.1723 14.8503 19.8945 11.8184 15.8655 11.8184ZM15.8655 24.1774C12.5271 24.1774 9.81117 21.6651 9.81117 18.5771C9.81117 15.4892 12.5272 12.9769 15.8655 12.9769C19.2038 12.9769 21.9198 15.4892 21.9198 18.5771C21.9198 21.6651 19.2038 24.1774 15.8655 24.1774Z" fill="#F68939"/>
<path d="M21.1073 18.3279C20.2867 16.7302 18.0331 15.5254 15.8652 15.5254C13.6973 15.5254 11.4438 16.7303 10.6231 18.3279C10.5832 18.4056 10.5625 18.4906 10.5625 18.5766C10.5625 18.6626 10.5832 18.7476 10.6231 18.8253C11.4438 20.4229 13.6973 21.6276 15.8652 21.6276C18.0331 21.6276 20.2867 20.4228 21.1073 18.8252C21.1472 18.7475 21.1678 18.6625 21.1678 18.5765C21.1678 18.4905 21.1472 18.4056 21.1073 18.3279ZM13.739 20.0067C12.9599 19.6653 12.2919 19.1599 11.9014 18.5764C12.292 17.993 12.96 17.4878 13.739 17.1462C13.4223 17.548 13.2348 18.0422 13.2348 18.5764C13.2348 19.1107 13.4224 19.6049 13.739 20.0067ZM15.8652 19.851C15.1054 19.851 14.4873 19.2792 14.4873 18.5764C14.4873 17.8737 15.1054 17.3019 15.8652 17.3019C16.625 17.3019 17.2431 17.8737 17.2431 18.5764C17.2431 19.2792 16.625 19.851 15.8652 19.851ZM17.9914 20.0067C18.3082 19.6049 18.4957 19.1107 18.4957 18.5764C18.4957 18.0422 18.3081 17.548 17.9914 17.1462C18.7706 17.4878 19.4385 17.993 19.829 18.5764C19.4385 19.1599 18.7705 19.6652 17.9914 20.0067Z" fill="#F68939"/>
</g>
<defs>
<clipPath id="clip0_229_500">
<rect width="40" height="37" fill="white"/>
</clipPath>
</defs>
</svg>
