<svg width="38" height="38" viewBox="0 0 38 38" fill="none" xmlns="http://www.w3.org/2000/svg">
<g clip-path="url(#clip0_229_497)">
<path d="M37.5522 33.7074L33.9801 30.1397C33.6906 29.851 33.4064 29.6283 33.0561 29.416L31.9688 28.7629C32.7495 27.5309 33.1681 26.1014 33.1681 24.6081C33.1689 22.5256 32.3562 20.5669 30.8815 19.0937C30.401 18.6135 29.8598 18.1983 29.2716 17.8587V15.1163L31.4878 16.732C31.7528 16.925 32.1239 16.8671 32.3168 16.6029L34.3341 13.842C34.4268 13.7147 34.4655 13.556 34.4417 13.4004C34.4173 13.2448 34.3321 13.1052 34.205 13.0122L17.574 0.885603C17.4724 0.811446 17.3499 0.771484 17.2241 0.771484C17.0983 0.771484 16.9758 0.811446 16.8741 0.885603L13.4015 3.4172V2.56295C13.4015 2.2349 13.1357 1.9692 12.8077 1.9692H6.42489C6.09684 1.9692 5.83114 2.2349 5.83114 2.56295V5.08045C5.83114 5.40849 6.09684 5.6742 6.42489 5.6742H6.77965V8.24588L0.24395 13.0115C0.116294 13.1042 0.0316846 13.2438 0.00719242 13.3996C-0.0172998 13.5555 0.021294 13.7143 0.11481 13.8412L2.13208 16.6022C2.22506 16.7292 2.36467 16.8142 2.52024 16.8384C2.67582 16.8626 2.83464 16.8241 2.96184 16.7313L5.17801 15.1156V30.8447C5.17801 31.1728 5.44372 31.4385 5.77176 31.4385H21.6071C22.7731 32.0775 24.0689 32.3974 25.3648 32.3974C26.812 32.3974 28.2593 31.9981 29.5255 31.201L30.1816 32.2913C30.3923 32.6394 30.6157 32.9236 30.9052 33.2123L34.4773 36.78C34.775 37.0776 35.1661 37.2261 35.5572 37.2261C35.9484 37.2261 36.3395 37.0776 36.6371 36.78L37.5522 35.8664C37.8402 35.5784 37.9998 35.1947 37.9998 34.7865C37.9998 34.3783 37.8409 33.9946 37.5522 33.7074ZM7.01938 3.1567H12.2147V4.28334L11.9356 4.4867H7.01938V3.1567ZM7.9679 5.6742H10.3073L7.9679 7.37974V5.6742ZM2.74067 15.4236L1.42403 13.6215L17.2252 2.10056L33.0256 13.6215L31.709 15.4236L17.574 5.11756C17.4724 5.0434 17.3499 5.00344 17.2241 5.00344C17.0983 5.00344 16.9758 5.0434 16.8741 5.11756L2.74067 15.4236ZM6.36477 14.2502L17.2245 6.33252L28.0841 14.2502V17.3006C25.8442 16.4723 23.2963 16.7038 21.2278 17.9945C21.2167 17.9938 21.2063 17.993 21.1952 17.993H13.2545C12.9264 17.993 12.6607 18.2587 12.6607 18.5868V30.251H6.36477V14.2502ZM13.8482 30.251V19.1805H19.7598C18.34 20.6434 17.5599 22.5649 17.5599 24.6067C17.5599 26.6892 18.3719 28.6464 19.8451 30.1181C19.8904 30.1634 19.9364 30.2079 19.9824 30.2517H13.8482V30.251ZM20.6838 29.278C19.4347 28.0304 18.7467 26.3716 18.7467 24.6067C18.7467 22.8417 19.4347 21.1822 20.6838 19.9338C23.2651 17.3577 27.4629 17.3577 30.042 19.9338C31.2926 21.1829 31.9806 22.8425 31.9806 24.6081C31.9806 26.3723 31.2919 28.0311 30.042 29.278C27.4629 31.8556 23.2651 31.8556 20.6838 29.278ZM30.8815 30.1181C31.0113 29.989 31.1353 29.8554 31.2548 29.7188L32.2389 30.3096L31.0744 31.4726L30.4829 30.49C30.6187 30.3712 30.7516 30.2473 30.8815 30.1181ZM36.7136 35.0262L35.7984 35.9406C35.7345 36.0044 35.6479 36.0402 35.5576 36.0402C35.4673 36.0402 35.3807 36.0044 35.3168 35.9406L31.7988 32.4271L33.1949 31.0325L36.7136 34.5468C36.7774 34.6106 36.8123 34.6952 36.8123 34.7865C36.8123 34.8778 36.7774 34.9631 36.7136 35.0262ZM25.364 18.92C22.2246 18.92 19.6707 21.4709 19.6707 24.6067C19.6707 27.7417 22.2246 30.2918 25.364 30.2918C28.502 30.2918 31.0551 27.7417 31.0551 24.6067C31.0551 21.4709 28.502 18.92 25.364 18.92ZM25.364 29.1043C22.8792 29.1043 20.8582 27.087 20.8582 24.6067C20.8582 22.1255 22.8799 20.1075 25.364 20.1075C27.8474 20.1075 29.8676 22.1263 29.8676 24.6067C29.8676 27.0863 27.8474 29.1043 25.364 29.1043Z" fill="#F68939"/>
</g>
<defs>
<clipPath id="clip0_229_497">
<rect width="38" height="38" fill="white"/>
</clipPath>
</defs>
</svg>
