<svg width="37" height="37" viewBox="0 0 37 37" fill="none" xmlns="http://www.w3.org/2000/svg">
<path d="M35.893 3.93846C36.0484 3.93846 36.1974 3.88136 36.3073 3.77972C36.4172 3.67807 36.4789 3.54022 36.4789 3.39647V0.758786C36.4789 0.34037 36.1109 0 35.6586 0H17.5159C17.0635 0 16.6955 0.34037 16.6955 0.758786V5.74264C15.5524 5.05886 14.2206 4.69082 12.827 4.69082C10.9185 4.69082 9.12422 5.37828 7.77469 6.62659C6.42516 7.8749 5.68187 9.53462 5.68187 11.3001C5.68187 12.5732 6.07031 13.7905 6.79203 14.839L5.86523 15.6963C5.50609 15.5256 5.05367 15.5788 4.75313 15.8567L0.651875 19.6504C0.231562 20.0393 0 20.5562 0 21.1062C0 21.6561 0.231484 22.1732 0.651875 22.562C1.07227 22.9509 1.63125 23.1651 2.2257 23.1651C2.82023 23.1651 3.37914 22.9509 3.79953 22.562L7.90078 18.7684C7.98974 18.6866 8.06026 18.5893 8.10827 18.4821C8.15628 18.3749 8.18082 18.26 8.18047 18.1439C8.18047 18.0009 8.14344 17.8632 8.07445 17.7396L9.00117 16.8824C10.1348 17.55 11.4507 17.9093 12.8271 17.9093C14.2207 17.9093 15.5525 17.5413 16.6956 16.8575V20.5036H8.64508C8.55471 20.5036 8.46556 20.523 8.38461 20.5601C8.30366 20.5973 8.23309 20.6513 8.17844 20.7178L4.13078 25.6481C4.03 25.7699 3.96827 25.9154 3.95263 26.0681C3.93699 26.2208 3.96808 26.3745 4.04234 26.5116C4.1155 26.6493 4.22903 26.7651 4.36995 26.846C4.51088 26.9268 4.67354 26.9694 4.83937 26.9688H8.05914V36.1769C8.05914 36.6307 8.45828 37 8.94898 37H29.362C29.8527 37 30.2519 36.6308 30.2519 36.1769V33.7479C30.2519 33.4485 29.9895 33.2059 29.6659 33.2059C29.3423 33.2059 29.08 33.4485 29.08 33.7479V35.9159H22.8946V22.6294L26.2636 26.6496C26.347 26.7486 26.4537 26.8288 26.5756 26.8841C26.6974 26.9394 26.8313 26.9683 26.967 26.9687H29.08V31.2186C29.08 31.518 29.3423 31.7606 29.6659 31.7606C29.9895 31.7606 30.2519 31.518 30.2519 31.2186V26.9687H33.5554C33.8976 26.9687 34.2038 26.7922 34.3544 26.5079C34.505 26.2236 34.4683 25.8916 34.2587 25.6414L33.8945 25.2067H35.6587C36.111 25.2067 36.479 24.8664 36.479 24.4479V5.92576C36.479 5.62636 36.2166 5.38377 35.893 5.38377C35.5695 5.38377 35.3071 5.62636 35.3071 5.92576V24.1228H32.9861L30.1291 20.7135C30.0743 20.6481 30.0041 20.5952 29.9238 20.5588C29.8435 20.5225 29.7553 20.5035 29.6659 20.5036H17.8674V15.984C17.8713 15.9804 17.8755 15.9771 17.8794 15.9735C19.2289 14.7251 19.9722 13.0654 19.9722 11.3C19.9722 9.53454 19.229 7.8749 17.8794 6.62651C17.8755 6.6229 17.8713 6.61958 17.8674 6.61596V1.08398H35.307V3.39647C35.307 3.54022 35.3688 3.67807 35.4786 3.77972C35.5885 3.88136 35.7376 3.93846 35.893 3.93846ZM29.3787 21.5875L32.9798 25.8848H27.1053L23.5042 21.5875H29.3787ZM21.7227 35.9159H9.23102V26.9687H17.7398C18.0163 26.9687 18.2812 26.8471 18.4484 26.6434L21.7227 22.6553V35.9159ZM21.1279 21.5875L17.5998 25.8848H5.40789L8.93586 21.5875H21.1279ZM2.97094 21.7955C2.77187 21.9796 2.50719 22.081 2.2257 22.081C1.94422 22.081 1.67953 21.9796 1.48047 21.7954C1.28141 21.6114 1.1718 21.3665 1.1718 21.1062C1.1718 20.8458 1.28141 20.601 1.48047 20.4169L5.42812 16.7653L6.91852 18.1439L2.97094 21.7955ZM7.27797 16.9433L6.72625 16.4329L7.50672 15.711C7.59348 15.8007 7.68284 15.8882 7.77469 15.9735C7.86685 16.0584 7.96147 16.1411 8.05844 16.2213L7.27797 16.9433ZM18.8003 11.3C18.8003 12.7758 18.179 14.1634 17.0508 15.2069C15.9226 16.2505 14.4226 16.8253 12.827 16.8253C11.2315 16.8253 9.73148 16.2505 8.60328 15.2069C7.47508 14.1634 6.85375 12.7757 6.85375 11.3C6.85375 9.82411 7.47508 8.43662 8.60328 7.39311C9.73148 6.34952 11.2315 5.77472 12.827 5.77472C14.4226 5.77472 15.9226 6.34945 17.0508 7.39311C18.179 8.43662 18.8003 9.82411 18.8003 11.3Z" fill="#F68939"/>
<path d="M23.3619 7.986C23.3023 7.94099 23.2337 7.90729 23.16 7.88681C23.0863 7.86633 23.0089 7.85948 22.9324 7.86664C22.8558 7.87381 22.7815 7.89485 22.7138 7.92858C22.646 7.9623 22.5861 8.00804 22.5374 8.06318L21.6941 9.01896L21.2081 8.56933C21.0975 8.47051 20.9495 8.41581 20.7958 8.41702C20.6421 8.41823 20.4951 8.47525 20.3864 8.57579C20.2777 8.67633 20.2161 8.81234 20.2148 8.95451C20.2135 9.09668 20.2726 9.23363 20.3795 9.33585L21.3238 10.2094C21.3818 10.2629 21.4512 10.3046 21.5277 10.3318C21.6041 10.359 21.6859 10.3711 21.7677 10.3673C21.8495 10.3635 21.9295 10.3438 22.0026 10.3096C22.0757 10.2754 22.1402 10.2275 22.192 10.1688L23.4453 8.74855C23.5436 8.63719 23.59 8.49429 23.5743 8.35129C23.5587 8.20829 23.4823 8.07689 23.3619 7.986ZM32.382 8.70287H25.1297C24.8061 8.70287 24.5438 8.94547 24.5438 9.24486C24.5438 9.54426 24.8061 9.78685 25.1297 9.78685H32.382C32.7056 9.78685 32.9679 9.54426 32.9679 9.24486C32.9679 8.94547 32.7056 8.70287 32.382 8.70287ZM23.3619 11.103C23.2415 11.0121 23.087 10.9692 22.9324 10.9837C22.7778 10.9982 22.6357 11.0689 22.5374 11.1802L21.6941 12.136L21.2081 11.6863C21.0975 11.5875 20.9495 11.5328 20.7958 11.534C20.6421 11.5353 20.4951 11.5923 20.3864 11.6928C20.2777 11.7933 20.2161 11.9294 20.2148 12.0715C20.2135 12.2137 20.2726 12.3507 20.3795 12.4529L21.3238 13.3264C21.3818 13.38 21.4512 13.4217 21.5277 13.4489C21.6041 13.4761 21.6859 13.4881 21.7677 13.4843C21.8495 13.4805 21.9295 13.4608 22.0026 13.4266C22.0757 13.3925 22.1402 13.3445 22.192 13.2858L23.4453 11.8656C23.5436 11.7542 23.59 11.6113 23.5743 11.4683C23.5587 11.3253 23.4823 11.1939 23.3619 11.103ZM32.382 11.8199H25.1297C24.8061 11.8199 24.5438 12.0625 24.5438 12.3619C24.5438 12.6613 24.8061 12.9039 25.1297 12.9039H32.382C32.7056 12.9039 32.9679 12.6613 32.9679 12.3619C32.9679 12.0625 32.7056 11.8199 32.382 11.8199ZM23.3619 14.22C23.3023 14.175 23.2337 14.1413 23.16 14.1208C23.0863 14.1004 23.0089 14.0935 22.9324 14.1007C22.8558 14.1079 22.7815 14.1289 22.7138 14.1626C22.646 14.1963 22.5861 14.2421 22.5374 14.2972L21.6941 15.253L21.2081 14.8034C21.0975 14.7046 20.9495 14.6499 20.7958 14.6511C20.6421 14.6523 20.4951 14.7093 20.3864 14.8098C20.2777 14.9104 20.2161 15.0464 20.2148 15.1886C20.2135 15.3307 20.2726 15.4677 20.3795 15.5699L21.3238 16.4434C21.3818 16.497 21.4512 16.5387 21.5277 16.5659C21.6041 16.5931 21.6859 16.6051 21.7677 16.6013C21.8495 16.5975 21.9295 16.5779 22.0026 16.5437C22.0757 16.5095 22.1402 16.4615 22.192 16.4028L23.4453 14.9826C23.5436 14.8712 23.59 14.7283 23.5743 14.5853C23.5587 14.4423 23.4823 14.3109 23.3619 14.22ZM32.382 14.9369H25.1297C24.8061 14.9369 24.5438 15.1795 24.5438 15.4789C24.5438 15.7783 24.8061 16.0209 25.1297 16.0209H32.382C32.7056 16.0209 32.9679 15.7783 32.9679 15.4789C32.9679 15.1795 32.7056 14.9369 32.382 14.9369ZM23.3619 17.3371C23.2415 17.2462 23.087 17.2033 22.9324 17.2177C22.7778 17.2322 22.6357 17.3029 22.5374 17.4142L21.6941 18.37L21.2081 17.9204C21.0975 17.8216 20.9495 17.7669 20.7958 17.7681C20.6421 17.7693 20.4951 17.8263 20.3864 17.9269C20.2777 18.0274 20.2161 18.1634 20.2148 18.3056C20.2135 18.4477 20.2726 18.5847 20.3795 18.6869L21.3238 19.5605C21.3818 19.614 21.4512 19.6557 21.5277 19.6829C21.6041 19.7101 21.6859 19.7222 21.7677 19.7183C21.8495 19.7145 21.9295 19.6949 22.0026 19.6607C22.0757 19.6265 22.1402 19.5785 22.192 19.5198L23.4453 18.0996C23.5436 17.9883 23.59 17.8454 23.5743 17.7024C23.5587 17.5594 23.4823 17.428 23.3619 17.3371ZM32.382 18.0539H25.1297C24.8061 18.0539 24.5438 18.2965 24.5438 18.5959C24.5438 18.8952 24.8061 19.1378 25.1297 19.1378H32.382C32.7056 19.1378 32.9679 18.8952 32.9679 18.5959C32.9679 18.2965 32.7056 18.0539 32.382 18.0539ZM33.4004 5.68197V3.74121C33.4004 3.32279 33.0324 2.98242 32.5801 2.98242H20.5955C20.1431 2.98242 19.7752 3.32279 19.7752 3.74121V5.68197C19.7752 6.10038 20.1431 6.44075 20.5955 6.44075H32.5801C33.0324 6.44075 33.4004 6.10038 33.4004 5.68197ZM32.2285 5.35677H20.947V4.0664H32.2285V5.35677ZM9.37642 8.10864C7.47345 9.86888 7.47353 12.733 9.37642 14.4933C10.3281 15.3735 11.5776 15.8136 12.8276 15.8134C14.0773 15.8133 15.3274 15.3733 16.2787 14.4933C16.7188 14.087 17.0704 13.6063 17.3145 13.0773C17.3447 13.0119 17.3607 12.9416 17.3616 12.8704C17.3625 12.7992 17.3482 12.7286 17.3196 12.6625C17.2909 12.5964 17.2485 12.5362 17.1947 12.4853C17.141 12.4344 17.0769 12.3938 17.0061 12.3659C16.9354 12.3379 16.8593 12.323 16.7824 12.3222C16.7055 12.3214 16.6291 12.3346 16.5577 12.361C16.4862 12.3875 16.4212 12.4268 16.3661 12.4765C16.3111 12.5263 16.2672 12.5856 16.237 12.651C16.0515 13.0529 15.7844 13.4181 15.45 13.7267C14.004 15.0643 11.6511 15.0643 10.2049 13.7267C8.75892 12.3891 8.75892 10.2127 10.2049 8.87508C11.6509 7.53745 14.0039 7.53752 15.4499 8.87501C15.9249 9.31384 16.2619 9.86386 16.4249 10.4662C16.5033 10.7567 16.8215 10.9329 17.1353 10.8607C17.21 10.8435 17.2802 10.8128 17.3421 10.7704C17.4039 10.7281 17.4561 10.6749 17.4957 10.6138C17.5353 10.5528 17.5616 10.4852 17.5729 10.4148C17.5842 10.3444 17.5805 10.2726 17.5618 10.2035C17.3472 9.41053 16.9037 8.68638 16.2785 8.10856C14.3758 6.3484 11.2794 6.34833 9.37642 8.10864Z" fill="#F68939"/>
</svg>
