<svg width="20" height="20" viewBox="0 0 20 20" fill="none" xmlns="http://www.w3.org/2000/svg">
<path d="M16.25 10.625H12.5C12.1685 10.625 11.8505 10.7567 11.6161 10.9911C11.3817 11.2255 11.25 11.5435 11.25 11.875V18.125C11.25 18.2908 11.3158 18.4497 11.4331 18.5669C11.5503 18.6842 11.7092 18.75 11.875 18.75H16.875C17.0408 18.75 17.1997 18.6842 17.3169 18.5669C17.4342 18.4497 17.5 18.2908 17.5 18.125V11.875C17.5 11.5435 17.3683 11.2255 17.1339 10.9911C16.8995 10.7567 16.5815 10.625 16.25 10.625ZM16.25 17.5H15V16.875C15 16.7092 14.9342 16.5503 14.8169 16.4331C14.6997 16.3158 14.5408 16.25 14.375 16.25C14.2092 16.25 14.0503 16.3158 13.9331 16.4331C13.8158 16.5503 13.75 16.7092 13.75 16.875V17.5H12.5V11.875H16.25V17.5Z" fill="#747373"/>
<path d="M13.75 13.75H15C15.1658 13.75 15.3247 13.6842 15.4419 13.5669C15.5592 13.4497 15.625 13.2908 15.625 13.125C15.625 12.9592 15.5592 12.8003 15.4419 12.6831C15.3247 12.5658 15.1658 12.5 15 12.5H13.75C13.5842 12.5 13.4253 12.5658 13.3081 12.6831C13.1908 12.8003 13.125 12.9592 13.125 13.125C13.125 13.2908 13.1908 13.4497 13.3081 13.5669C13.4253 13.6842 13.5842 13.75 13.75 13.75ZM13.75 15.625H15C15.1658 15.625 15.3247 15.5592 15.4419 15.4419C15.5592 15.3247 15.625 15.1658 15.625 15C15.625 14.8342 15.5592 14.6753 15.4419 14.5581C15.3247 14.4408 15.1658 14.375 15 14.375H13.75C13.5842 14.375 13.4253 14.4408 13.3081 14.5581C13.1908 14.6753 13.125 14.8342 13.125 15C13.125 15.1658 13.1908 15.3247 13.3081 15.4419C13.4253 15.5592 13.5842 15.625 13.75 15.625ZM8.75 3.75C8.00832 3.75 7.2833 3.96993 6.66661 4.38199C6.04993 4.79404 5.56928 5.37971 5.28545 6.06494C5.00162 6.75016 4.92736 7.50416 5.07206 8.23159C5.21675 8.95902 5.5739 9.6272 6.09835 10.1517C6.6228 10.6761 7.29098 11.0333 8.01841 11.1779C8.74584 11.3226 9.49984 11.2484 10.1851 10.9645C10.8703 10.6807 11.456 10.2001 11.868 9.58339C12.2801 8.9667 12.5 8.24168 12.5 7.5C12.5 6.50544 12.1049 5.55161 11.4017 4.84835C10.6984 4.14509 9.74456 3.75 8.75 3.75ZM8.75 10C8.25555 10 7.7722 9.85338 7.36108 9.57867C6.94995 9.30397 6.62952 8.91352 6.4403 8.45671C6.25108 7.99989 6.20158 7.49723 6.29804 7.01227C6.3945 6.52732 6.6326 6.08186 6.98223 5.73223C7.33187 5.3826 7.77732 5.1445 8.26228 5.04804C8.74723 4.95157 9.2499 5.00108 9.70671 5.1903C10.1635 5.37952 10.554 5.69995 10.8287 6.11107C11.1034 6.5222 11.25 7.00555 11.25 7.5C11.25 8.16304 10.9866 8.79893 10.5178 9.26777C10.0489 9.73661 9.41304 10 8.75 10Z" fill="#747373"/>
<path d="M8.95 17.1188L8.75 17.3063C7.5 16.2 3.75 12.4313 3.75 7.5C3.75 6.17392 4.27678 4.90215 5.21447 3.96447C6.15215 3.02678 7.42392 2.5 8.75 2.5C10.0761 2.5 11.3479 3.02678 12.2855 3.96447C13.2232 4.90215 13.75 6.17392 13.75 7.5C13.7495 7.89266 13.7265 8.28496 13.6812 8.675C13.6714 8.75708 13.6778 8.84029 13.7001 8.91989C13.7224 8.99948 13.7602 9.07391 13.8113 9.13891C13.9144 9.27019 14.0655 9.35511 14.2313 9.375C14.3133 9.38485 14.3965 9.37844 14.4761 9.35613C14.5557 9.33382 14.6302 9.29605 14.6952 9.24498C14.8264 9.14183 14.9114 8.99076 14.9312 8.825C14.9829 8.3853 15.0059 7.94269 15 7.5C15 5.8424 14.3415 4.25269 13.1694 3.08058C11.9973 1.90848 10.4076 1.25 8.75 1.25C7.0924 1.25 5.50269 1.90848 4.33058 3.08058C3.15848 4.25269 2.5 5.8424 2.5 7.5C2.5 13.9813 8.125 18.4313 8.36875 18.6188C8.47784 18.7034 8.61191 18.7496 8.75 18.75C8.89023 18.751 9.02672 18.7047 9.1375 18.6188C9.1375 18.6188 9.3875 18.4188 9.8 18.0438C9.92266 17.931 9.99552 17.7742 10.0026 17.6078C10.0096 17.4413 9.95022 17.2789 9.8375 17.1563C9.72478 17.0336 9.56796 16.9607 9.40152 16.9537C9.23508 16.9467 9.07266 17.006 8.95 17.1188Z" fill="#747373"/>
</svg>
