<svg width="18" height="9" viewBox="0 0 18 9" fill="none" xmlns="http://www.w3.org/2000/svg">
<path d="M0.688396 3.57761H15.2589L12.8452 1.17566C12.5759 0.907611 12.5749 0.472002 12.8429 0.202683C13.1109 -0.0666699 13.5466 -0.0676673 13.8159 0.200344L17.4109 3.77796L17.4115 3.77861C17.6801 4.04666 17.681 4.48368 17.4115 4.75262L17.4109 4.75327L13.816 8.33089C13.5467 8.59886 13.111 8.59794 12.843 8.32855C12.5749 8.05923 12.576 7.62362 12.8453 7.35557L15.2589 4.95362H0.688396C0.308413 4.95362 0.000392914 4.6456 0.000392914 4.26562C0.000392914 3.88563 0.308413 3.57761 0.688396 3.57761Z" fill="black"/>
</svg>
