<svg width="20" height="20" viewBox="0 0 20 20" fill="none" xmlns="http://www.w3.org/2000/svg">
<g clip-path="url(#clip0_0_604)">
<path d="M4.07471 13.2947C6.04736 15.6527 8.422 17.5093 11.1323 18.823C12.1642 19.3121 13.5443 19.8923 15.0818 19.9917C15.1771 19.9959 15.2682 20 15.3636 20C16.3955 20 17.2243 19.6436 17.8998 18.9101C17.904 18.9059 17.9123 18.8976 17.9164 18.8893C18.1568 18.5993 18.4303 18.3382 18.7162 18.0605C18.911 17.874 19.1099 17.6792 19.3006 17.4803C20.1833 16.5603 20.1833 15.3916 19.2923 14.5006L16.8016 12.0099C16.3789 11.5707 15.8733 11.3386 15.3428 11.3386C14.8124 11.3386 14.3026 11.5707 13.8675 12.0058L12.3839 13.4894C12.2471 13.4107 12.1062 13.3402 11.9736 13.2739C11.8078 13.191 11.6545 13.1123 11.5177 13.0253C10.1667 12.1674 8.94003 11.0485 7.76721 9.61044C7.17459 8.86034 6.77674 8.23042 6.49908 7.58807C6.88864 7.23581 7.25333 6.86697 7.60559 6.50642C7.72991 6.37795 7.85839 6.24948 7.98686 6.12101C8.43443 5.67344 8.6748 5.15541 8.6748 4.62909C8.6748 4.10278 8.43858 3.58475 7.98686 3.13717L6.75188 1.9022C6.60683 1.75715 6.47007 1.61625 6.32917 1.4712C6.05565 1.18939 5.7697 0.899296 5.48789 0.63821C5.06104 0.219644 4.55959 0 4.02913 0C3.50281 0 2.99722 0.219644 2.55379 0.642354L1.00385 2.19229C0.440234 2.75591 0.121129 3.4397 0.0548214 4.23125C-0.0239187 5.22172 0.158427 6.27435 0.630868 7.54662C1.35611 9.51513 2.45018 11.3427 4.07471 13.2947ZM1.06601 4.31828C1.11574 3.76709 1.3271 3.30709 1.72494 2.90924L3.26659 1.36759C3.50696 1.13552 3.77219 1.01533 4.02913 1.01533C4.28192 1.01533 4.53887 1.13552 4.77509 1.37588C5.05275 1.63282 5.31384 1.9022 5.59564 2.18815C5.73655 2.3332 5.88159 2.47824 6.02664 2.62743L7.26162 3.86241C7.51856 4.11935 7.65117 4.38044 7.65117 4.63738C7.65117 4.89432 7.51856 5.15541 7.26162 5.41235C7.13315 5.54082 7.00468 5.67344 6.8762 5.80191C6.49079 6.19146 6.13025 6.5603 5.7324 6.91256L5.71168 6.93328C5.36771 7.27725 5.42158 7.60464 5.50447 7.85329C5.50861 7.86573 5.51276 7.87402 5.5169 7.88645C5.83601 8.65313 6.27944 9.38251 6.97152 10.2528C8.21479 11.7862 9.52436 12.9755 10.9665 13.8914C11.1447 14.0075 11.3354 14.0986 11.5136 14.1898C11.6794 14.2727 11.8327 14.3514 11.9694 14.4385C11.986 14.4467 11.9985 14.455 12.015 14.4633C12.1518 14.5338 12.2844 14.5669 12.417 14.5669C12.7486 14.5669 12.9641 14.3556 13.0345 14.2851L14.5845 12.7352C14.8248 12.4948 15.0859 12.3663 15.3428 12.3663C15.6578 12.3663 15.9147 12.5611 16.0764 12.7352L18.5753 15.23C19.0726 15.7273 19.0685 16.2661 18.5629 16.7924C18.3888 16.9789 18.2065 17.1571 18.0117 17.3436C17.7216 17.6254 17.4191 17.9155 17.1456 18.2429C16.669 18.7567 16.1012 18.9971 15.3677 18.9971C15.2973 18.9971 15.2227 18.993 15.1522 18.9888C13.7929 18.9018 12.5289 18.3713 11.5799 17.9196C9.00219 16.6722 6.73945 14.9026 4.86211 12.6564C3.31632 10.7957 2.27612 9.06341 1.58818 7.2068C1.16133 6.06714 0.999703 5.15126 1.06601 4.31828Z" fill="#747373"/>
</g>
<defs>
<clipPath id="clip0_0_604">
<rect width="20" height="20" fill="white"/>
</clipPath>
</defs>
</svg>
