<svg width="20" height="20" viewBox="0 0 20 20" fill="none" xmlns="http://www.w3.org/2000/svg">
<g clip-path="url(#clip0_0_767)">
<path fill-rule="evenodd" clip-rule="evenodd" d="M10.7289 5.33726V2.81391C10.7288 2.64048 10.6813 2.47037 10.5914 2.32207C10.5014 2.17377 10.3726 2.05295 10.2188 1.97274L6.66846 0.121121C6.53302 0.0503752 6.38249 0.0134277 6.22969 0.0134277C6.07689 0.0134277 5.92635 0.0503752 5.79091 0.121121L2.24053 1.97271C2.08676 2.05292 1.95791 2.17374 1.86799 2.32204C1.77806 2.47034 1.7305 2.64045 1.73047 2.81388V10.1013C1.73047 10.2754 1.87175 10.4167 2.04582 10.4167C2.21988 10.4167 2.36116 10.2754 2.36116 10.1013V2.81391C2.36117 2.75579 2.37711 2.69877 2.40724 2.64907C2.43738 2.59936 2.48056 2.55886 2.5321 2.53197L6.08248 0.680153C6.12791 0.656542 6.17836 0.644216 6.22956 0.644216C6.28075 0.644216 6.3312 0.656542 6.37663 0.680153L9.92721 2.53197C9.97875 2.55886 10.0219 2.59936 10.0521 2.64907C10.0822 2.69877 10.0981 2.75579 10.0981 2.81391V5.33726C10.0981 5.51132 10.2394 5.65261 10.4135 5.65261C10.5876 5.65261 10.7289 5.51132 10.7289 5.33726Z" fill="#747373"/>
<path fill-rule="evenodd" clip-rule="evenodd" d="M3.66016 4.86628V7.89566C3.66016 8.30312 3.99044 8.63318 4.39767 8.63318H7.08057C7.25444 8.63318 7.39592 8.49189 7.39592 8.31783C7.39592 8.14396 7.25444 8.00248 7.08057 8.00248H4.39767C4.36935 8.00248 4.34219 7.99123 4.32216 7.9712C4.30214 7.95117 4.29089 7.92401 4.29089 7.89569V4.86631C4.29089 4.69221 4.1496 4.55096 3.97554 4.55096C3.80147 4.55096 3.66016 4.69218 3.66016 4.86628ZM8.79556 7.42534V4.23555C8.79556 3.82809 8.46527 3.4978 8.05804 3.4978H4.60795C4.43385 3.4978 4.2926 3.63909 4.2926 3.81315C4.2926 3.98722 4.43388 4.1285 4.60795 4.1285H8.05804C8.08639 4.12855 8.11356 4.13985 8.13358 4.15992C8.1536 4.17998 8.16484 4.20717 8.16483 4.23552V7.42531C8.16483 7.59917 8.30612 7.74066 8.48018 7.74066C8.65428 7.74072 8.79556 7.59921 8.79556 7.42534Z" fill="#747373"/>
<path fill-rule="evenodd" clip-rule="evenodd" d="M17.9307 9.81085V8.4329C17.9307 8.24525 17.8751 8.06181 17.7708 7.90579C17.6666 7.74978 17.5184 7.62819 17.345 7.55641C16.3135 7.1294 13.5425 5.98254 12.7062 5.63626C12.4738 5.54019 12.2128 5.54019 11.9804 5.63626C11.1443 5.98254 8.37307 7.1294 7.3418 7.55641C7.16837 7.62814 7.02012 7.74971 6.91582 7.90574C6.81151 8.06176 6.75585 8.24523 6.75586 8.4329V19.6719C6.75586 19.846 6.89714 19.9872 7.07121 19.9872C7.24527 19.9872 7.38656 19.8459 7.38656 19.6719V8.4329C7.38659 8.37 7.40526 8.30851 7.44021 8.2562C7.47515 8.20389 7.52481 8.16311 7.58291 8.13899C8.61437 7.71221 11.3854 6.56532 12.2217 6.21904C12.2996 6.18688 12.3871 6.18688 12.465 6.21904L17.1036 8.13899C17.1617 8.16307 17.2114 8.20385 17.2463 8.25617C17.2813 8.30848 17.2999 8.36999 17.2999 8.4329V9.81085C17.2999 9.98494 17.4412 10.1262 17.6153 10.1262C17.7893 10.1262 17.9307 9.98491 17.9307 9.81085Z" fill="#747373"/>
<path fill-rule="evenodd" clip-rule="evenodd" d="M11.8149 9.81538C11.8149 9.40792 11.4846 9.07764 11.0774 9.07764H9.69546C9.288 9.07764 8.95772 9.40792 8.95772 9.81538V11.3853C8.95772 11.7925 9.288 12.1228 9.69546 12.1228H11.0774C11.4846 12.1228 11.8149 11.7925 11.8149 11.3853V9.81538ZM11.1842 9.81538V11.3853C11.1842 11.4136 11.1729 11.4407 11.1529 11.4608C11.1329 11.4808 11.1057 11.4921 11.0774 11.4921H9.69546C9.68142 11.4921 9.66751 11.4893 9.65454 11.484C9.64156 11.4786 9.62976 11.4708 9.61982 11.4608C9.60988 11.4509 9.602 11.4391 9.59661 11.4262C9.59123 11.4132 9.58845 11.3993 9.58844 11.3853V9.81538C9.58845 9.787 9.59973 9.75979 9.6198 9.73972C9.63987 9.71965 9.66708 9.70837 9.69546 9.70837H11.0774C11.1057 9.70842 11.1329 9.71972 11.1529 9.73978C11.1729 9.75985 11.1842 9.78704 11.1842 9.81538ZM11.8149 14.3436C11.8149 13.9361 11.4846 13.6061 11.0774 13.6061H9.69546C9.288 13.6061 8.95772 13.9362 8.95772 14.3436V15.9135C8.95772 16.3209 9.288 16.6512 9.69546 16.6512H11.0774C11.4846 16.6512 11.8149 16.3209 11.8149 15.9135V14.3436ZM11.1842 14.3436V15.9135C11.1842 15.9418 11.1729 15.969 11.1529 15.9891C11.1329 16.0092 11.1057 16.0205 11.0774 16.0205H9.69546C9.66708 16.0205 9.63987 16.0092 9.6198 15.9892C9.59973 15.9691 9.58845 15.9419 9.58844 15.9135V14.3436C9.58845 14.3296 9.59123 14.3157 9.59661 14.3027C9.602 14.2897 9.60988 14.278 9.61982 14.268C9.62976 14.2581 9.64156 14.2503 9.65454 14.2449C9.66751 14.2395 9.68142 14.2368 9.69546 14.2368H11.0774C11.0914 14.2368 11.1053 14.2396 11.1183 14.2449C11.1312 14.2503 11.143 14.2582 11.1529 14.2681C11.1628 14.278 11.1707 14.2898 11.1761 14.3027C11.1814 14.3157 11.1842 14.3296 11.1842 14.3436ZM15.7259 10.5443V9.81538C15.7259 9.40792 15.3956 9.07764 14.9883 9.07764H13.6064C13.1989 9.07764 12.8689 9.40792 12.8689 9.81538V11.3853C12.8689 11.7925 13.199 12.1228 13.6064 12.1228H14.9883C15.1624 12.1228 15.3037 11.9815 15.3037 11.8074C15.3037 11.6334 15.1624 11.4921 14.9883 11.4921H13.6064C13.5923 11.4921 13.5785 11.4894 13.5655 11.484C13.5525 11.4786 13.5407 11.4708 13.5308 11.4608C13.5209 11.4509 13.513 11.4392 13.5077 11.4262C13.5023 11.4132 13.4995 11.3993 13.4996 11.3853V9.81542C13.4995 9.80137 13.5023 9.78746 13.5076 9.77448C13.513 9.7615 13.5209 9.7497 13.5308 9.73977C13.5407 9.72983 13.5525 9.72194 13.5655 9.71656C13.5784 9.71118 13.5923 9.7084 13.6064 9.7084H14.9883C15.0024 9.70841 15.0163 9.71118 15.0292 9.71657C15.0422 9.72195 15.054 9.72984 15.0639 9.73978C15.0738 9.74971 15.0817 9.76151 15.087 9.77449C15.0924 9.78747 15.0951 9.80137 15.0951 9.81542V10.5443C15.0951 10.7184 15.2364 10.8597 15.4105 10.8597C15.5845 10.8597 15.7259 10.7184 15.7259 10.5443ZM14.5678 13.6061H13.6064C13.1989 13.6061 12.8689 13.9361 12.8689 14.3436V15.9135C12.8689 16.3209 13.199 16.6512 13.6064 16.6512H14.5678C14.7419 16.6512 14.8832 16.5099 14.8832 16.3359C14.8832 16.1618 14.7419 16.0205 14.5678 16.0205H13.6064C13.5923 16.0205 13.5784 16.0177 13.5655 16.0123C13.5525 16.007 13.5407 15.9991 13.5308 15.9891C13.5209 15.9792 13.513 15.9674 13.5076 15.9544C13.5023 15.9414 13.4995 15.9275 13.4996 15.9135V14.3436C13.4995 14.3296 13.5023 14.3157 13.5077 14.3027C13.513 14.2898 13.5209 14.278 13.5308 14.2681C13.5407 14.2581 13.5525 14.2503 13.5655 14.2449C13.5785 14.2396 13.5923 14.2368 13.6064 14.2368H14.5678C14.7419 14.2368 14.8832 14.0953 14.8832 13.9215C14.8832 13.7473 14.7419 13.6061 14.5678 13.6061ZM5.91211 3.81315V8.31783C5.91211 8.49189 6.05339 8.63318 6.22746 8.63318C6.40156 8.63318 6.54281 8.49189 6.54281 8.31783V3.81315C6.54281 3.63909 6.40152 3.4978 6.22746 3.4978C6.05343 3.4978 5.91211 3.63909 5.91211 3.81315Z" fill="#747373"/>
<path fill-rule="evenodd" clip-rule="evenodd" d="M3.97592 6.38045H8.48059C8.65469 6.38045 8.79594 6.23917 8.79594 6.0651C8.79594 5.89101 8.65466 5.74976 8.48059 5.74976H3.97592C3.80185 5.74976 3.66057 5.89104 3.66057 6.0651C3.66054 6.23917 3.80182 6.38045 3.97592 6.38045ZM0.361816 14.1891C0.361816 14.1891 0.361618 14.1891 0.361618 14.1893C0.134984 14.6056 0 15.1154 0 15.6663C0 17.1184 0.942516 18.2605 2.04442 18.2605C3.14632 18.2605 4.08884 17.1184 4.08884 15.6663C4.08884 15.1156 3.95386 14.606 3.72808 14.1891C3.72808 14.1889 3.72788 14.1887 3.72788 14.1885C3.58511 13.9265 3.52961 13.6 3.56998 13.2821C3.56998 13.2817 3.57017 13.2812 3.57017 13.2808C3.58237 13.1815 3.58849 13.0815 3.58848 12.9815C3.58848 11.8932 2.87009 11.047 2.04445 11.047C1.21882 11.047 0.500626 11.8932 0.500626 12.9815C0.500626 13.0839 0.506925 13.1843 0.519754 13.2819C0.55989 13.6002 0.504583 13.9269 0.361816 14.1891ZM0.915604 14.4908C1.11849 14.1182 1.20259 13.6549 1.1454 13.2026C1.14521 13.202 1.14521 13.2016 1.14521 13.2009C1.13576 13.1282 1.13112 13.0548 1.13132 12.9815C1.13132 12.5395 1.28689 12.1447 1.53815 11.9018C1.68069 11.7641 1.85436 11.6777 2.04442 11.6777C2.23448 11.6777 2.40815 11.7641 2.55069 11.9018C2.80212 12.1447 2.95772 12.5395 2.95772 12.9815C2.95772 13.0571 2.9531 13.1313 2.94406 13.2039C2.88688 13.6549 2.97097 14.1181 3.17386 14.4904C3.3534 14.8215 3.45811 15.2279 3.45811 15.6663C3.45811 16.7301 2.85156 17.6297 2.04445 17.6297C1.23735 17.6297 0.630762 16.7301 0.630762 15.6663C0.630729 15.2281 0.735438 14.8219 0.915604 14.4908ZM15.6547 13.2237C15.3879 13.7137 15.2293 14.314 15.2293 14.9624C15.2293 16.6626 16.3245 18.0058 17.6145 18.0058C18.9046 18.0058 20 16.6626 20 14.9624C20 14.3142 19.8414 13.7142 19.5757 13.2237C19.5755 13.2235 19.5755 13.2232 19.5753 13.2228C19.3985 12.8984 19.3293 12.4941 19.3793 12.1001V12.0991C19.3934 11.9847 19.4007 11.8676 19.4007 11.7482C19.4007 10.4838 18.574 9.49436 17.6145 9.49436C16.6552 9.49436 15.8283 10.4838 15.8283 11.7482C15.8283 11.868 15.8359 11.9855 15.8508 12.0999C15.9009 12.4943 15.8317 12.899 15.6547 13.2237ZM16.2087 13.5254C16.4457 13.0904 16.5436 12.549 16.4766 12.0206C16.4766 12.02 16.4764 12.0196 16.4764 12.019C16.4647 11.9292 16.459 11.8387 16.4591 11.7482C16.4591 11.2005 16.6538 10.7119 16.9654 10.4108C17.1481 10.2342 17.3712 10.1251 17.6146 10.1251C17.8583 10.1251 18.0814 10.2342 18.2638 10.4108C18.5754 10.7119 18.7701 11.2005 18.7701 11.7482C18.7701 11.8413 18.7644 11.9327 18.7535 12.0219C18.6866 12.5488 18.7846 13.0899 19.0215 13.5247C19.2408 13.9296 19.3693 14.4264 19.3693 14.9624C19.3693 16.2741 18.6099 17.3751 17.6146 17.3751C16.6193 17.3751 15.8601 16.274 15.8601 14.9624C15.8601 14.4267 15.9884 13.9301 16.2087 13.5254Z" fill="#747373"/>
<path fill-rule="evenodd" clip-rule="evenodd" d="M1.73047 14.3526V19.6001C1.73047 19.7742 1.87175 19.9155 2.04582 19.9155C2.21988 19.9155 2.3612 19.7742 2.3612 19.6001V14.3526C2.3612 14.1786 2.21991 14.0373 2.04582 14.0373C1.87172 14.0373 1.73047 14.1786 1.73047 14.3526ZM17.3007 13.3893V19.6718C17.3007 19.8459 17.4419 19.9872 17.616 19.9872C17.7901 19.9872 17.9314 19.8459 17.9314 19.6718V13.3893C17.9314 13.2155 17.7901 13.074 17.616 13.074C17.4419 13.074 17.3007 13.2154 17.3007 13.3893Z" fill="#747373"/>
<path fill-rule="evenodd" clip-rule="evenodd" d="M0.315381 19.9859H19.6847C19.8588 19.9859 20 19.8446 20 19.6706C20 19.4965 19.8587 19.3552 19.6847 19.3552H0.315348C0.14125 19.3552 0 19.4965 0 19.6706C0 19.8446 0.141283 19.9859 0.315381 19.9859Z" fill="#747373"/>
</g>
<defs>
<clipPath id="clip0_0_767">
<rect width="20" height="20" fill="white"/>
</clipPath>
</defs>
</svg>
