<svg width="20" height="20" viewBox="0 0 20 20" fill="none" xmlns="http://www.w3.org/2000/svg">
<g clip-path="url(#clip0_0_708)">
<path d="M11.6667 7.57422L19.0083 9.03255C19.6 9.15755 20 9.65755 20 10.2492V18.7492C20 19.4409 19.4417 19.9992 18.75 19.9992H11.25C11.4833 19.9992 11.6667 19.8159 11.6667 19.5826V19.1659H18.75C18.975 19.1659 19.1667 18.9826 19.1667 18.7492V10.2492C19.1667 10.0576 19.0333 9.88255 18.8417 9.84089L11.6667 8.42422V7.57422Z" fill="#747373"/>
<path d="M16.2487 11.6665C16.482 11.6665 16.6654 11.8499 16.6654 12.0832C16.6654 12.3165 16.482 12.4999 16.2487 12.4999H14.582C14.3487 12.4999 14.1654 12.3165 14.1654 12.0832C14.1654 11.8499 14.3487 11.6665 14.582 11.6665H16.2487ZM16.2487 14.1665C16.482 14.1665 16.6654 14.3499 16.6654 14.5832C16.6654 14.8165 16.482 14.9999 16.2487 14.9999H14.582C14.3487 14.9999 14.1654 14.8165 14.1654 14.5832C14.1654 14.3499 14.3487 14.1665 14.582 14.1665H16.2487ZM16.2487 16.6665C16.482 16.6665 16.6654 16.8499 16.6654 17.0832C16.6654 17.3165 16.482 17.4999 16.2487 17.4999H14.582C14.3487 17.4999 14.1654 17.3165 14.1654 17.0832C14.1654 16.8499 14.3487 16.6665 14.582 16.6665H16.2487ZM11.6654 19.5832C11.6654 19.8165 11.482 19.9999 11.2487 19.9999C11.0154 19.9999 10.832 19.8165 10.832 19.5832V7.91654C10.832 7.79154 10.8904 7.67487 10.982 7.59154C11.082 7.51654 11.207 7.48321 11.332 7.50821L11.6654 7.57487V19.1665V19.5832Z" fill="#747373"/>
<path d="M10.8333 19.166V19.5827C10.8333 19.816 11.0167 19.9993 11.25 19.9993H7.91667C8.15 19.9993 8.33333 19.816 8.33333 19.5827V19.166H10.8333ZM8.75 4.16602C8.98333 4.16602 9.16667 4.34935 9.16667 4.58268C9.16667 4.81602 8.98333 4.99935 8.75 4.99935H7.08333C6.85 4.99935 6.66667 4.81602 6.66667 4.58268C6.66667 4.34935 6.85 4.16602 7.08333 4.16602H8.75ZM9.16667 7.08268C9.16667 7.31602 8.98333 7.49935 8.75 7.49935H7.08333C6.85 7.49935 6.66667 7.31602 6.66667 7.08268C6.66667 6.84935 6.85 6.66602 7.08333 6.66602H8.75C8.98333 6.66602 9.16667 6.84935 9.16667 7.08268ZM8.75 9.16602C8.98333 9.16602 9.16667 9.34935 9.16667 9.58268C9.16667 9.81602 8.98333 9.99935 8.75 9.99935H7.08333C6.85 9.99935 6.66667 9.81602 6.66667 9.58268C6.66667 9.34935 6.85 9.16602 7.08333 9.16602H8.75ZM8.75 11.666C8.98333 11.666 9.16667 11.8493 9.16667 12.0827C9.16667 12.316 8.98333 12.4993 8.75 12.4993H7.08333C6.85 12.4993 6.66667 12.316 6.66667 12.0827C6.66667 11.8493 6.85 11.666 7.08333 11.666H8.75ZM5 12.0827C5 12.316 4.81667 12.4993 4.58333 12.4993H2.91667C2.68333 12.4993 2.5 12.316 2.5 12.0827C2.5 11.8493 2.68333 11.666 2.91667 11.666H4.58333C4.81667 11.666 5 11.8493 5 12.0827ZM4.58333 4.16602C4.81667 4.16602 5 4.34935 5 4.58268C5 4.81602 4.81667 4.99935 4.58333 4.99935H2.91667C2.68333 4.99935 2.5 4.81602 2.5 4.58268C2.5 4.34935 2.68333 4.16602 2.91667 4.16602H4.58333ZM4.58333 6.66602C4.81667 6.66602 5 6.84935 5 7.08268C5 7.31602 4.81667 7.49935 4.58333 7.49935H2.91667C2.68333 7.49935 2.5 7.31602 2.5 7.08268C2.5 6.84935 2.68333 6.66602 2.91667 6.66602H4.58333ZM4.58333 9.16602C4.81667 9.16602 5 9.34935 5 9.58268C5 9.81602 4.81667 9.99935 4.58333 9.99935H2.91667C2.68333 9.99935 2.5 9.81602 2.5 9.58268C2.5 9.34935 2.68333 9.16602 2.91667 9.16602H4.58333ZM7.5 15.416C7.5 15.1827 7.30833 14.9993 7.08333 14.9993H4.58333C4.35 14.9993 4.16667 15.1827 4.16667 15.416V19.166H3.33333V15.416C3.33333 14.7243 3.89167 14.166 4.58333 14.166H7.08333C7.775 14.166 8.33333 14.7243 8.33333 15.416V19.166H7.5V15.416Z" fill="#747373"/>
<path d="M4.16536 19.166H8.33203V19.5827C8.33203 19.816 8.1487 19.9993 7.91536 19.9993H3.7487C3.51536 19.9993 3.33203 19.816 3.33203 19.5827V19.166H4.16536Z" fill="#747373"/>
<path d="M1.45833 0.166615L10.6167 1.55828C11.225 1.65828 11.6667 2.17495 11.6667 2.79161V7.57495L11.3333 7.50828C11.2083 7.48328 11.0833 7.51661 10.9833 7.59161C10.8917 7.67495 10.8333 7.79161 10.8333 7.91661V2.79161C10.8333 2.58328 10.6833 2.40828 10.4833 2.37495L1.325 0.991615C1.3 0.983281 1.275 0.983281 1.25 0.983281C1.15 0.983281 1.05833 1.01661 0.983333 1.08328C0.883333 1.16661 0.833333 1.27495 0.833333 1.39995V18.7499C0.833333 18.9833 1.025 19.1666 1.25 19.1666H3.33333V19.5833C3.33333 19.8166 3.51667 19.9999 3.75 19.9999H1.25C0.558333 19.9999 0 19.4416 0 18.7499V1.39995C0 1.03328 0.158333 0.683281 0.441667 0.449948C0.725 0.208281 1.09167 0.108281 1.45833 0.166615Z" fill="#747373"/>
</g>
<defs>
<clipPath id="clip0_0_708">
<rect width="20" height="20" fill="white"/>
</clipPath>
</defs>
</svg>
