<svg width="32" height="32" viewBox="0 0 32 32" fill="none" xmlns="http://www.w3.org/2000/svg">
<path d="M30.4998 27.9996H28.9998V18.4996C28.9997 18.3933 28.9657 18.2898 28.9028 18.2041C28.84 18.1184 28.7514 18.055 28.65 18.0231C28.5486 17.9912 28.4397 17.9924 28.3391 18.0265C28.2384 18.0607 28.1513 18.1261 28.0903 18.2131L21.0903 28.2131C21.0379 28.288 21.007 28.3759 21.0011 28.4671C20.9951 28.5583 21.0143 28.6495 21.0565 28.7305C21.0987 28.8116 21.1624 28.8796 21.2405 28.927C21.3187 28.9745 21.4084 28.9996 21.4998 28.9996H27.9998V30.4996C27.9998 30.6322 28.0525 30.7594 28.1462 30.8532C28.24 30.9469 28.3672 30.9996 28.4998 30.9996C28.6324 30.9996 28.7596 30.9469 28.8533 30.8532C28.9471 30.7594 28.9998 30.6322 28.9998 30.4996V28.9996H30.4998C30.6324 28.9996 30.7596 28.9469 30.8533 28.8532C30.9471 28.7594 30.9998 28.6322 30.9998 28.4996C30.9998 28.367 30.9471 28.2398 30.8533 28.1461C30.7596 28.0523 30.6324 27.9996 30.4998 27.9996ZM27.9998 27.9996H22.4598L27.9998 20.0856V27.9996Z" fill="#4367B1" stroke="#4367B1" stroke-width="0.6"/>
<path d="M21.5 30.0009H15.5805L21.084 23.5204C21.0965 23.5055 21.1082 23.49 21.119 23.4739C22.1544 21.9415 21.8095 19.8668 20.334 18.7519C18.5399 17.4628 16.0406 17.8722 14.7516 19.6663C14.2628 20.3466 13.9999 21.1632 14 22.0009C14 22.1335 14.0527 22.2607 14.1464 22.3544C14.2402 22.4482 14.3674 22.5009 14.5 22.5009C14.6326 22.5009 14.7598 22.4482 14.8536 22.3544C14.9473 22.2607 15 22.1335 15 22.0009C14.9998 20.344 16.3429 19.0007 17.9997 19.0006C18.6277 19.0005 19.2399 19.1975 19.75 19.5639C20.7836 20.3558 21.0242 21.8143 20.3 22.8964L14.119 30.1774C14.0573 30.2501 14.0177 30.339 14.0048 30.4335C13.992 30.528 14.0064 30.6242 14.0465 30.7108C14.0865 30.7974 14.1505 30.8707 14.2309 30.9221C14.3112 30.9735 14.4046 31.0008 14.5 31.0009H21.5C21.6326 31.0009 21.7598 30.9482 21.8536 30.8544C21.9473 30.7607 22 30.6335 22 30.5009C22 30.3683 21.9473 30.2411 21.8536 30.1473C21.7598 30.0535 21.6326 30.0009 21.5 30.0009Z" fill="#4367B1" stroke="#4367B1" stroke-width="0.6"/>
<path d="M14.511 27.5095C14.5135 27.4439 14.503 27.3784 14.4802 27.3169C14.4574 27.2553 14.4226 27.1988 14.378 27.1507C14.3333 27.1025 14.2796 27.0636 14.22 27.0362C14.1603 27.0088 14.0958 26.9935 14.0302 26.991H14.03C7.50688 26.7489 2.27131 21.5227 2.0175 15H4C4.13261 15 4.25979 14.9473 4.35355 14.8536C4.44732 14.7598 4.5 14.6326 4.5 14.5C4.5 14.3674 4.44732 14.2402 4.35355 14.1464C4.25979 14.0527 4.13261 14 4 14H2.0175C2.26769 7.48881 7.48875 2.26794 14 2.018V3.5C14 3.63261 14.0527 3.75979 14.1464 3.85355C14.2402 3.94732 14.3674 4 14.5 4C14.6326 4 14.7598 3.94732 14.8536 3.85355C14.9473 3.75979 15 3.63261 15 3.5V2.018C21.4221 2.26638 26.6054 7.35175 26.976 13.768L25.026 11.818C24.9317 11.7269 24.8054 11.6765 24.6743 11.6777C24.5432 11.6788 24.4178 11.7314 24.3251 11.8241C24.2324 11.9168 24.1798 12.0422 24.1787 12.1733C24.1775 12.3044 24.2279 12.4307 24.319 12.525L27.11 15.316C27.1626 15.3796 27.2303 15.429 27.307 15.4595C27.3266 15.4654 27.3464 15.4703 27.3665 15.474C27.4008 15.4864 27.4363 15.4949 27.4725 15.4995H27.501C27.5391 15.4966 27.5767 15.4892 27.613 15.4775C27.6336 15.475 27.6539 15.4712 27.674 15.466C27.7417 15.4419 27.8033 15.4034 27.8545 15.353L30.6835 12.525C30.7746 12.4307 30.825 12.3044 30.8238 12.1733C30.8227 12.0422 30.7701 11.9168 30.6774 11.8241C30.5847 11.7314 30.4593 11.6788 30.3282 11.6777C30.1971 11.6765 30.0708 11.7269 29.9765 11.818L27.978 13.815C27.6208 6.64813 21.7113 1.01756 14.5355 1.007C14.523 1.0065 14.5125 1 14.5 1C14.4875 1 14.477 1.0065 14.4645 1.007C7.03638 1.01719 1.01719 7.03638 1.007 14.4645C1.007 14.477 1 14.4875 1 14.5C1 14.5125 1.0065 14.523 1.007 14.5355C1.01944 21.7803 6.75319 27.7211 13.993 27.9905H14.0115C14.1408 27.9905 14.265 27.9403 14.3582 27.8507C14.4513 27.761 14.5061 27.6387 14.511 27.5095Z" fill="#4367B1" stroke="#4367B1" stroke-width="0.6"/>
<path d="M21.2176 7.78311C21.1238 7.68938 20.9966 7.63672 20.8641 7.63672C20.7315 7.63672 20.6043 7.68938 20.5106 7.78311L15.1376 13.1556C14.9369 13.0661 14.7196 13.0199 14.4998 13.0199C14.2801 13.0199 14.0628 13.0661 13.8621 13.1556L11.3181 10.6116C11.2238 10.5205 11.0975 10.4701 10.9664 10.4713C10.8353 10.4724 10.7099 10.525 10.6172 10.6177C10.5244 10.7104 10.4719 10.8358 10.4707 10.9669C10.4696 11.098 10.52 11.2243 10.6111 11.3186L13.1501 13.8576C12.7936 14.6039 13.1096 15.4979 13.8559 15.8543C14.1354 15.9878 14.4494 16.0314 14.7547 15.979C15.0601 15.9265 15.3416 15.7807 15.5606 15.5616C15.7806 15.3434 15.9268 15.0618 15.9786 14.7563C16.0305 14.4508 15.9853 14.1367 15.8496 13.8581L21.2176 8.49011C21.3113 8.39635 21.364 8.26919 21.364 8.13661C21.364 8.00403 21.3113 7.87688 21.2176 7.78311ZM14.8537 14.854L14.8536 14.8541C14.7584 14.9451 14.6318 14.9959 14.5001 14.9959C14.3684 14.9959 14.2417 14.9451 14.1466 14.8541C14.0766 14.7842 14.029 14.6951 14.0097 14.5981C13.9904 14.5011 14.0003 14.4006 14.0381 14.3092C14.0759 14.2179 14.14 14.1398 14.2222 14.0848C14.3044 14.0299 14.4011 14.0005 14.5 14.0005C14.5989 14.0005 14.6955 14.0298 14.7778 14.0847C14.86 14.1396 14.9241 14.2177 14.962 14.3091C14.9998 14.4004 15.0097 14.501 14.9905 14.598C14.9712 14.6949 14.9236 14.784 14.8537 14.854Z" fill="#4367B1" stroke="#4367B1" stroke-width="0.6"/>
</svg>
