<svg width="32" height="32" viewBox="0 0 32 32" fill="none" xmlns="http://www.w3.org/2000/svg">
<path d="M7.11305 20.942C10.072 24.4791 13.634 27.264 17.6995 29.2346C19.2473 29.9681 21.3174 30.8384 23.6236 30.9876C23.7666 30.9938 23.9033 31 24.0463 31C25.5942 31 26.8375 30.4654 27.8507 29.3651C27.8569 29.3589 27.8694 29.3465 27.8756 29.334C28.2361 28.8989 28.6464 28.5073 29.0753 28.0908C29.3675 27.811 29.6659 27.5189 29.9518 27.2205C31.2759 25.8404 31.2759 24.0874 29.9394 22.7509L26.2034 19.0149C25.5693 18.356 24.8109 18.0079 24.0152 18.0079C23.2196 18.0079 22.4549 18.356 21.8022 19.0087L19.5768 21.2341C19.3716 21.116 19.1603 21.0104 18.9614 20.9109C18.7127 20.7866 18.4827 20.6685 18.2776 20.5379C16.251 19.2511 14.411 17.5727 12.6518 15.4157C11.7629 14.2905 11.1661 13.3456 10.7496 12.3821C11.3339 11.8537 11.881 11.3005 12.4094 10.7596C12.5958 10.5669 12.7886 10.3742 12.9813 10.1815C13.6526 9.51015 14.0132 8.73311 14.0132 7.94364C14.0132 7.15416 13.6588 6.37712 12.9813 5.70576L11.1288 3.85329C10.9112 3.63572 10.7061 3.42437 10.4947 3.2068C10.0845 2.78409 9.65553 2.34894 9.23281 1.95731C8.59253 1.32947 7.84036 1 7.04467 1C6.25519 1 5.4968 1.32947 4.83165 1.96353L2.50675 4.28844C1.66133 5.13386 1.18267 6.15955 1.08321 7.34687C0.965098 8.83257 1.23862 10.4115 1.94728 12.3199C3.03514 15.2727 4.67625 18.0141 7.11305 20.942ZM2.59999 7.47741C2.67459 6.65064 2.99162 5.96063 3.58839 5.36386L5.90086 3.05139C6.26141 2.70327 6.65926 2.523 7.04467 2.523C7.42386 2.523 7.80928 2.70327 8.16361 3.06382C8.5801 3.44923 8.97173 3.85329 9.39444 4.28222C9.60579 4.49979 9.82337 4.71736 10.0409 4.94115L11.8934 6.79362C12.2788 7.17903 12.4777 7.57066 12.4777 7.95607C12.4777 8.34148 12.2788 8.73311 11.8934 9.11853C11.7007 9.31123 11.508 9.51015 11.3153 9.70286C10.7372 10.2872 10.1963 10.8404 9.59958 11.3688L9.5685 11.3999C9.05254 11.9159 9.13335 12.407 9.25768 12.7799C9.2639 12.7986 9.27011 12.811 9.27633 12.8297C9.75499 13.9797 10.4201 15.0738 11.4583 16.3792C13.3232 18.6792 15.2875 20.4633 17.4508 21.8371C17.7181 22.0112 18.0041 22.1479 18.2714 22.2847C18.52 22.409 18.75 22.5271 18.9552 22.6577C18.98 22.6701 18.9987 22.6826 19.0235 22.695C19.2287 22.8007 19.4276 22.8504 19.6265 22.8504C20.1238 22.8504 20.4471 22.5334 20.5527 22.4277L22.8777 20.1028C23.2382 19.7422 23.6298 19.5495 24.0152 19.5495C24.4877 19.5495 24.8731 19.8417 25.1155 20.1028L28.864 23.845C29.6099 24.591 29.6037 25.3991 28.8453 26.1886C28.5842 26.4683 28.3107 26.7356 28.0186 27.0153C27.5834 27.438 27.1296 27.8732 26.7193 28.3643C26.0045 29.1351 25.1528 29.4956 24.0525 29.4956C23.9469 29.4956 23.835 29.4894 23.7293 29.4832C21.6903 29.3527 19.7944 28.557 18.3708 27.8794C14.5043 26.0083 11.1101 23.3539 8.29415 19.9847C5.97546 17.1935 4.41516 14.5951 3.38325 11.8102C2.74297 10.1007 2.50053 8.7269 2.59999 7.47741Z" fill="#4367B1" stroke="#4367B1" stroke-width="0.3"/>
</svg>
