<svg width="16" height="20" viewBox="0 0 16 20" fill="none" xmlns="http://www.w3.org/2000/svg">
<path d="M6.43359 13.7773H7.05982V14.3644H6.43359V13.7773ZM7.68604 13.7773H8.31226V14.3644H7.68604V13.7773ZM8.93849 13.7773H9.56471V14.3644H8.93849V13.7773Z" fill="#747373"/>
<path d="M14.9199 8.57202C14.3577 7.49945 13.5398 6.55789 12.5546 5.84916L12.2118 6.32571C12.9006 6.82133 13.5009 7.44004 13.9776 8.14094H12.0071C11.8186 7.62063 11.5923 7.13432 11.3302 6.69174C11.8087 5.76481 12.0505 4.88133 12.0505 4.05088C12.0505 1.81722 10.2333 0 7.99963 0C5.76597 0 3.94874 1.81722 3.94874 4.05088C3.94874 4.88133 4.19051 5.76481 4.6691 6.6917C4.40694 7.13433 4.18064 7.62059 3.99215 8.1409H2.02174C2.49841 7.44 3.09865 6.82129 3.78753 6.32568L3.44467 5.84912C2.45947 6.55785 1.64158 7.49941 1.07943 8.57198C0.49849 9.68043 0.191406 10.9321 0.191406 12.1918C0.191406 16.4973 3.69415 20 7.99963 20C12.3051 20 15.8078 16.4973 15.8078 12.1918C15.8078 10.9321 15.5008 9.68043 14.9199 8.57202ZM7.70608 19.3942C6.75235 19.2726 5.85512 18.5602 5.15352 17.3575C4.95254 17.013 4.77419 16.6396 4.61974 16.2427H7.70608V19.3942ZM8.29317 19.3942V16.2427H11.3795C11.2251 16.6396 11.0467 17.013 10.8457 17.3575C10.1441 18.5602 9.24691 19.2726 8.29317 19.3942ZM8.29317 15.6556V15.0098H7.70608V15.6556H4.41419C4.11094 14.689 3.9388 13.6104 3.91325 12.4853H7.70608V13.1311H8.29317V12.4853H12.086C12.0604 13.6104 11.8883 14.689 11.5851 15.6556H8.29317ZM0.784948 12.4853H3.32604C3.35043 13.6018 3.51317 14.678 3.80096 15.6556H1.6651C1.14452 14.7073 0.830976 13.6302 0.784948 12.4853ZM6.04526 8.72798C6.76526 9.59785 7.44945 10.2229 7.70608 10.4477V11.8982H3.9134C3.9397 10.7828 4.11509 9.69765 4.41814 8.72798H6.04526ZM9.95399 8.72798H11.5811C11.8842 9.69765 12.0595 10.7828 12.0858 11.8982H8.29317V10.4477C8.5498 10.2229 9.23399 9.59785 9.95399 8.72798ZM12.6732 12.4853H15.2143C15.1683 13.6302 14.8547 14.7073 14.3341 15.6556H12.1983C12.486 14.678 12.6488 13.6018 12.6732 12.4853ZM14.3365 8.72798C14.3578 8.76677 14.3793 8.8054 14.3999 8.84458C14.8918 9.78309 15.1705 10.8331 15.214 11.8982H12.6732C12.649 10.7778 12.4867 9.70337 12.1995 8.72798H14.3365ZM11.3768 8.1409H10.4147C10.6277 7.85389 10.8201 7.57025 10.9918 7.29029C11.1327 7.55781 11.2613 7.84219 11.3768 8.1409ZM7.99963 0.587084C9.90957 0.587084 11.4634 2.14094 11.4634 4.05088C11.4634 6.61311 8.74659 9.24669 7.99951 9.92227C7.25219 9.24716 4.53583 6.61616 4.53583 4.05088C4.53583 2.14094 6.08968 0.587084 7.99963 0.587084ZM5.00741 7.29029C5.17912 7.57025 5.37152 7.85386 5.5846 8.1409H4.62244C4.73794 7.84219 4.86659 7.55781 5.00741 7.29029ZM1.59943 8.84458C1.61994 8.80544 1.64147 8.76677 1.66276 8.72798H3.79978C3.51258 9.70337 3.35027 10.7778 3.32608 11.8982H0.785222C0.828745 10.8331 1.10749 9.78309 1.59943 8.84458ZM2.02471 16.2427H3.99348C4.17634 16.7481 4.39454 17.2216 4.64644 17.6534C4.9754 18.2173 5.34718 18.6867 5.75035 19.0538C4.22002 18.5509 2.91372 17.5497 2.02471 16.2427ZM10.2489 19.0538C10.6521 18.6867 11.0239 18.2173 11.3528 17.6534C11.6047 17.2216 11.8229 16.7481 12.0058 16.2427H13.9745C13.0855 17.5497 11.7792 18.5509 10.2489 19.0538Z" fill="#747373"/>
<path d="M10.798 4.05039C10.798 2.50733 9.54266 1.25195 7.99961 1.25195C6.45655 1.25195 5.20117 2.50733 5.20117 4.05039C5.20117 5.59344 6.45655 6.84882 7.99961 6.84882C9.54266 6.84882 10.798 5.59344 10.798 4.05039ZM7.99961 1.83904C8.76282 1.83904 9.43691 2.22773 9.83448 2.81751H6.16473C6.56231 2.22773 7.2364 1.83904 7.99961 1.83904ZM5.88469 3.40459H10.1145C10.1771 3.60898 10.211 3.82577 10.211 4.05039C10.211 4.27501 10.1771 4.4918 10.1145 4.69618H5.88469C5.82215 4.4918 5.78826 4.27501 5.78826 4.05039C5.78826 3.82577 5.82215 3.60898 5.88469 3.40459ZM6.16473 5.28326H9.83448C9.43691 5.87305 8.76282 6.26174 7.99961 6.26174C7.2364 6.26174 6.56231 5.87305 6.16473 5.28326Z" fill="#747373"/>
</svg>
