<svg width="20" height="20" viewBox="0 0 20 20" fill="none" xmlns="http://www.w3.org/2000/svg">
<path d="M11.8323 10.0156L19.62 2.22774C20.1268 1.72116 20.1268 0.902074 19.62 0.395558C19.1134 -0.111019 18.2943 -0.111019 17.7878 0.395558L9.99991 8.18335L2.21229 0.395558C1.70547 -0.111019 0.886691 -0.111019 0.380115 0.395558C-0.126705 0.902134 -0.126705 1.72116 0.380115 2.22774L8.16767 10.0156L0.380175 17.8034C-0.126644 18.31 -0.126644 19.1291 0.380175 19.6356C0.500338 19.7561 0.643127 19.8516 0.80034 19.9168C0.957552 19.9819 1.12609 20.0154 1.29627 20.0152C1.62791 20.0152 1.95967 19.8883 2.21236 19.6356L9.99991 11.8478L17.7878 19.6356C17.908 19.7561 18.0508 19.8516 18.208 19.9168C18.3652 19.9819 18.5337 20.0154 18.7039 20.0152C19.0356 20.0152 19.3673 19.8883 19.62 19.6356C20.1268 19.129 20.1268 18.31 19.62 17.8034L11.8323 10.0156Z" fill="#F68939"/>
</svg>
