<svg width="26" height="26" viewBox="0 0 26 26" fill="none" xmlns="http://www.w3.org/2000/svg">
<path d="M25.2221 2.76757C25.3313 2.76757 25.436 2.72744 25.5132 2.65602C25.5904 2.58459 25.6338 2.48772 25.6338 2.38671V0.533201C25.6338 0.239179 25.3753 0 25.0574 0H12.3084C11.9906 0 11.732 0.239179 11.732 0.533201V4.03537C10.9287 3.55488 9.99287 3.29625 9.01359 3.29625C7.67247 3.29625 6.41161 3.77933 5.46329 4.65652C4.51498 5.53371 3.99267 6.7 3.99267 7.94058C3.99267 8.83519 4.26563 9.6906 4.77278 10.4274L4.12152 11.0298C3.86915 10.9099 3.55123 10.9473 3.34003 11.1425L0.458074 13.8084C0.16272 14.0816 0 14.4449 0 14.8314C0 15.2178 0.162665 15.5811 0.458074 15.8544C0.753484 16.1277 1.14628 16.2782 1.56401 16.2782C1.98179 16.2782 2.37453 16.1277 2.66994 15.8544L5.5519 13.1886C5.61441 13.1311 5.66397 13.0627 5.69771 12.9874C5.73144 12.9121 5.74869 12.8313 5.74844 12.7498C5.74844 12.6493 5.72242 12.5525 5.67394 12.4657L6.32515 11.8633C7.12173 12.3324 8.04644 12.5849 9.01364 12.5849C9.99293 12.5849 10.9288 12.3263 11.7321 11.8458V14.408H6.07492C6.01142 14.408 5.94877 14.4215 5.89189 14.4476C5.835 14.4738 5.78542 14.5117 5.74701 14.5585L2.90271 18.023C2.83189 18.1085 2.78851 18.2108 2.77752 18.3181C2.76654 18.4254 2.78838 18.5334 2.84057 18.6298C2.89198 18.7265 2.97175 18.8079 3.07078 18.8647C3.16981 18.9216 3.28411 18.9515 3.40064 18.9511H5.66318V25.4216C5.66318 25.7405 5.94366 26 6.28848 26H20.6328C20.9775 26 21.2581 25.7406 21.2581 25.4216V23.7148C21.2581 23.5044 21.0737 23.3339 20.8463 23.3339C20.6189 23.3339 20.4346 23.5044 20.4346 23.7148V25.2382H16.0881V15.9017L18.4555 18.7267C18.5141 18.7963 18.5891 18.8527 18.6747 18.8915C18.7604 18.9304 18.8544 18.9507 18.9498 18.951H20.4346V21.9374C20.4346 22.1478 20.6189 22.3183 20.8463 22.3183C21.0737 22.3183 21.2581 22.1478 21.2581 21.9374V18.951H23.5795C23.8199 18.951 24.0351 18.8269 24.1409 18.6271C24.2468 18.4274 24.221 18.1941 24.0737 18.0183L23.8177 17.7128H25.0574C25.3753 17.7128 25.6339 17.4737 25.6339 17.1796V4.16405C25.6339 3.95366 25.4495 3.78319 25.2221 3.78319C24.9948 3.78319 24.8104 3.95366 24.8104 4.16405V16.9512H23.1794L21.1718 14.5554C21.1333 14.5095 21.084 14.4723 21.0275 14.4468C20.9711 14.4212 20.9092 14.4079 20.8463 14.4079H12.5555V11.232C12.5582 11.2295 12.5611 11.2271 12.5639 11.2246C13.5122 10.3474 14.0345 9.18106 14.0345 7.94053C14.0345 6.69995 13.5123 5.53371 12.5639 4.65647C12.5611 4.65393 12.5582 4.6516 12.5555 4.64906V0.761716H24.8103V2.38671C24.8103 2.48772 24.8537 2.58459 24.9309 2.65602C25.0082 2.72744 25.1129 2.76757 25.2221 2.76757ZM20.6445 15.1696L23.175 18.1893H19.047L16.5165 15.1696H20.6445ZM15.2646 25.2382H6.48666V18.951H12.4658C12.6601 18.951 12.8463 18.8655 12.9638 18.7224L15.2646 15.92V25.2382ZM14.8466 15.1696L12.3675 18.1893H3.80014L6.27925 15.1696H14.8466ZM2.08769 15.3158C1.9478 15.4452 1.76181 15.5164 1.56401 15.5164C1.36621 15.5164 1.18021 15.4452 1.04033 15.3157C0.900448 15.1864 0.823425 15.0143 0.823425 14.8314C0.823425 14.6484 0.900448 14.4764 1.04033 14.347L3.81436 11.7811L4.86166 12.7498L2.08769 15.3158ZM5.11425 11.9061L4.72655 11.5475L5.27499 11.0402C5.33596 11.1032 5.39875 11.1647 5.46329 11.2246C5.52806 11.2843 5.59455 11.3424 5.66269 11.3988L5.11425 11.9061ZM13.211 7.94053C13.211 8.97758 12.7744 9.95263 11.9816 10.6859C11.1888 11.4192 10.1348 11.8231 9.01359 11.8231C7.89239 11.8231 6.83834 11.4193 6.04555 10.6859C5.25276 9.95263 4.81615 8.97753 4.81615 7.94053C4.81615 6.90343 5.25276 5.92843 6.04555 5.19516C6.83834 4.46183 7.89239 4.05791 9.01359 4.05791C10.1348 4.05791 11.1888 4.46178 11.9816 5.19516C12.7744 5.92843 13.211 6.90343 13.211 7.94053Z" fill="#F68939"/>
<path d="M16.4165 5.61173C16.3746 5.5801 16.3264 5.55642 16.2746 5.54203C16.2228 5.52764 16.1684 5.52282 16.1146 5.52786C16.0608 5.53289 16.0086 5.54768 15.961 5.57138C15.9134 5.59508 15.8713 5.62722 15.8371 5.66597L15.2445 6.3376L14.903 6.02164C14.8253 5.9522 14.7213 5.91376 14.6133 5.91461C14.5052 5.91546 14.4019 5.95553 14.3256 6.02618C14.2492 6.09683 14.2059 6.1924 14.205 6.29231C14.2041 6.39221 14.2456 6.48844 14.3207 6.56027L14.9843 7.17411C15.025 7.21174 15.0738 7.24105 15.1276 7.26016C15.1813 7.27927 15.2387 7.28775 15.2962 7.28506C15.3537 7.28237 15.4099 7.26857 15.4613 7.24454C15.5126 7.22052 15.558 7.1868 15.5944 7.14557L16.4751 6.14757C16.5441 6.06932 16.5767 5.96891 16.5657 5.86842C16.5547 5.76793 16.501 5.6756 16.4165 5.61173ZM22.7549 6.11548H17.6587C17.4313 6.11548 17.247 6.28595 17.247 6.49634C17.247 6.70672 17.4313 6.8772 17.6587 6.8772H22.7549C22.9823 6.8772 23.1666 6.70672 23.1666 6.49634C23.1666 6.28595 22.9823 6.11548 22.7549 6.11548ZM16.4165 7.80207C16.3319 7.73821 16.2233 7.70805 16.1146 7.71822C16.006 7.72839 15.9062 7.77806 15.8371 7.85631L15.2445 8.52794L14.903 8.21198C14.8253 8.14254 14.7213 8.1041 14.6133 8.10495C14.5052 8.1058 14.4019 8.14587 14.3256 8.21652C14.2492 8.28716 14.2059 8.38274 14.205 8.48264C14.2041 8.58255 14.2456 8.67878 14.3207 8.75061L14.9843 9.36445C15.025 9.40207 15.0738 9.43139 15.1276 9.45049C15.1813 9.4696 15.2387 9.47809 15.2962 9.4754C15.3537 9.47271 15.4099 9.45891 15.4613 9.43488C15.5126 9.41086 15.558 9.37714 15.5944 9.33591L16.4751 8.33791C16.5441 8.25966 16.5767 8.15925 16.5657 8.05876C16.5547 7.95827 16.501 7.86594 16.4165 7.80207ZM22.7549 8.30582H17.6587C17.4313 8.30582 17.247 8.47629 17.247 8.68668C17.247 8.89706 17.4313 9.06753 17.6587 9.06753H22.7549C22.9823 9.06753 23.1666 8.89706 23.1666 8.68668C23.1666 8.47629 22.9823 8.30582 22.7549 8.30582ZM16.4165 9.99241C16.3746 9.96078 16.3264 9.9371 16.2746 9.92271C16.2228 9.90831 16.1684 9.9035 16.1146 9.90854C16.0608 9.91357 16.0086 9.92836 15.961 9.95206C15.9134 9.97575 15.8713 10.0079 15.8371 10.0466L15.2445 10.7183L14.903 10.4023C14.8253 10.3329 14.7213 10.2944 14.6133 10.2953C14.5052 10.2961 14.4019 10.3362 14.3256 10.4069C14.2492 10.4775 14.2059 10.5731 14.205 10.673C14.2041 10.7729 14.2456 10.8691 14.3207 10.9409L14.9843 11.5548C15.025 11.5924 15.0738 11.6217 15.1276 11.6408C15.1813 11.6599 15.2387 11.6684 15.2962 11.6657C15.3537 11.663 15.4099 11.6492 15.4613 11.6252C15.5126 11.6012 15.558 11.5675 15.5944 11.5263L16.4751 10.5283C16.5441 10.45 16.5767 10.3496 16.5657 10.2491C16.5547 10.1486 16.501 10.0563 16.4165 9.99241ZM22.7549 10.4962H17.6587C17.4313 10.4962 17.247 10.6666 17.247 10.877C17.247 11.0874 17.4313 11.2579 17.6587 11.2579H22.7549C22.9823 11.2579 23.1666 11.0874 23.1666 10.877C23.1666 10.6666 22.9823 10.4962 22.7549 10.4962ZM16.4165 12.1827C16.3319 12.1189 16.2233 12.0887 16.1146 12.0989C16.006 12.1091 15.9062 12.1587 15.8371 12.237L15.2445 12.9086L14.903 12.5927C14.8253 12.5232 14.7213 12.4848 14.6133 12.4856C14.5052 12.4865 14.4019 12.5265 14.3256 12.5972C14.2492 12.6678 14.2059 12.7634 14.205 12.8633C14.2041 12.9632 14.2456 13.0595 14.3207 13.1313L14.9843 13.7451C15.025 13.7828 15.0738 13.8121 15.1276 13.8312C15.1813 13.8503 15.2387 13.8588 15.2962 13.8561C15.3537 13.8534 15.4099 13.8396 15.4613 13.8156C15.5126 13.7915 15.558 13.7578 15.5944 13.7166L16.4751 12.7186C16.5441 12.6403 16.5767 12.5399 16.5657 12.4394C16.5547 12.339 16.501 12.2466 16.4165 12.1827ZM22.7549 12.6864H17.6587C17.4313 12.6864 17.247 12.8569 17.247 13.0673C17.247 13.2777 17.4313 13.4482 17.6587 13.4482H22.7549C22.9823 13.4482 23.1666 13.2777 23.1666 13.0673C23.1666 12.8569 22.9823 12.6864 22.7549 12.6864ZM23.4706 3.99268V2.6289C23.4706 2.33488 23.212 2.0957 22.8941 2.0957H14.4725C14.1546 2.0957 13.8961 2.33488 13.8961 2.6289V3.99268C13.8961 4.2867 14.1546 4.52588 14.4725 4.52588H22.8941C23.212 4.52588 23.4706 4.2867 23.4706 3.99268ZM22.6471 3.76417H14.7195V2.85742H22.6471V3.76417ZM6.58883 5.69791C5.25161 6.93483 5.25167 8.94744 6.58883 10.1844C7.25755 10.8029 8.1356 11.1122 9.01398 11.1121C9.89214 11.112 10.7706 10.8028 11.4391 10.1844C11.7483 9.89892 11.9954 9.56114 12.1669 9.18941C12.1882 9.14342 12.1994 9.09401 12.2001 9.044C12.2007 8.99399 12.1906 8.94435 12.1705 8.89793C12.1504 8.8515 12.1206 8.8092 12.0828 8.77343C12.045 8.73767 12 8.70914 11.9502 8.68947C11.9005 8.66979 11.8471 8.65936 11.793 8.65878C11.739 8.6582 11.6853 8.66748 11.6351 8.68608C11.5849 8.70469 11.5392 8.73227 11.5005 8.76723C11.4619 8.80219 11.431 8.84386 11.4098 8.88985C11.2795 9.17224 11.0917 9.42885 10.8568 9.64573C9.84064 10.5857 8.18726 10.5857 7.17103 9.64573C6.15491 8.70582 6.15491 7.17645 7.17103 6.23649C8.18715 5.29653 9.84059 5.29659 10.8567 6.23644C11.1905 6.54481 11.4273 6.93131 11.5418 7.35459C11.5969 7.55868 11.8205 7.68253 12.041 7.6318C12.0935 7.61969 12.1429 7.59813 12.1863 7.56837C12.2298 7.5386 12.2665 7.50121 12.2943 7.45832C12.3221 7.41544 12.3406 7.36791 12.3485 7.31843C12.3565 7.26896 12.3538 7.21852 12.3407 7.17C12.19 6.61275 11.8783 6.10389 11.439 5.69786C10.1019 4.46098 7.92605 4.46093 6.58883 5.69791Z" fill="#F68939"/>
</svg>
