<svg width="40" height="40" viewBox="0 0 40 40" fill="none" xmlns="http://www.w3.org/2000/svg">
<path d="M35.2344 10.5469L27.0312 8.20312L24.6875 0H8.28125C6.33961 0 4.76562 1.57398 4.76562 3.51562V36.4844C4.76562 38.426 6.33961 40 8.28125 40H31.7188C33.6604 40 35.2344 38.426 35.2344 36.4844V10.5469Z" fill="#4086F4"/>
<path d="M35.2344 10.5469V36.4844C35.2344 38.426 33.6604 40 31.7188 40H20V0H24.6875L27.0312 8.20312L35.2344 10.5469Z" fill="#4175DF"/>
<path d="M35.2344 10.5469H27.0312C25.7422 10.5469 24.6875 9.49219 24.6875 8.20312V0C24.9922 0 25.2969 0.117188 25.5077 0.351641L34.8827 9.72664C35.1172 9.9375 35.2344 10.2422 35.2344 10.5469Z" fill="#80AEF8"/>
<path d="M27.0312 18.8281H12.9688C12.321 18.8281 11.7969 18.304 11.7969 17.6562C11.7969 17.0085 12.321 16.4844 12.9688 16.4844H27.0312C27.679 16.4844 28.2031 17.0085 28.2031 17.6562C28.2031 18.304 27.679 18.8281 27.0312 18.8281ZM27.0312 23.5156H12.9688C12.321 23.5156 11.7969 22.9915 11.7969 22.3438C11.7969 21.696 12.321 21.1719 12.9688 21.1719H27.0312C27.679 21.1719 28.2031 21.696 28.2031 22.3438C28.2031 22.9915 27.679 23.5156 27.0312 23.5156ZM27.0312 28.2031H12.9688C12.321 28.2031 11.7969 27.679 11.7969 27.0312C11.7969 26.3835 12.321 25.8594 12.9688 25.8594H27.0312C27.679 25.8594 28.2031 26.3835 28.2031 27.0312C28.2031 27.679 27.679 28.2031 27.0312 28.2031ZM22.3438 32.8906H12.9688C12.321 32.8906 11.7969 32.3665 11.7969 31.7188C11.7969 31.071 12.321 30.5469 12.9688 30.5469H22.3438C22.9915 30.5469 23.5156 31.071 23.5156 31.7188C23.5156 32.3665 22.9915 32.8906 22.3438 32.8906Z" fill="#FFF5F5"/>
<path d="M20 32.8906H22.3438C22.9915 32.8906 23.5156 32.3665 23.5156 31.7188C23.5156 31.071 22.9915 30.5469 22.3438 30.5469H20V32.8906ZM20 28.2031H27.0312C27.679 28.2031 28.2031 27.679 28.2031 27.0312C28.2031 26.3835 27.679 25.8594 27.0312 25.8594H20V28.2031ZM20 23.5156H27.0312C27.679 23.5156 28.2031 22.9915 28.2031 22.3438C28.2031 21.696 27.679 21.1719 27.0312 21.1719H20V23.5156ZM20 18.8281H27.0312C27.679 18.8281 28.2031 18.304 28.2031 17.6562C28.2031 17.0085 27.679 16.4844 27.0312 16.4844H20V18.8281Z" fill="#E3E7EA"/>
</svg>
