<svg width="24" height="24" viewBox="0 0 24 24" fill="none" xmlns="http://www.w3.org/2000/svg">
<g clip-path="url(#clip0_229_623)">
<path d="M17.5034 0H6.49658C2.91431 0 0 2.91431 0 6.49658V17.5036C0 21.0856 2.91431 24 6.49658 24H17.5036C21.0856 24 24 21.0856 24 17.5036V6.49658C24 2.91431 21.0856 0 17.5034 0ZM22.593 17.5036C22.593 20.3098 20.3098 22.593 17.5034 22.593H6.49658C3.69013 22.593 1.407 20.3098 1.407 17.5036V6.49658C1.407 3.69013 3.69013 1.407 6.49658 1.407H17.5036C20.3098 1.407 22.593 3.69013 22.593 6.49658V17.5036Z" fill="#F68939"/>
<path d="M11.9998 5.43995C8.3813 5.43995 5.4375 8.3837 5.4375 12.0023C5.4375 15.6208 8.38125 18.5646 11.9998 18.5646C15.6184 18.5646 18.5621 15.6208 18.5621 12.0023C18.5621 8.3837 15.6184 5.43995 11.9998 5.43995ZM11.9998 17.1576C9.15731 17.1576 6.8445 14.845 6.8445 12.0023C6.8445 9.15977 9.15731 6.84695 11.9998 6.84695C14.8425 6.84695 17.1551 9.15977 17.1551 12.0023C17.1551 14.845 14.8425 17.1576 11.9998 17.1576ZM18.7191 3.10938C17.6497 3.10938 16.78 3.97933 16.78 5.04845C16.78 6.11781 17.6497 6.98772 18.7191 6.98772C19.7884 6.98772 20.6583 6.11781 20.6583 5.0485C20.6583 3.97919 19.7884 3.10938 18.7191 3.10938ZM18.7191 5.58058C18.4257 5.58058 18.1869 5.3418 18.1869 5.04845C18.1869 4.75497 18.4257 4.51637 18.7191 4.51637C19.0125 4.51637 19.2513 4.75497 19.2513 5.04845C19.2513 5.3418 19.0125 5.58058 18.7191 5.58058Z" fill="#F68939"/>
</g>
<defs>
<clipPath id="clip0_229_623">
<rect width="24" height="24" fill="white"/>
</clipPath>
</defs>
</svg>
