<svg width="40" height="40" viewBox="0 0 40 40" fill="none" xmlns="http://www.w3.org/2000/svg">
<g clip-path="url(#clip0_229_524)">
<path d="M12.439 20.6079C12.9586 20.0882 12.9462 19.4261 12.7613 18.9798C12.5765 18.5334 12.117 18.0566 11.3821 18.0566C10.7465 18.0566 10.2294 17.5395 10.2294 16.9038V15.0592C10.2294 14.4236 10.7465 13.9065 11.3821 13.9065C12.117 13.9065 12.5765 13.4296 12.7613 12.9834C12.9462 12.537 12.9586 11.8749 12.4389 11.3552C11.9895 10.9057 11.9895 10.1745 12.4389 9.725L13.7434 8.42055C13.961 8.20281 14.2505 8.08289 14.5585 8.08289C14.8665 8.08289 15.1559 8.20281 15.3737 8.42047C15.8934 8.94023 16.5554 8.92805 17.0018 8.74305C17.448 8.5582 17.9249 8.09875 17.9249 7.36383C17.9249 6.72813 18.442 6.21102 19.0777 6.21102H20.9223C21.5579 6.21102 22.075 6.72813 22.075 7.36383C22.075 8.09875 22.5519 8.5582 22.9981 8.74305C23.4444 8.92773 24.1065 8.94016 24.6262 8.42047C25.0757 7.97102 25.8071 7.97117 26.2566 8.42047L27.561 9.725C28.0105 10.1745 28.0105 10.9057 27.561 11.3552C27.0413 11.8749 27.0537 12.537 27.2386 12.9834C27.4234 13.4296 27.8828 13.9065 28.6178 13.9065C29.2534 13.9065 29.7705 14.4236 29.7705 15.0592V16.9038C29.7705 17.5395 29.2534 18.0566 28.6178 18.0566C27.8828 18.0566 27.4234 18.5335 27.2386 18.9798C27.0537 19.4261 27.0413 20.0882 27.561 20.6079C27.6684 20.7147 27.7536 20.8417 27.8115 20.9816C27.8695 21.1216 27.8991 21.2716 27.8987 21.423C27.8987 21.7309 27.7787 22.0205 27.561 22.2383L26.2566 23.5427C25.807 23.9921 25.0757 23.9922 24.6262 23.5426C24.2684 23.1848 23.7829 23.0344 23.2938 23.1308C23.1515 23.1588 23.0039 23.1291 22.8835 23.0482C22.7631 22.9674 22.6797 22.842 22.6517 22.6997C22.6237 22.5574 22.6534 22.4098 22.7343 22.2894C22.8151 22.1689 22.9405 22.0856 23.0828 22.0576C23.9354 21.8899 24.7797 22.1494 25.3997 22.7691C25.4052 22.7746 25.4117 22.779 25.4188 22.782C25.426 22.7849 25.4337 22.7865 25.4414 22.7865C25.4492 22.7865 25.4569 22.7849 25.464 22.782C25.4712 22.779 25.4777 22.7746 25.4832 22.7691L26.7877 21.4648C26.7932 21.4593 26.7976 21.4529 26.8006 21.4457C26.8035 21.4385 26.805 21.4308 26.8049 21.423C26.805 21.4153 26.8036 21.4076 26.8006 21.4005C26.7977 21.3933 26.7933 21.3868 26.7877 21.3814C26.0341 20.6278 25.8197 19.5472 26.228 18.5613C26.6364 17.5754 27.5521 16.9629 28.6177 16.9629C28.6334 16.9629 28.6484 16.9566 28.6594 16.9456C28.6705 16.9345 28.6767 16.9195 28.6767 16.9038V15.0592C28.6767 15.0436 28.6705 15.0286 28.6594 15.0175C28.6484 15.0065 28.6334 15.0003 28.6177 15.0002C27.5521 15.0002 26.6364 14.3877 26.228 13.4019C25.8196 12.4159 26.0341 11.3353 26.7877 10.5817C26.7987 10.5706 26.8049 10.5556 26.8049 10.54C26.8049 10.5244 26.7987 10.5094 26.7877 10.4983L25.4832 9.19383C25.4721 9.18282 25.4571 9.17666 25.4414 9.17667C25.4258 9.17669 25.4108 9.18288 25.3997 9.19391C24.6461 9.94742 23.5655 10.1619 22.5796 9.75344C21.5937 9.34508 20.9813 8.42945 20.9813 7.36375C20.9813 7.3481 20.9751 7.33309 20.9641 7.32201C20.953 7.31094 20.938 7.30471 20.9223 7.30469H19.0777C19.0621 7.30471 19.0471 7.31094 19.036 7.32201C19.025 7.33309 19.0187 7.3481 19.0187 7.36375C19.0187 8.42945 18.4063 9.34508 17.4204 9.75344C16.4345 10.162 15.3537 9.94742 14.6003 9.19383C14.5892 9.18284 14.5742 9.17667 14.5586 9.17667C14.543 9.17667 14.528 9.18284 14.5169 9.19383L13.2124 10.4983C13.2014 10.5094 13.1952 10.5244 13.1952 10.54C13.1952 10.5556 13.2014 10.5706 13.2124 10.5817C13.966 11.3353 14.1804 12.4159 13.772 13.4019C13.3636 14.3878 12.4479 15.0002 11.3823 15.0002C11.3666 15.0003 11.3516 15.0065 11.3406 15.0175C11.3295 15.0286 11.3233 15.0436 11.3233 15.0592V16.9038C11.3233 16.9364 11.3498 16.9629 11.3823 16.9629C12.4479 16.9629 13.3636 17.5753 13.772 18.5613C14.1804 19.5472 13.9659 20.6277 13.2124 21.3813C13.2069 21.3867 13.2025 21.3932 13.1995 21.4004C13.1965 21.4076 13.195 21.4153 13.1952 21.423C13.1952 21.4393 13.201 21.4534 13.2124 21.4648L14.5169 22.7691C14.5279 22.7802 14.543 22.7864 14.5586 22.7864C14.5743 22.7864 14.5893 22.7802 14.6004 22.7691C15.2284 22.1413 16.0826 21.8834 16.9437 22.0615C17.014 22.076 17.0808 22.1043 17.1402 22.1446C17.1996 22.185 17.2505 22.2367 17.2899 22.2967C17.3294 22.3567 17.3566 22.4239 17.3701 22.4944C17.3835 22.565 17.383 22.6375 17.3684 22.7078C17.3072 23.0035 17.0179 23.194 16.7221 23.1325C16.228 23.0305 15.7367 23.1797 15.3738 23.5425C15.1561 23.7602 14.8666 23.8802 14.5587 23.8802C14.2507 23.8802 13.9612 23.7602 13.7435 23.5425L12.4391 22.2382C12.3317 22.1314 12.2466 22.0043 12.1886 21.8644C12.1307 21.7245 12.1011 21.5744 12.1015 21.423C12.101 21.2715 12.1305 21.1215 12.1885 20.9816C12.2464 20.8417 12.3316 20.7146 12.439 20.6079ZM15.1446 30.7129C15.1446 30.5679 15.087 30.4288 14.9844 30.3262C14.8819 30.2236 14.7428 30.166 14.5977 30.166H1.25C1.10496 30.166 0.96586 30.2236 0.863301 30.3262C0.760742 30.4288 0.703125 30.5679 0.703125 30.7129C0.703125 30.8579 0.760742 30.997 0.863301 31.0996C0.96586 31.2021 1.10496 31.2598 1.25 31.2598H14.5977C14.7428 31.2598 14.8819 31.2021 14.9844 31.0996C15.087 30.997 15.1446 30.8579 15.1446 30.7129ZM20 12.0965C22.1422 12.0965 23.885 13.8393 23.885 15.9815C23.885 16.9918 23.4991 17.9488 22.7982 18.6763C22.7478 18.7279 22.7081 18.789 22.6813 18.856C22.6546 18.923 22.6414 18.9947 22.6425 19.0668C22.6436 19.139 22.659 19.2102 22.6877 19.2763C22.7164 19.3425 22.758 19.4024 22.81 19.4524C22.8619 19.5025 22.9233 19.5417 22.9905 19.568C23.0577 19.5942 23.1294 19.6069 23.2016 19.6053C23.2737 19.6037 23.3448 19.5878 23.4108 19.5586C23.4767 19.5294 23.5363 19.4874 23.5859 19.4351C24.4841 18.5027 24.9787 17.2761 24.9787 15.9814C24.9787 13.2361 22.7453 11.0027 20 11.0027C17.2547 11.0027 15.0212 13.2361 15.0212 15.9814C15.0212 17.2911 15.5257 18.5277 16.4416 19.4635C16.4924 19.5156 16.5532 19.557 16.6204 19.5852C16.6875 19.6135 16.7596 19.628 16.8324 19.6279C16.9401 19.6279 17.0453 19.5961 17.135 19.5365C17.2247 19.4769 17.2947 19.3922 17.3365 19.293C17.3782 19.1938 17.3897 19.0844 17.3696 18.9787C17.3494 18.8729 17.2985 18.7755 17.2232 18.6985C16.5086 17.9684 16.115 17.0034 16.115 15.9815C16.115 13.8393 17.8578 12.0965 20 12.0965ZM39.1367 30.3262L36.8237 28.0133C36.7212 27.9107 36.5821 27.8531 36.437 27.8531C36.292 27.8531 36.1529 27.9108 36.0503 28.0133C35.9478 28.1159 35.8902 28.255 35.8902 28.4C35.8902 28.5451 35.9478 28.6842 36.0504 28.7867L37.4298 30.166H32.9201C32.775 30.166 32.6359 30.2236 32.5334 30.3262C32.4308 30.4288 32.3732 30.5679 32.3732 30.7129C32.3732 30.8579 32.4308 30.997 32.5334 31.0996C32.6359 31.2021 32.775 31.2598 32.9201 31.2598H37.4298L36.0505 32.6391C35.9479 32.7417 35.8903 32.8808 35.8903 33.0258C35.8903 33.1709 35.9479 33.31 36.0505 33.4125C36.1531 33.5151 36.2922 33.5727 36.4372 33.5727C36.5823 33.5727 36.7213 33.5151 36.8239 33.4125L39.1369 31.0996C39.1876 31.0488 39.2279 30.9885 39.2554 30.9222C39.2829 30.8558 39.297 30.7847 39.297 30.7129C39.297 30.641 39.2828 30.5699 39.2553 30.5036C39.2278 30.4372 39.1875 30.3769 39.1367 30.3262ZM34.8386 12.3397L36.103 13.0697C36.1653 13.1062 36.2341 13.13 36.3055 13.1397C36.377 13.1495 36.4497 13.1451 36.5194 13.1266C36.5891 13.1082 36.6545 13.0761 36.7118 13.0323C36.7691 12.9885 36.8172 12.9338 36.8532 12.8714C36.8893 12.8089 36.9126 12.7399 36.9219 12.6684C36.9312 12.5969 36.9263 12.5242 36.9074 12.4546C36.8885 12.385 36.856 12.3198 36.8118 12.2628C36.7676 12.2058 36.7126 12.1581 36.6499 12.1225L34.3767 10.81C32.2526 4.92297 26.6102 0.703125 20 0.703125C13.0555 0.703125 7.17906 5.3607 5.32844 11.7159L4.59844 10.4516C4.5254 10.3271 4.40605 10.2364 4.26644 10.1995C4.12682 10.1626 3.97828 10.1824 3.85321 10.2546C3.72815 10.3268 3.63672 10.4456 3.59889 10.5849C3.56105 10.7243 3.57987 10.873 3.65125 10.9985L4.96273 13.27C4.80202 14.1649 4.72134 15.0723 4.72164 15.9815C4.72164 21.7137 7.88578 26.9146 12.9792 29.5546C13.0597 29.5963 13.1456 29.6161 13.2304 29.6161C13.353 29.6162 13.472 29.5751 13.5685 29.4995C13.6649 29.4238 13.7331 29.3179 13.7622 29.1989C13.7913 29.0798 13.7795 28.9544 13.7288 28.8428C13.6781 28.7312 13.5913 28.6399 13.4825 28.5835C8.7532 26.1323 5.81531 21.3034 5.81531 15.9814C5.81531 15.1425 5.88898 14.3206 6.02937 13.5213L8.26016 12.2334C8.38474 12.1604 8.47537 12.0411 8.51229 11.9014C8.5492 11.7618 8.52939 11.6133 8.45718 11.4882C8.38497 11.3632 8.26623 11.2717 8.12686 11.2339C7.9875 11.1961 7.83882 11.2149 7.71328 11.2863L6.36586 12.0642C8.07 6.14195 13.537 1.79688 20 1.79688C26.1171 1.79688 31.342 5.68914 33.3287 11.127L32.041 13.3575C32.0042 13.4197 31.9801 13.4887 31.9701 13.5603C31.96 13.6319 31.9643 13.7048 31.9827 13.7747C32.001 13.8447 32.0331 13.9103 32.0769 13.9678C32.1208 14.0252 32.1756 14.0735 32.2383 14.1096C32.3009 14.1458 32.3701 14.1691 32.4418 14.1784C32.5135 14.1876 32.5863 14.1825 32.6561 14.1635C32.7258 14.1444 32.7911 14.1116 32.8481 14.0671C32.9051 14.0227 32.9527 13.9673 32.9882 13.9043L33.7659 12.5573C34.0445 13.6774 34.1851 14.8273 34.1847 15.9814C34.1847 19.1257 33.1772 22.1041 31.271 24.5945C31.1829 24.7097 31.1441 24.8552 31.1632 24.999C31.1823 25.1427 31.2577 25.273 31.3729 25.3612C31.4299 25.4048 31.495 25.4368 31.5644 25.4554C31.6338 25.4739 31.7061 25.4785 31.7773 25.4691C31.8485 25.4596 31.9171 25.4362 31.9793 25.4002C32.0414 25.3642 32.0959 25.3163 32.1395 25.2593C34.193 22.5763 35.2784 19.3681 35.2784 15.9813C35.2788 14.7542 35.1311 13.5315 34.8386 12.3397ZM31.8781 27.4047L31.9166 32.2635C31.9112 34.216 31.0958 36.0976 29.6794 37.4315C28.3934 38.6426 26.7344 39.2968 24.9709 39.2969C24.8342 39.2969 24.6973 39.293 24.5595 39.2851C21.0431 39.0838 19.9578 38.1748 18.1598 36.669C17.5431 36.1526 16.8443 35.5672 15.9155 34.8933C14.8313 34.1067 14.5547 32.6155 15.2857 31.4986C15.9616 30.4657 16.9389 30.3952 17.8491 30.5863L17.848 18.7622C17.8483 18.1855 18.0743 17.6426 18.4844 17.2331C18.894 16.8241 19.4366 16.5988 20.0123 16.5988H20.0137C20.59 16.5992 21.1329 16.8252 21.5423 17.2352C21.952 17.6452 22.1773 18.1883 22.1769 18.7647L22.1697 25.539C22.4967 25.3434 22.866 25.2391 23.2471 25.2391H23.2487C23.8249 25.2395 24.3677 25.4654 24.7772 25.8752C24.8072 25.9053 24.8362 25.936 24.8643 25.9675C24.8928 25.9355 24.9223 25.9042 24.9529 25.8737C25.3623 25.4645 25.905 25.2392 26.4808 25.2392H26.4823C27.0592 25.2396 27.6025 25.4659 28.0121 25.8765C28.0416 25.9061 28.0701 25.9363 28.0976 25.9672C28.1259 25.9355 28.1551 25.9045 28.1854 25.8742C28.5949 25.4648 29.1376 25.2392 29.7137 25.2392H29.7152C30.2914 25.2395 30.8344 25.4654 31.2439 25.8754C31.6534 26.2852 31.8786 26.8284 31.8781 27.4047ZM30.8229 32.2663L30.7844 27.4085C30.7847 27.1196 30.673 26.8512 30.47 26.648C30.2669 26.4448 29.9987 26.3328 29.7145 26.3327H29.7137C29.4297 26.3327 29.1616 26.4445 28.9587 26.6473C28.7566 26.8495 28.6449 27.1163 28.6442 27.3992V27.4042C28.6439 27.5491 28.5862 27.6879 28.4837 27.7902C28.3811 27.8925 28.2422 27.95 28.0973 27.95H28.097C27.952 27.9499 27.8131 27.8923 27.7106 27.7898C27.6082 27.6874 27.5506 27.5484 27.5505 27.4035V27.3992C27.5503 27.1173 27.4393 26.8508 27.2376 26.6486C27.0345 26.4451 26.766 26.3328 26.4815 26.3327H26.4808C26.1969 26.3327 25.9289 26.4443 25.7259 26.647C25.5227 26.8502 25.4109 27.1185 25.411 27.403V27.4041C25.4107 27.549 25.353 27.6879 25.2505 27.7902C25.148 27.8926 25.009 27.9501 24.8641 27.9501H24.8637C24.7188 27.95 24.5798 27.8923 24.4774 27.7898C24.3749 27.6873 24.3173 27.5483 24.3173 27.4034V27.3984C24.3167 27.1165 24.2053 26.8501 24.0034 26.648C23.8004 26.4448 23.5321 26.3329 23.2479 26.3327H23.2472C22.9757 26.3327 22.7123 26.447 22.5055 26.6548C22.2927 26.8684 22.1701 27.1543 22.1677 27.441V27.4579C22.1675 27.6026 22.1099 27.7414 22.0076 27.8438C21.9053 27.9462 21.7666 28.0039 21.6218 28.0041H21.6207C21.4761 28.0041 21.3374 27.9469 21.2349 27.8449C21.1325 27.7429 21.0745 27.6045 21.0738 27.4599V27.4369L21.083 18.7634C21.0832 18.4795 20.9715 18.2111 20.7685 18.0078C20.5654 17.8045 20.2971 17.6925 20.0129 17.6923H20.0123C19.7284 17.6923 19.4603 17.8041 19.2572 18.0068C19.0539 18.2098 18.9419 18.478 18.9417 18.7622L18.943 31.3045C18.9429 31.3911 18.9224 31.4764 18.8829 31.5536C18.8435 31.6307 18.7863 31.6973 18.7161 31.748C18.6458 31.7987 18.5646 31.832 18.4789 31.8451C18.3933 31.8582 18.3058 31.8508 18.2236 31.8235C17.7387 31.6623 17.3791 31.5966 17.105 31.5966C16.5887 31.5966 16.3759 31.8298 16.2009 32.0973C15.7898 32.7252 15.9467 33.5645 16.5578 34.0078C17.5174 34.7041 18.2317 35.3024 18.862 35.8302C20.5968 37.2831 21.4676 38.0124 24.6221 38.193C26.2348 38.2858 27.7647 37.7321 28.9295 36.6352C30.1283 35.5064 30.8184 33.914 30.8229 32.2663Z" fill="white"/>
</g>
<defs>
<clipPath id="clip0_229_524">
<rect width="40" height="40" fill="white"/>
</clipPath>
</defs>
</svg>
