<svg width="36" height="36" viewBox="0 0 36 36" fill="none" xmlns="http://www.w3.org/2000/svg">
<g clip-path="url(#clip0_229_529)">
<path d="M33.4718 15.6955C33.3436 11.7825 31.7268 8.06593 28.9515 5.30444C26.0248 2.37719 22.1351 0.765625 17.9996 0.765625C9.64708 0.765625 2.82227 7.41381 2.52808 15.6955C1.88404 15.9808 1.33656 16.4467 0.951978 17.0369C0.567399 17.627 0.362229 18.316 0.361328 19.0204V23.1053C0.36237 24.0699 0.74602 24.9947 1.4281 25.6768C2.11018 26.3589 3.03497 26.7425 3.99958 26.7436C4.62369 26.7428 5.22202 26.4946 5.66333 26.0533C6.10464 25.6119 6.3529 25.0136 6.35364 24.3895V17.7357C6.35364 16.5168 5.41877 15.5228 4.2302 15.4047C4.66895 8.1895 10.6753 2.45312 17.9996 2.45312C21.6851 2.45312 25.1507 3.88975 27.759 6.49806C30.1541 8.89319 31.5559 12.0151 31.7668 15.4052C30.5794 15.5245 29.6462 16.5179 29.6462 17.7357V24.3889C29.6462 25.618 30.5957 26.6181 31.7983 26.7222V28.4035C31.7973 29.3139 31.4351 30.1867 30.7913 30.8304C30.1475 31.4741 29.2747 31.8361 28.3643 31.837H25.8212C25.6498 31.3371 25.3261 30.9035 24.8956 30.597C24.4651 30.2905 23.9495 30.1266 23.421 30.1281H20.7998C20.4235 30.1281 20.0623 30.208 19.7316 30.3621C19.2887 30.5667 18.9136 30.8937 18.6505 31.3046C18.3873 31.7154 18.2472 32.1929 18.2466 32.6807C18.2466 33.3636 18.5126 34.0049 18.9947 34.4847C19.231 34.7229 19.5122 34.9118 19.8221 35.0404C20.1319 35.169 20.4643 35.2348 20.7998 35.2339H23.421C24.5078 35.2339 25.4657 34.5314 25.8229 33.5245H28.3643C31.1886 33.5245 33.4858 31.2272 33.4858 28.4035V26.4218C34.126 26.1349 34.6697 25.6692 35.0515 25.0806C35.4333 24.4921 35.637 23.8057 35.638 23.1042V19.0193C35.638 17.5377 34.7458 16.2619 33.4718 15.6955ZM4.66558 17.7357V24.3889C4.66558 24.7563 4.36689 25.0555 3.99902 25.0555C3.48183 25.0549 2.98599 24.8492 2.62028 24.4835C2.25458 24.1178 2.04886 23.6219 2.04827 23.1047V19.0199C2.04886 18.5027 2.25458 18.0069 2.62028 17.6411C2.98599 17.2754 3.48183 17.0697 3.99902 17.0691C4.36689 17.0691 4.66558 17.3684 4.66558 17.7357ZM24.2676 32.8619C24.2257 33.0556 24.1188 33.2292 23.9648 33.3539C23.8107 33.4786 23.6187 33.5469 23.4205 33.5476H20.7992C20.5686 33.5476 20.352 33.4576 20.1866 33.2922C20.1061 33.2123 20.0423 33.1172 19.9989 33.0124C19.9554 32.9076 19.9332 32.7953 19.9335 32.6819C19.9341 32.4525 20.0255 32.2327 20.1878 32.0706C20.35 31.9085 20.5698 31.8172 20.7992 31.8167H23.4205C23.6511 31.8167 23.8676 31.9062 24.0325 32.0716C24.1956 32.2341 24.2856 32.4513 24.2856 32.6819C24.2861 32.7438 24.2794 32.8056 24.2676 32.8619ZM33.9505 23.1047C33.9499 23.6219 33.7441 24.1178 33.3784 24.4835C33.0127 24.8492 32.5169 25.0549 31.9997 25.0555C31.823 25.0554 31.6535 24.9851 31.5285 24.8601C31.4036 24.7351 31.3333 24.5657 31.3331 24.3889V17.7357C31.3331 17.3684 31.6318 17.0691 31.9997 17.0691C32.5169 17.0697 33.0127 17.2754 33.3784 17.6411C33.7441 18.0069 33.9499 18.5027 33.9505 19.0199V23.1047Z" fill="white"/>
<path d="M23.4633 23.3964C24.4112 23.3953 25.32 23.0183 25.9902 22.3481C26.6605 21.6778 27.0375 20.769 27.0386 19.8211V12.5362C27.0386 11.5833 26.6662 10.6856 25.9901 10.0094C25.3139 9.33331 24.4168 8.96094 23.4633 8.96094H12.5362C11.5883 8.96198 10.6795 9.33899 10.0093 10.0093C9.33899 10.6795 8.96198 11.5883 8.96094 12.5362V19.8211C8.96198 20.769 9.33899 21.6778 10.0093 22.3481C10.6795 23.0183 11.5883 23.3953 12.5362 23.3964H12.6031V25.2841C12.602 25.5146 12.6465 25.7431 12.734 25.9563C12.8215 26.1696 12.9503 26.3635 13.1129 26.5268C13.2756 26.6901 13.469 26.8196 13.6819 26.9079C13.8948 26.9963 14.1231 27.0416 14.3536 27.0414C14.584 27.0418 14.8121 26.9959 15.0243 26.9063C15.2365 26.8167 15.4285 26.6853 15.5889 26.5199L18.7293 23.3964H23.4633ZM17.7871 21.9541L14.3885 25.3342C14.3733 25.3499 14.3621 25.3617 14.33 25.3477C14.2912 25.3319 14.2912 25.3066 14.2912 25.2841V22.5526C14.2912 22.3288 14.2023 22.1142 14.0441 21.956C13.8858 21.7978 13.6712 21.7089 13.4474 21.7089H12.5368C12.0363 21.7083 11.5565 21.5092 11.2026 21.1553C10.8487 20.8014 10.6496 20.3216 10.649 19.8211V12.5362C10.6496 12.0357 10.8487 11.5559 11.2026 11.202C11.5565 10.8481 12.0363 10.649 12.5368 10.6484H23.4639C23.9668 10.6484 24.4398 10.8453 24.7976 11.2025C25.1553 11.5602 25.3516 12.0339 25.3516 12.5362V19.8211C25.351 20.3216 25.152 20.8014 24.7981 21.1553C24.4442 21.5092 23.9644 21.7083 23.4639 21.7089H18.3822C18.1589 21.7089 17.9452 21.7972 17.7871 21.9541Z" fill="white"/>
<path d="M13.9011 15.0684C13.2148 15.0684 12.6562 15.6275 12.6562 16.3132C12.6562 16.9989 13.2154 17.558 13.9011 17.558C14.5879 17.558 15.147 16.9989 15.147 16.3132C15.147 15.6275 14.5884 15.0684 13.9011 15.0684ZM17.9994 15.0684C17.3132 15.0684 16.7546 15.6275 16.7546 16.3132C16.7546 16.9989 17.3138 17.558 17.9994 17.558C18.6868 17.558 19.2454 16.9989 19.2454 16.3132C19.2454 15.6275 18.6868 15.0684 17.9994 15.0684ZM22.0978 15.0684C21.4116 15.0684 20.853 15.6275 20.853 16.3132C20.853 16.9989 21.4121 17.558 22.0978 17.558C22.7846 17.558 23.3438 16.9989 23.3438 16.3132C23.3438 15.6275 22.7846 15.0684 22.0978 15.0684Z" fill="white"/>
</g>
<defs>
<clipPath id="clip0_229_529">
<rect width="36" height="36" fill="white"/>
</clipPath>
</defs>
</svg>
