<svg width="36" height="36" viewBox="0 0 36 36" fill="none" xmlns="http://www.w3.org/2000/svg">
<g clip-path="url(#clip0_229_511)">
<path d="M21.9375 19.6875C21.8551 19.6875 21.7736 19.6693 21.699 19.6343C21.6243 19.5993 21.5583 19.5483 21.5055 19.485L18.8618 16.3125H17.4375V15.1875H19.125C19.2074 15.1875 19.2889 15.2057 19.3635 15.2407C19.4382 15.2757 19.5042 15.3266 19.557 15.39L21.9375 18.2464L24.318 15.39C24.3708 15.3266 24.4368 15.2757 24.5115 15.2407C24.5861 15.2057 24.6676 15.1875 24.75 15.1875H34.3125C34.4617 15.1875 34.6048 15.1282 34.7102 15.0227C34.8157 14.9173 34.875 14.7742 34.875 14.625V2.25C34.875 2.10082 34.8157 1.95774 34.7102 1.85225C34.6048 1.74676 34.4617 1.6875 34.3125 1.6875H9.5625C9.41332 1.6875 9.27024 1.74676 9.16475 1.85225C9.05926 1.95774 9 2.10082 9 2.25V14.625C9 14.7742 9.05926 14.9173 9.16475 15.0227C9.27024 15.1282 9.41332 15.1875 9.5625 15.1875H11.25V16.3125H9.5625C9.11495 16.3125 8.68572 16.1347 8.36926 15.8182C8.05279 15.5018 7.875 15.0726 7.875 14.625V2.25C7.875 1.80245 8.05279 1.37322 8.36926 1.05676C8.68572 0.74029 9.11495 0.5625 9.5625 0.5625H34.3125C34.7601 0.5625 35.1893 0.74029 35.5057 1.05676C35.8222 1.37322 36 1.80245 36 2.25V14.625C36 15.0726 35.8222 15.5018 35.5057 15.8182C35.1893 16.1347 34.7601 16.3125 34.3125 16.3125H25.0132L22.3695 19.485C22.3167 19.5483 22.2507 19.5993 22.176 19.6343C22.1014 19.6693 22.0199 19.6875 21.9375 19.6875Z" fill="white"/>
<path d="M9.5625 21.9375H6.1875V20.8125H9.36506L10.7573 19.6993C11.0872 19.4363 11.3535 19.1021 11.5362 18.7218C11.719 18.3414 11.8134 17.9247 11.8125 17.5027V14.0625C11.8125 13.9133 11.8718 13.7702 11.9773 13.6648C12.0827 13.5593 12.2258 13.5 12.375 13.5C16.8238 13.5 16.875 16.8412 16.875 16.875V21.375H15.75V16.875C15.7461 16.6629 15.6313 14.8669 12.9375 14.6469V17.5027C12.9389 18.0935 12.8067 18.6769 12.5508 19.2093C12.2949 19.7417 11.922 20.2094 11.4598 20.5774L9.91406 21.8149C9.81419 21.8945 9.69021 21.9377 9.5625 21.9375Z" fill="white"/>
<path d="M22.5 25.3125H17.4375V24.1875H22.5C22.7984 24.1875 23.0845 24.069 23.2955 23.858C23.5065 23.647 23.625 23.3609 23.625 23.0625C23.625 22.7641 23.5065 22.478 23.2955 22.267C23.0845 22.056 22.7984 21.9375 22.5 21.9375H14.625V20.8125H22.5C23.0967 20.8125 23.669 21.0496 24.091 21.4715C24.5129 21.8935 24.75 22.4658 24.75 23.0625C24.75 23.6592 24.5129 24.2315 24.091 24.6535C23.669 25.0754 23.0967 25.3125 22.5 25.3125Z" fill="white"/>
<path d="M23.0625 28.6875H18V27.5625H23.0625C23.3609 27.5625 23.647 27.444 23.858 27.233C24.069 27.022 24.1875 26.7359 24.1875 26.4375C24.1875 26.1391 24.069 25.853 23.858 25.642C23.647 25.431 23.3609 25.3125 23.0625 25.3125H18V24.1875H23.0625C23.6592 24.1875 24.2315 24.4246 24.6535 24.8465C25.0754 25.2685 25.3125 25.8408 25.3125 26.4375C25.3125 27.0342 25.0754 27.6065 24.6535 28.0285C24.2315 28.4504 23.6592 28.6875 23.0625 28.6875Z" fill="white"/>
<path d="M22.5 32.0625H17.4375V30.9375H22.5C22.7984 30.9375 23.0845 30.819 23.2955 30.608C23.5065 30.397 23.625 30.1109 23.625 29.8125C23.625 29.5141 23.5065 29.228 23.2955 29.017C23.0845 28.806 22.7984 28.6875 22.5 28.6875H17.4375V27.5625H22.5C23.0967 27.5625 23.669 27.7996 24.091 28.2215C24.5129 28.6435 24.75 29.2158 24.75 29.8125C24.75 30.4092 24.5129 30.9815 24.091 31.4035C23.669 31.8254 23.0967 32.0625 22.5 32.0625Z" fill="white"/>
<path d="M21.375 35.4375H10.6875C9.75588 35.3652 8.87956 34.9668 8.2125 34.3125H6.1875V33.1875H8.4375C8.58667 33.1875 8.72972 33.2468 8.83519 33.3523C9.31684 33.8883 9.97781 34.2298 10.6937 34.3125H21.375C21.6734 34.3125 21.9595 34.194 22.1705 33.983C22.3815 33.772 22.5 33.4859 22.5 33.1875C22.5 32.8891 22.3815 32.603 22.1705 32.392C21.9595 32.181 21.6734 32.0625 21.375 32.0625H17.4375V30.9375H21.375C21.9717 30.9375 22.544 31.1746 22.966 31.5965C23.3879 32.0185 23.625 32.5908 23.625 33.1875C23.625 33.7842 23.3879 34.3565 22.966 34.7785C22.544 35.2004 21.9717 35.4375 21.375 35.4375Z" fill="white"/>
<path d="M5.0625 35.4375H1.6875C1.23995 35.4375 0.810725 35.2597 0.494257 34.9432C0.17779 34.6268 0 34.1976 0 33.75L0 21.375C0 20.9274 0.17779 20.4982 0.494257 20.1818C0.810725 19.8653 1.23995 19.6875 1.6875 19.6875H5.0625C5.51005 19.6875 5.93928 19.8653 6.25574 20.1818C6.57221 20.4982 6.75 20.9274 6.75 21.375V33.75C6.75 34.1976 6.57221 34.6268 6.25574 34.9432C5.93928 35.2597 5.51005 35.4375 5.0625 35.4375ZM1.6875 20.8125C1.53832 20.8125 1.39524 20.8718 1.28975 20.9773C1.18426 21.0827 1.125 21.2258 1.125 21.375V33.75C1.125 33.8992 1.18426 34.0423 1.28975 34.1477C1.39524 34.2532 1.53832 34.3125 1.6875 34.3125H5.0625C5.21168 34.3125 5.35476 34.2532 5.46025 34.1477C5.56574 34.0423 5.625 33.8992 5.625 33.75V21.375C5.625 21.2258 5.56574 21.0827 5.46025 20.9773C5.35476 20.8718 5.21168 20.8125 5.0625 20.8125H1.6875Z" fill="white"/>
<path d="M2.8125 21.9372H3.9375V23.0622H2.8125V21.9372ZM24.1875 11.8122C24.1003 11.8121 24.0142 11.7919 23.9361 11.7531L21.9375 10.7536L19.9389 11.7559C19.8427 11.8041 19.7346 11.8235 19.6276 11.8121C19.5206 11.8007 19.4191 11.7588 19.3352 11.6914C19.2513 11.624 19.1885 11.5339 19.1542 11.4319C19.12 11.3299 19.1157 11.2202 19.1419 11.1158L19.6436 9.10769L18.657 7.62719C18.5997 7.54245 18.5666 7.44369 18.5613 7.34154C18.556 7.2394 18.5786 7.13773 18.6267 7.04748C18.6748 6.95723 18.7467 6.88181 18.8345 6.82934C18.9223 6.77687 19.0227 6.74933 19.125 6.74969H20.5116L21.4678 5.3125C21.5222 5.23974 21.5929 5.18068 21.6741 5.13999C21.7554 5.09931 21.845 5.07813 21.9358 5.07812C22.0267 5.07813 22.1163 5.09931 22.1975 5.13999C22.2788 5.18068 22.3494 5.23974 22.4038 5.3125L23.3634 6.74969H24.75C24.8518 6.74967 24.9518 6.7773 25.0391 6.82963C25.1265 6.88196 25.198 6.95703 25.2461 7.04682C25.2941 7.13661 25.3169 7.23776 25.3119 7.33948C25.307 7.4412 25.2745 7.53966 25.218 7.62438L24.2314 9.10488L24.7331 11.113C24.7539 11.1959 24.7555 11.2825 24.7378 11.3662C24.7201 11.4498 24.6835 11.5283 24.6309 11.5957C24.5783 11.6632 24.5111 11.7177 24.4342 11.7552C24.3574 11.7927 24.273 11.8122 24.1875 11.8122ZM21.9375 9.56219C22.0248 9.56211 22.1108 9.58233 22.1889 9.62125L23.3438 10.1995L23.0783 9.13638C23.059 9.06011 23.056 8.98066 23.0693 8.90314C23.0827 8.82563 23.1122 8.75179 23.1559 8.68638L23.6987 7.87469H23.0625C22.9699 7.8747 22.8788 7.85186 22.7971 7.8082C22.7155 7.76453 22.6459 7.70139 22.5945 7.62438L21.9375 6.63719L21.2805 7.62269C21.2293 7.70002 21.1598 7.76349 21.0781 7.80745C20.9965 7.85142 20.9052 7.87452 20.8125 7.87469H20.1763L20.718 8.6875C20.7617 8.75291 20.7912 8.82676 20.8045 8.90427C20.8179 8.98178 20.8149 9.06124 20.7956 9.1375L20.5301 10.2006L21.6861 9.62238C21.7641 9.58306 21.8502 9.56246 21.9375 9.56219ZM32.0625 11.8122C31.9753 11.8121 31.8892 11.7919 31.8111 11.7531L29.8125 10.7536L27.8139 11.7559C27.7177 11.8041 27.6096 11.8235 27.5026 11.8121C27.3956 11.8007 27.2941 11.7588 27.2102 11.6914C27.1263 11.624 27.0635 11.5339 27.0292 11.4319C26.995 11.3299 26.9907 11.2202 27.0169 11.1158L27.5186 9.10769L26.532 7.62719C26.4747 7.54245 26.4416 7.44369 26.4363 7.34154C26.431 7.2394 26.4536 7.13773 26.5017 7.04748C26.5498 6.95723 26.6217 6.88181 26.7095 6.82934C26.7973 6.77687 26.8977 6.74933 27 6.74969H28.3866L29.3428 5.3125C29.3972 5.23974 29.4679 5.18068 29.5491 5.13999C29.6304 5.09931 29.72 5.07813 29.8108 5.07812C29.9017 5.07813 29.9913 5.09931 30.0725 5.13999C30.1538 5.18068 30.2244 5.23974 30.2788 5.3125L31.2384 6.74969H32.625C32.7268 6.74967 32.8268 6.7773 32.9141 6.82963C33.0015 6.88196 33.073 6.95703 33.1211 7.04682C33.1691 7.13661 33.1919 7.23776 33.1869 7.33948C33.182 7.4412 33.1495 7.53966 33.093 7.62438L32.1064 9.10488L32.6081 11.113C32.6289 11.1959 32.6305 11.2825 32.6128 11.3662C32.5951 11.4498 32.5585 11.5283 32.5059 11.5957C32.4533 11.6632 32.3861 11.7177 32.3092 11.7552C32.2324 11.7927 32.148 11.8122 32.0625 11.8122ZM29.8125 9.56219C29.8998 9.56211 29.9858 9.58233 30.0639 9.62125L31.2188 10.1995L30.9533 9.13638C30.934 9.06011 30.931 8.98066 30.9443 8.90314C30.9577 8.82563 30.9872 8.75179 31.0309 8.68638L31.5737 7.87469H30.9375C30.8449 7.8747 30.7538 7.85186 30.6721 7.8082C30.5905 7.76453 30.5209 7.70139 30.4695 7.62438L29.8125 6.63719L29.1555 7.62269C29.1043 7.70002 29.0348 7.76349 28.9531 7.80745C28.8715 7.85142 28.7802 7.87452 28.6875 7.87469H28.0513L28.593 8.6875C28.6367 8.75291 28.6662 8.82676 28.6795 8.90427C28.6929 8.98178 28.6899 9.06124 28.6706 9.1375L28.4051 10.2006L29.5611 9.62238C29.6391 9.58306 29.7252 9.56246 29.8125 9.56219ZM16.3125 11.8122C16.2253 11.8121 16.1392 11.7919 16.0611 11.7531L14.0625 10.7536L12.0639 11.7559C11.9677 11.8041 11.8596 11.8235 11.7526 11.8121C11.6456 11.8007 11.5441 11.7588 11.4602 11.6914C11.3763 11.624 11.3135 11.5339 11.2792 11.4319C11.245 11.3299 11.2407 11.2202 11.2669 11.1158L11.7686 9.10769L10.782 7.62719C10.7247 7.54245 10.6916 7.44369 10.6863 7.34154C10.681 7.2394 10.7036 7.13773 10.7517 7.04748C10.7998 6.95723 10.8717 6.88181 10.9595 6.82934C11.0473 6.77687 11.1477 6.74933 11.25 6.74969H12.6366L13.5928 5.3125C13.6472 5.23974 13.7179 5.18068 13.7991 5.13999C13.8803 5.09931 13.97 5.07812 14.0608 5.07812C14.1517 5.07812 14.2413 5.09931 14.3225 5.13999C14.4038 5.18068 14.4744 5.23974 14.5288 5.3125L15.4884 6.74969H16.875C16.9768 6.74967 17.0768 6.7773 17.1641 6.82963C17.2515 6.88196 17.323 6.95703 17.3711 7.04682C17.4191 7.13661 17.4419 7.23776 17.4369 7.33948C17.432 7.4412 17.3995 7.53966 17.343 7.62438L16.3564 9.10488L16.8581 11.113C16.8789 11.1959 16.8805 11.2825 16.8628 11.3662C16.8451 11.4498 16.8085 11.5283 16.7559 11.5957C16.7033 11.6632 16.6361 11.7177 16.5592 11.7552C16.4824 11.7927 16.398 11.8122 16.3125 11.8122ZM14.0625 9.56219C14.1498 9.56211 14.2358 9.58233 14.3139 9.62125L15.4688 10.1995L15.2033 9.13638C15.184 9.06011 15.181 8.98066 15.1943 8.90314C15.2077 8.82563 15.2372 8.75179 15.2809 8.68638L15.8237 7.87469H15.1875C15.0949 7.8747 15.0038 7.85186 14.9221 7.8082C14.8405 7.76453 14.7709 7.70139 14.7195 7.62438L14.0625 6.63719L13.4055 7.62269C13.3543 7.70002 13.2848 7.76349 13.2031 7.80745C13.1215 7.85142 13.0302 7.87452 12.9375 7.87469H12.3013L12.843 8.6875C12.8867 8.75291 12.9162 8.82676 12.9295 8.90427C12.9429 8.98178 12.9399 9.06124 12.9206 9.1375L12.6551 10.2006L13.8111 9.62238C13.8891 9.58306 13.9752 9.56246 14.0625 9.56219ZM26.4375 21.9372H30.9375V23.0622H26.4375V21.9372ZM26.0398 20.4145L28.5711 17.8833L29.3664 18.6786L26.8352 21.2099L26.0398 20.4145ZM26.0398 24.8661L26.8352 24.0708L29.3664 26.602L28.5711 27.3974L26.0398 24.8661Z" fill="white"/>
</g>
<defs>
<clipPath id="clip0_229_511">
<rect width="36" height="36" fill="white"/>
</clipPath>
</defs>
</svg>
