<svg width="40" height="40" viewBox="0 0 40 40" fill="none" xmlns="http://www.w3.org/2000/svg">
<path d="M0.312483 24.8414L4.71701 27.3843C4.78811 27.4253 4.86658 27.452 4.94796 27.4626C5.02935 27.4733 5.11204 27.4679 5.19132 27.4466C5.2706 27.4254 5.34491 27.3887 5.41002 27.3387C5.47512 27.2887 5.52974 27.2264 5.57076 27.1553L5.72944 26.8805L8.28022 28.3739C8.21991 28.5908 8.18935 28.8148 8.18936 29.0399C8.18813 29.3632 8.25102 29.6834 8.37439 29.9822C8.49777 30.281 8.67917 30.5523 8.90811 30.7805C9.13652 31.0092 9.40787 31.1905 9.70656 31.314C10.0053 31.4376 10.3254 31.5009 10.6487 31.5003C10.6961 31.5003 10.7436 31.4984 10.791 31.4958C10.7883 31.5427 10.7866 31.5895 10.7866 31.6372C10.7859 31.9603 10.8491 32.2805 10.9724 32.5792C11.0957 32.8778 11.2769 33.1492 11.5054 33.3777C11.7339 33.6062 12.0053 33.7874 12.304 33.9107C12.6027 34.0341 12.9228 34.0972 13.2459 34.0965C13.2936 34.0965 13.341 34.0948 13.3883 34.0921C13.3854 34.1395 13.384 34.187 13.3838 34.2345C13.3831 34.5576 13.4462 34.8777 13.5696 35.1764C13.6929 35.4751 13.874 35.7465 14.1025 35.9751C14.331 36.2036 14.6024 36.3847 14.9011 36.508C15.1998 36.6314 15.5199 36.6945 15.8431 36.6938C16.0162 36.6938 16.1888 36.6757 16.3581 36.6399C16.4366 37.1221 16.6844 37.5605 17.0569 37.8765C17.4295 38.1925 17.9024 38.3655 18.3909 38.3643C18.638 38.3646 18.8831 38.3206 19.1146 38.2345L19.2387 38.3584C19.5066 38.6267 19.8433 38.8159 20.2117 38.9052C20.5802 38.9944 20.9661 38.9803 21.3271 38.8643C21.688 38.7483 22.0099 38.5349 22.2574 38.2478C22.5049 37.9606 22.6683 37.6107 22.7297 37.2366C22.899 37.2727 23.0715 37.291 23.2445 37.2913C23.5797 37.2917 23.9114 37.2235 24.2193 37.091C24.5272 36.9584 24.8046 36.7642 25.0347 36.5205C25.2647 36.2767 25.4425 35.9884 25.5569 35.6734C25.6714 35.3583 25.7202 35.0232 25.7004 34.6886C25.7472 34.6913 25.7941 34.6929 25.8418 34.6929C26.177 34.6936 26.5087 34.6256 26.8166 34.4932C27.1245 34.3608 27.4021 34.1668 27.6322 33.923C27.8622 33.6793 28.04 33.3911 28.1545 33.076C28.2689 32.761 28.3177 32.4259 28.2977 32.0913C28.3446 32.094 28.3915 32.0956 28.4391 32.0956C28.8898 32.0952 29.3317 31.971 29.7167 31.7367C30.1017 31.5023 30.4149 31.1668 30.6223 30.7666C30.8297 30.3665 30.9232 29.9171 30.8928 29.4674C30.8623 29.0177 30.7089 28.5851 30.4494 28.2166L33.8973 26.2341L34.4292 27.1553C34.5121 27.2989 34.6486 27.4036 34.8087 27.4465C34.9688 27.4894 35.1394 27.4669 35.283 27.3841L39.6875 24.8414C39.831 24.7585 39.9358 24.622 39.9787 24.4619C40.0216 24.3018 39.9991 24.1312 39.9162 23.9877L34.1396 13.9823C34.0567 13.8387 33.9202 13.734 33.7601 13.6911C33.6 13.6482 33.4295 13.6707 33.2859 13.7535L28.8814 16.2965C28.7378 16.3794 28.6331 16.5159 28.5902 16.676C28.5473 16.8361 28.5698 17.0067 28.6526 17.1502L29.1635 18.0351L28.4333 18.3116C28.0983 18.4456 27.726 18.4531 27.3858 18.3327L22.5175 16.71C22.2473 16.6176 21.9615 16.5799 21.6766 16.5994C21.3917 16.6188 21.1136 16.6949 20.8585 16.8231L19.8897 17.3006C19.8806 17.2952 19.8718 17.2893 19.8622 17.2842L18.7082 16.6748C18.3973 16.5082 18.0504 16.42 17.6976 16.4179C17.3449 16.4157 16.9969 16.4997 16.684 16.6625L15.1435 17.4516C15.0267 17.5169 14.8954 17.552 14.7616 17.5538L11.0897 17.5959L11.3471 17.15C11.43 17.0065 11.4524 16.8359 11.4095 16.6758C11.3666 16.5156 11.2619 16.3791 11.1183 16.2963L6.71405 13.7535C6.5705 13.6707 6.39993 13.6482 6.23984 13.6911C6.07975 13.734 5.94326 13.8387 5.86037 13.9823L0.0837328 23.9877C0.00085636 24.1312 -0.0216028 24.3018 0.0212959 24.4619C0.0641945 24.622 0.168937 24.7585 0.312483 24.8414ZM9.79194 29.8969C9.56599 29.669 9.43921 29.3611 9.43921 29.0402C9.43921 28.7192 9.56599 28.4113 9.79194 28.1834L11.9897 25.9856C12.2172 25.7597 12.525 25.6331 12.8456 25.6337C13.1663 25.6343 13.4736 25.7619 13.7003 25.9886C13.927 26.2153 14.0546 26.5227 14.0551 26.8433C14.0556 27.1639 13.929 27.4717 13.703 27.6991L11.5054 29.8969C11.278 30.1237 10.9699 30.2511 10.6487 30.2511C10.3274 30.2511 10.0194 30.1237 9.79194 29.8969ZM12.3893 32.4941C12.1634 32.2664 12.0367 31.9586 12.0366 31.6378C12.0365 31.317 12.163 31.0092 12.3887 30.7813L12.3893 30.7807L14.5871 28.583C14.8149 28.3586 15.1221 28.2334 15.4419 28.2346C15.7616 28.2358 16.0679 28.3633 16.294 28.5894C16.5201 28.8155 16.6477 29.1218 16.6489 29.4415C16.6501 29.7613 16.5248 30.0685 16.3005 30.2963L14.1026 32.4941C13.8752 32.721 13.5672 32.8484 13.246 32.8484C12.9248 32.8484 12.6167 32.721 12.3893 32.4941ZM14.9865 35.0914C14.7597 34.864 14.6322 34.5559 14.6322 34.2347C14.6322 33.9135 14.7597 33.6054 14.9865 33.378L17.1843 31.1802C17.4115 30.953 17.7197 30.8254 18.041 30.8254C18.3623 30.8254 18.6705 30.953 18.8977 31.1802C19.1249 31.4075 19.2526 31.7156 19.2526 32.037C19.2526 32.3583 19.1249 32.6665 18.8977 32.8937C18.8768 32.9149 18.8574 32.9377 18.8397 32.9617C18.7741 33.0129 18.7116 33.068 18.6526 33.1267L16.933 34.8463C16.8741 34.9054 16.8189 34.968 16.7676 35.0338C16.7437 35.0514 16.7211 35.0707 16.6999 35.0916C16.4725 35.3184 16.1644 35.4458 15.8432 35.4458C15.522 35.4457 15.2139 35.3183 14.9865 35.0914ZM17.817 36.8785C17.6648 36.7262 17.5793 36.5196 17.5793 36.3043C17.5793 36.089 17.6648 35.8824 17.817 35.7301L19.5365 34.0105C19.6888 33.8583 19.8954 33.7727 20.1108 33.7727C20.3261 33.7727 20.5327 33.8583 20.685 34.0106C20.8373 34.1628 20.9228 34.3694 20.9228 34.5848C20.9228 34.8001 20.8373 35.0067 20.685 35.159L18.9655 36.8785C18.8126 37.0298 18.6063 37.1147 18.3912 37.1147C18.1762 37.1147 17.9698 37.0298 17.817 36.8785ZM21.2708 37.4748C21.1197 37.6256 20.9153 37.7108 20.7019 37.712C20.4885 37.7133 20.2831 37.6305 20.1302 37.4816L21.2778 36.334C21.4268 36.4869 21.5095 36.6924 21.5082 36.9058C21.5069 37.1193 21.4217 37.3237 21.2708 37.4748ZM24.1015 35.6878C23.8742 35.9147 23.5661 36.0421 23.2449 36.0421C22.9237 36.0421 22.6156 35.9147 22.3883 35.6878C22.367 35.6668 22.3442 35.6474 22.3201 35.6298C22.269 35.5642 22.2139 35.5017 22.1551 35.4427L22.0355 35.3231C22.1454 35.0376 22.1903 34.7312 22.167 34.4262C22.1436 34.1211 22.0525 33.8251 21.9004 33.5597C21.7483 33.2943 21.5389 33.0661 21.2875 32.8917C21.0362 32.7174 20.7491 32.6012 20.4472 32.5517C20.5155 32.2303 20.5193 31.8986 20.4583 31.5757C20.6884 31.4478 20.9539 31.3982 21.2146 31.4345C21.4753 31.4707 21.7172 31.5908 21.9037 31.7766L24.1015 33.9745C24.3284 34.2018 24.4559 34.5099 24.4559 34.8311C24.4559 35.1523 24.3284 35.4604 24.1015 35.6878ZM26.6989 33.0906C26.471 33.3164 26.1631 33.4431 25.8422 33.4431C25.5214 33.4431 25.2135 33.3164 24.9856 33.0906L22.7877 30.8927C22.5672 30.6643 22.4452 30.3584 22.4479 30.0409C22.4506 29.7234 22.5779 29.4197 22.8023 29.195C23.0267 28.9704 23.3303 28.8428 23.6478 28.8398C23.9653 28.8368 24.2713 28.9585 24.5 29.1788V29.1792L26.6978 31.377C26.9248 31.6043 27.0524 31.9123 27.0526 32.2336C27.0527 32.5549 26.9254 32.8631 26.6985 33.0906H26.6989ZM29.2961 30.4933C29.0687 30.7201 28.7607 30.8476 28.4395 30.8476C28.1183 30.8476 27.8102 30.7201 27.5829 30.4933L25.385 28.2955C25.1606 28.0677 25.0354 27.7604 25.0366 27.4407C25.0378 27.1209 25.1653 26.8146 25.3914 26.5886C25.6175 26.3625 25.9238 26.2349 26.2436 26.2337C26.5633 26.2325 26.8706 26.3577 27.0983 26.5821L29.2958 28.7803C29.5217 29.0082 29.6485 29.3161 29.6485 29.637C29.6485 29.9579 29.5217 30.2658 29.2958 30.4937L29.2961 30.4933ZM33.3701 15.1486L38.5216 24.0713L35.1996 25.9893L30.0476 17.0665L33.3701 15.1486ZM21.4112 17.9444C21.5198 17.8875 21.6391 17.8538 21.7615 17.8455C21.8839 17.8371 22.0067 17.8543 22.1221 17.8959L26.9905 19.5188C27.6039 19.7291 28.2718 19.7156 28.8762 19.4807L29.7969 19.1319L33.2726 25.1518L29.5664 27.2827L27.9819 25.6982C27.8141 25.5304 27.6228 25.3878 27.414 25.2749L22.4316 21.5397C22.115 21.3027 21.737 21.1617 21.3425 21.1334L20.6104 21.0688C20.2004 21.0294 19.7878 21.108 19.421 21.2953C19.0542 21.4826 18.7485 21.7708 18.5401 22.1259L17.5695 23.722C17.5552 23.7489 17.5326 23.7706 17.5051 23.7839C17.4776 23.7971 17.4466 23.8013 17.4166 23.7957L15.9401 23.6098C15.9178 23.6069 15.8963 23.5993 15.8772 23.5875C15.8581 23.5756 15.8418 23.5598 15.8294 23.541C15.817 23.5223 15.8088 23.5011 15.8053 23.4789C15.8018 23.4567 15.8032 23.434 15.8093 23.4123L16.5827 20.6702C16.6156 20.5424 16.6764 20.4236 16.7607 20.3222C16.8451 20.2207 16.9509 20.1393 17.0705 20.0838L21.4112 17.9444ZM14.776 18.8038C15.1032 18.8001 15.4247 18.718 15.7135 18.5641L17.254 17.7751C17.388 17.703 17.538 17.6656 17.6901 17.6666C17.8423 17.6675 17.9918 17.7066 18.125 17.7803L18.5071 17.982L16.5176 18.9627C16.2405 19.0953 15.9954 19.2863 15.799 19.5224C15.6025 19.7585 15.4594 20.0343 15.3794 20.3309L14.6059 23.073C14.551 23.2678 14.5387 23.4722 14.57 23.6722C14.6013 23.8721 14.6753 24.063 14.7871 24.2317C14.8989 24.4004 15.0459 24.543 15.2178 24.6497C15.3898 24.7564 15.5828 24.8248 15.7836 24.8501L17.2601 25.0359C17.5295 25.0721 17.8035 25.0285 18.0483 24.9104C18.2931 24.7924 18.4978 24.6051 18.6372 24.3719L19.6079 22.7759C19.696 22.6209 19.8273 22.4948 19.9856 22.4129C20.144 22.331 20.3228 22.2968 20.5002 22.3144L21.2323 22.379C21.3947 22.3868 21.5512 22.443 21.6815 22.5402L25.2257 25.1972C24.7945 25.392 24.4288 25.7073 24.1726 26.1051C23.9164 26.5029 23.7807 26.9662 23.7817 27.4394C23.7817 27.4867 23.7834 27.5338 23.786 27.5808C23.4514 27.5608 23.1163 27.6096 22.8013 27.724C22.4863 27.8385 22.198 28.0162 21.9543 28.2463C21.7106 28.4764 21.5166 28.7539 21.3841 29.0618C21.2517 29.3697 21.1838 29.7015 21.1844 30.0366C21.1844 30.0841 21.1862 30.1311 21.1887 30.178C20.7488 30.1525 20.3101 30.2451 19.9181 30.4464C19.8746 30.3947 19.829 30.3448 19.7813 30.297C19.5359 30.0514 19.2412 29.8607 18.9166 29.7374C18.5921 29.6141 18.2451 29.561 17.8985 29.5816C17.9012 29.5348 17.9028 29.4879 17.9028 29.4402C17.9036 29.1051 17.8357 28.7734 17.7034 28.4654C17.5712 28.1575 17.3772 27.8799 17.1336 27.6498C16.89 27.4196 16.6019 27.2418 16.2869 27.1272C15.972 27.0126 15.637 26.9637 15.3024 26.9834C15.3222 26.6489 15.2734 26.3139 15.1588 25.999C15.0443 25.6841 14.8665 25.396 14.6365 25.1524C14.4064 24.9087 14.129 24.7148 13.8211 24.5824C13.5133 24.4501 13.1816 24.3821 12.8465 24.3827C12.5233 24.3815 12.203 24.4444 11.9042 24.5678C11.6055 24.6911 11.3341 24.8725 11.1059 25.1015L8.91209 27.2959L6.35444 25.7982L10.3633 18.8545L14.776 18.8038ZM6.63029 15.1486L9.95233 17.0665L4.80069 25.9893L1.47873 24.0713L6.63029 15.1486ZM20 15.6857C21.4486 15.6857 22.8647 15.2562 24.0692 14.4514C25.2737 13.6466 26.2124 12.5027 26.7668 11.1644C27.3212 9.82601 27.4662 8.35334 27.1836 6.93256C26.901 5.51178 26.2035 4.20671 25.1791 3.18238C24.1548 2.15805 22.8498 1.46047 21.429 1.17785C20.0082 0.895237 18.5355 1.04028 17.1972 1.59463C15.8588 2.14899 14.7149 3.08776 13.9101 4.29224C13.1053 5.49672 12.6758 6.9128 12.6758 8.36141C12.678 10.3032 13.4503 12.1649 14.8234 13.538C16.1965 14.9111 18.0582 15.6835 20 15.6857ZM20 2.28727C21.2014 2.28725 22.3758 2.64349 23.3747 3.31094C24.3736 3.97839 25.1522 4.92706 25.612 6.037C26.0717 7.14693 26.192 8.36828 25.9576 9.54658C25.7233 10.7249 25.1447 11.8072 24.2952 12.6567C23.4457 13.5063 22.3634 14.0848 21.1851 14.3192C20.0068 14.5535 18.7854 14.4332 17.6755 13.9735C16.5656 13.5137 15.6169 12.7351 14.9494 11.7362C14.282 10.7373 13.9257 9.56288 13.9258 8.36149C13.9276 6.75106 14.5681 5.2071 15.7069 4.06835C16.8456 2.92959 18.3896 2.28911 20 2.28727ZM17.2197 8.39086C17.1222 8.25677 17.082 8.08946 17.1079 7.92573C17.1338 7.762 17.2237 7.61527 17.3578 7.51782C17.4919 7.42036 17.6592 7.38016 17.8229 7.40606C17.9867 7.43197 18.1334 7.52185 18.2308 7.65594L19.1875 8.9725L22.3721 6.36375C22.5005 6.25997 22.6647 6.21118 22.8289 6.22804C22.9931 6.24489 23.1439 6.32602 23.2485 6.45371C23.3531 6.5814 23.403 6.74529 23.3872 6.90959C23.3714 7.0739 23.2912 7.22529 23.1642 7.33071L19.4672 10.3591C19.4014 10.4131 19.3252 10.453 19.2434 10.4765C19.1616 10.4999 19.0758 10.5064 18.9914 10.4956C18.907 10.4847 18.8257 10.4567 18.7525 10.4133C18.6792 10.3699 18.6157 10.312 18.5656 10.2431L17.2197 8.39086Z" fill="white"/>
</svg>
