<svg width="9" height="5" viewBox="0 0 9 5" fill="none" xmlns="http://www.w3.org/2000/svg">
<path d="M4.50002 4.56252C4.45487 4.56257 4.41016 4.55369 4.36846 4.53641C4.32675 4.51912 4.28887 4.49377 4.25699 4.4618L0.81949 1.0243C0.68517 0.889982 0.68517 0.672475 0.81949 0.53824C0.953811 0.404006 1.17132 0.40392 1.30555 0.53824L4.50002 3.73271L7.69449 0.53824C7.82881 0.40392 8.04632 0.40392 8.18055 0.53824C8.31479 0.672561 8.31487 0.890068 8.18055 1.0243L4.74305 4.4618C4.71117 4.49377 4.67329 4.51912 4.63159 4.53641C4.58988 4.55369 4.54517 4.56257 4.50002 4.56252Z" fill="black"/>
</svg>
