<svg width="20" height="20" viewBox="0 0 20 20" fill="none" xmlns="http://www.w3.org/2000/svg">
<path d="M15.3125 4.0625H12.5V2.5C12.5 2.25136 12.4012 2.0129 12.2254 1.83709C12.0496 1.66127 11.8111 1.5625 11.5625 1.5625H4.6875C4.43886 1.5625 4.2004 1.66127 4.02459 1.83709C3.84877 2.0129 3.75 2.25136 3.75 2.5V15C3.75 15.2486 3.84877 15.4871 4.02459 15.6629C4.2004 15.8387 4.43886 15.9375 4.6875 15.9375H7.5V18.125C7.5 18.2079 7.53292 18.2874 7.59153 18.346C7.65013 18.4046 7.72962 18.4375 7.8125 18.4375H15.3125C15.5611 18.4375 15.7996 18.3387 15.9754 18.1629C16.1512 17.9871 16.25 17.7486 16.25 17.5V5C16.25 4.75136 16.1512 4.5129 15.9754 4.33709C15.7996 4.16127 15.5611 4.0625 15.3125 4.0625ZM12.2719 15.9375H14.375V16.5625H11.1781L12.2719 15.9375ZM4.375 15V2.5C4.375 2.41712 4.40792 2.33763 4.46653 2.27903C4.52513 2.22042 4.60462 2.1875 4.6875 2.1875H11.5625C11.6454 2.1875 11.7249 2.22042 11.7835 2.27903C11.8421 2.33763 11.875 2.41712 11.875 2.5V15.3125H4.6875C4.60462 15.3125 4.52513 15.2796 4.46653 15.221C4.40792 15.1624 4.375 15.0829 4.375 15ZM11.0094 15.9375L8.125 17.5875V15.9375H11.0094ZM15.625 17.5C15.625 17.5829 15.5921 17.6624 15.5335 17.721C15.4749 17.7796 15.3954 17.8125 15.3125 17.8125H8.99063L10.0844 17.1875H14.6875C14.7704 17.1875 14.8499 17.1546 14.9085 17.096C14.9671 17.0374 15 16.9579 15 16.875V15.625C15 15.5421 14.9671 15.4626 14.9085 15.404C14.8499 15.3454 14.7704 15.3125 14.6875 15.3125H12.5V14.6875H14.6875C14.7704 14.6875 14.8499 14.6546 14.9085 14.596C14.9671 14.5374 15 14.4579 15 14.375C15 14.2921 14.9671 14.2126 14.9085 14.154C14.8499 14.0954 14.7704 14.0625 14.6875 14.0625H12.5V9.6875H14.6875C14.7704 9.6875 14.8499 9.65458 14.9085 9.59597C14.9671 9.53737 15 9.45788 15 9.375C15 9.29212 14.9671 9.21263 14.9085 9.15403C14.8499 9.09542 14.7704 9.0625 14.6875 9.0625H12.5V4.6875H15.3125C15.3954 4.6875 15.4749 4.72042 15.5335 4.77903C15.5921 4.83763 15.625 4.91712 15.625 5V17.5Z" fill="#3A3A3A"/>
<path d="M14.6875 5.9375H13.4375C13.3546 5.9375 13.2751 5.97042 13.2165 6.02903C13.1579 6.08763 13.125 6.16712 13.125 6.25C13.125 6.33288 13.1579 6.41237 13.2165 6.47097C13.2751 6.52958 13.3546 6.5625 13.4375 6.5625H14.6875C14.7704 6.5625 14.8499 6.52958 14.9085 6.47097C14.9671 6.41237 15 6.33288 15 6.25C15 6.16712 14.9671 6.08763 14.9085 6.02903C14.8499 5.97042 14.7704 5.9375 14.6875 5.9375ZM14.6875 7.1875H13.4375C13.3546 7.1875 13.2751 7.22042 13.2165 7.27903C13.1579 7.33763 13.125 7.41712 13.125 7.5C13.125 7.58288 13.1579 7.66237 13.2165 7.72097C13.2751 7.77958 13.3546 7.8125 13.4375 7.8125H14.6875C14.7704 7.8125 14.8499 7.77958 14.9085 7.72097C14.9671 7.66237 15 7.58288 15 7.5C15 7.41712 14.9671 7.33763 14.9085 7.27903C14.8499 7.22042 14.7704 7.1875 14.6875 7.1875ZM14.6875 10.9375H13.4375C13.3546 10.9375 13.2751 10.9704 13.2165 11.029C13.1579 11.0876 13.125 11.1671 13.125 11.25C13.125 11.3329 13.1579 11.4124 13.2165 11.471C13.2751 11.5296 13.3546 11.5625 13.4375 11.5625H14.6875C14.7704 11.5625 14.8499 11.5296 14.9085 11.471C14.9671 11.4124 15 11.3329 15 11.25C15 11.1671 14.9671 11.0876 14.9085 11.029C14.8499 10.9704 14.7704 10.9375 14.6875 10.9375ZM14.6875 12.1875H13.4375C13.3546 12.1875 13.2751 12.2204 13.2165 12.279C13.1579 12.3376 13.125 12.4171 13.125 12.5C13.125 12.5829 13.1579 12.6624 13.2165 12.721C13.2751 12.7796 13.3546 12.8125 13.4375 12.8125H14.6875C14.7704 12.8125 14.8499 12.7796 14.9085 12.721C14.9671 12.6624 15 12.5829 15 12.5C15 12.4171 14.9671 12.3376 14.9085 12.279C14.8499 12.2204 14.7704 12.1875 14.6875 12.1875ZM5.3125 5.9375H8.4375C8.52038 5.9375 8.59987 5.90458 8.65847 5.84597C8.71708 5.78737 8.75 5.70788 8.75 5.625V3.125C8.75 3.04212 8.71708 2.96263 8.65847 2.90403C8.59987 2.84542 8.52038 2.8125 8.4375 2.8125H5.3125C5.22962 2.8125 5.15013 2.84542 5.09153 2.90403C5.03292 2.96263 5 3.04212 5 3.125V5.625C5 5.70788 5.03292 5.78737 5.09153 5.84597C5.15013 5.90458 5.22962 5.9375 5.3125 5.9375ZM5.625 3.4375H8.125V5.3125H5.625V3.4375ZM9.6875 4.0625H10.9375C11.0204 4.0625 11.0999 4.02958 11.1585 3.97097C11.2171 3.91237 11.25 3.83288 11.25 3.75C11.25 3.66712 11.2171 3.58763 11.1585 3.52903C11.0999 3.47042 11.0204 3.4375 10.9375 3.4375H9.6875C9.60462 3.4375 9.52513 3.47042 9.46653 3.52903C9.40792 3.58763 9.375 3.66712 9.375 3.75C9.375 3.83288 9.40792 3.91237 9.46653 3.97097C9.52513 4.02958 9.60462 4.0625 9.6875 4.0625ZM9.6875 5.3125H10.9375C11.0204 5.3125 11.0999 5.27958 11.1585 5.22097C11.2171 5.16237 11.25 5.08288 11.25 5C11.25 4.91712 11.2171 4.83763 11.1585 4.77903C11.0999 4.72042 11.0204 4.6875 10.9375 4.6875H9.6875C9.60462 4.6875 9.52513 4.72042 9.46653 4.77903C9.40792 4.83763 9.375 4.91712 9.375 5C9.375 5.08288 9.40792 5.16237 9.46653 5.22097C9.52513 5.27958 9.60462 5.3125 9.6875 5.3125ZM5.3125 7.1875H10.9375C11.0204 7.1875 11.0999 7.15458 11.1585 7.09597C11.2171 7.03737 11.25 6.95788 11.25 6.875C11.25 6.79212 11.2171 6.71263 11.1585 6.65403C11.0999 6.59542 11.0204 6.5625 10.9375 6.5625H5.3125C5.22962 6.5625 5.15013 6.59542 5.09153 6.65403C5.03292 6.71263 5 6.79212 5 6.875C5 6.95788 5.03292 7.03737 5.09153 7.09597C5.15013 7.15458 5.22962 7.1875 5.3125 7.1875ZM5.3125 10.9375H8.4375C8.52038 10.9375 8.59987 10.9046 8.65847 10.846C8.71708 10.7874 8.75 10.7079 8.75 10.625V8.125C8.75 8.04212 8.71708 7.96263 8.65847 7.90403C8.59987 7.84542 8.52038 7.8125 8.4375 7.8125H5.3125C5.22962 7.8125 5.15013 7.84542 5.09153 7.90403C5.03292 7.96263 5 8.04212 5 8.125V10.625C5 10.7079 5.03292 10.7874 5.09153 10.846C5.15013 10.9046 5.22962 10.9375 5.3125 10.9375ZM5.625 8.4375H8.125V10.3125H5.625V8.4375ZM11.25 14.375V13.125C11.25 13.0421 11.2171 12.9626 11.1585 12.904C11.0999 12.8454 11.0204 12.8125 10.9375 12.8125H5.3125C5.22962 12.8125 5.15013 12.8454 5.09153 12.904C5.03292 12.9626 5 13.0421 5 13.125V14.375C5 14.4579 5.03292 14.5374 5.09153 14.596C5.15013 14.6546 5.22962 14.6875 5.3125 14.6875H10.9375C11.0204 14.6875 11.0999 14.6546 11.1585 14.596C11.2171 14.5374 11.25 14.4579 11.25 14.375ZM10.625 14.0625H5.625V13.4375H10.625V14.0625ZM10.9375 8.4375H9.6875C9.60462 8.4375 9.52513 8.47042 9.46653 8.52903C9.40792 8.58763 9.375 8.66712 9.375 8.75C9.375 8.83288 9.40792 8.91237 9.46653 8.97097C9.52513 9.02958 9.60462 9.0625 9.6875 9.0625H10.9375C11.0204 9.0625 11.0999 9.02958 11.1585 8.97097C11.2171 8.91237 11.25 8.83288 11.25 8.75C11.25 8.66712 11.2171 8.58763 11.1585 8.52903C11.0999 8.47042 11.0204 8.4375 10.9375 8.4375ZM10.9375 9.6875H9.6875C9.60462 9.6875 9.52513 9.72042 9.46653 9.77903C9.40792 9.83763 9.375 9.91712 9.375 10C9.375 10.0829 9.40792 10.1624 9.46653 10.221C9.52513 10.2796 9.60462 10.3125 9.6875 10.3125H10.9375C11.0204 10.3125 11.0999 10.2796 11.1585 10.221C11.2171 10.1624 11.25 10.0829 11.25 10C11.25 9.91712 11.2171 9.83763 11.1585 9.77903C11.0999 9.72042 11.0204 9.6875 10.9375 9.6875ZM5.3125 12.1875H10.9375C11.0204 12.1875 11.0999 12.1546 11.1585 12.096C11.2171 12.0374 11.25 11.9579 11.25 11.875C11.25 11.7921 11.2171 11.7126 11.1585 11.654C11.0999 11.5954 11.0204 11.5625 10.9375 11.5625H5.3125C5.22962 11.5625 5.15013 11.5954 5.09153 11.654C5.03292 11.7126 5 11.7921 5 11.875C5 11.9579 5.03292 12.0374 5.09153 12.096C5.15013 12.1546 5.22962 12.1875 5.3125 12.1875Z" fill="#3A3A3A"/>
</svg>
