<svg width="20" height="20" viewBox="0 0 20 20" fill="none" xmlns="http://www.w3.org/2000/svg">
<path fill-rule="evenodd" clip-rule="evenodd" d="M17.2105 8.07328H3.88351L16.6843 4.36508C16.7838 4.33617 16.8677 4.26901 16.9177 4.17832C16.9425 4.1334 16.9582 4.08404 16.9639 4.03306C16.9695 3.98208 16.9651 3.93048 16.9508 3.88121L16.281 1.56875C16.0133 0.645156 15.1534 0 14.1896 0C13.9865 0 13.7842 0.0288281 13.588 0.0855859L1.56937 3.56723C1.01351 3.72816 0.552809 4.09773 0.271911 4.60754C-0.00887068 5.1173 -0.0747691 5.70434 0.0862075 6.26008L0.740661 8.5193V17.8261C0.740622 19.0248 1.71586 20 2.91441 20H7.60832C7.8241 20 7.99894 19.8251 7.99894 19.6094C7.99894 19.3936 7.8241 19.2188 7.60832 19.2188H2.91457C2.1466 19.2188 1.52191 18.5941 1.52191 17.8261V12.5102H16.8199V17.8261C16.8199 18.5941 16.1952 19.2188 15.4273 19.2188H10.7333C10.5177 19.2188 10.3427 19.3936 10.3427 19.6094C10.3427 19.8251 10.5177 20 10.7333 20H15.4273C16.626 20 17.6012 19.0248 17.6012 17.8261V8.46391C17.6012 8.24813 17.4263 8.07328 17.2105 8.07328ZM10.3226 11.729L11.9823 8.85453H14.1409L12.4814 11.729H10.3226ZM7.26164 11.729L8.92136 8.85453H11.08L9.42047 11.729H7.26164ZM4.20089 11.729L5.86043 8.85453H8.01925L6.35957 11.729H4.20089ZM5.65324 6.67207L2.87398 4.0027L4.95636 3.39949C4.97135 3.42128 4.98852 3.44148 5.00761 3.45977L7.78687 6.12914L5.70449 6.73234C5.6895 6.71056 5.67233 6.69037 5.65324 6.67207ZM10.8876 1.75645L13.6668 4.42578L11.5844 5.02894C11.5695 5.00713 11.5523 4.98693 11.5332 4.96867L8.75394 2.2993L10.8363 1.69613C10.8513 1.71792 10.8685 1.73812 10.8876 1.75641L10.8876 1.75645ZM7.94754 2.6082L10.7268 5.27742L8.64441 5.88074C8.62946 5.85892 8.61227 5.83872 8.59312 5.82047L5.8139 3.15109L7.89629 2.54793C7.91105 2.56914 7.92816 2.58941 7.94754 2.6082ZM13.8054 0.836016C13.9308 0.799688 14.0601 0.78125 14.1896 0.78125C14.8077 0.78125 15.359 1.19445 15.5305 1.78621L16.0918 3.72332L14.5246 4.17723C14.5095 4.15548 14.4922 4.13531 14.4731 4.11699L11.694 1.44773L13.8054 0.836016ZM0.956246 4.98445C1.13632 4.65742 1.43125 4.42062 1.78679 4.31766L2.01629 4.25109C2.03133 4.27284 2.04851 4.29303 2.06757 4.31137L4.84679 6.98074L1.39785 7.97988L0.836637 6.04277C0.733629 5.68742 0.776207 5.3116 0.956246 4.98445ZM1.52187 8.85453H4.95836L3.29879 11.729H1.52191L1.52187 8.85453ZM13.3835 11.729L15.043 8.85453H16.8199V11.729H13.3835Z" fill="#3A3A3A"/>
<path fill-rule="evenodd" clip-rule="evenodd" d="M11.8713 15.8251C11.8713 15.7565 11.8533 15.6891 11.819 15.6298C11.7847 15.5704 11.7354 15.5211 11.676 15.4868L8.24414 13.5054C8.18475 13.4712 8.11739 13.4531 8.04883 13.4531C7.98026 13.4531 7.91291 13.4712 7.85352 13.5054C7.79413 13.5397 7.74481 13.589 7.71052 13.6484C7.67624 13.7078 7.65819 13.7751 7.6582 13.8437V17.8064C7.65821 17.875 7.67627 17.9423 7.71055 18.0017C7.74484 18.061 7.79414 18.1103 7.85352 18.1446C7.91288 18.1789 7.98025 18.197 8.04883 18.197C8.11741 18.197 8.18478 18.1789 8.24414 18.1446L11.676 16.1634C11.7354 16.1291 11.7847 16.0798 11.819 16.0204C11.8533 15.961 11.8713 15.8936 11.8713 15.8251ZM8.43945 17.1299V14.5203L10.6995 15.825L8.43945 17.1299ZM9.1702 19.2191C8.95508 19.2191 8.77957 19.3946 8.77957 19.6097C8.77957 19.8249 8.95508 20.0003 9.1702 20.0003C9.38551 20.0003 9.56082 19.8249 9.56082 19.6097C9.56082 19.3946 9.38551 19.2191 9.1702 19.2191Z" fill="#3A3A3A"/>
</svg>
