<svg width="20" height="20" viewBox="0 0 20 20" fill="none" xmlns="http://www.w3.org/2000/svg">
<path d="M14.2969 15.4688C14.0812 15.4688 13.9062 15.6437 13.9062 15.8594C13.9062 16.075 14.0812 16.25 14.2969 16.25C14.5125 16.25 14.6875 16.075 14.6875 15.8594C14.6875 15.6437 14.5125 15.4688 14.2969 15.4688Z" fill="#3A3A3A"/>
<path d="M15.2587 14.2056L13.402 13.5868L12.7355 12.2538C13.336 11.6426 13.7529 10.8339 13.8935 9.99043L13.9766 9.49219H14.6875C15.3337 9.49219 15.8594 8.96648 15.8594 8.32031V5.85938C15.8594 2.62852 13.2309 0 10 0C6.76086 0 4.14062 2.62098 4.14062 5.85938V8.32031C4.14062 8.82953 4.46723 9.26375 4.92188 9.425V9.88281C4.92188 10.529 5.44758 11.0547 6.09375 11.0547H6.4368C6.60565 11.4224 6.8263 11.7641 7.09203 12.0693C7.14746 12.1328 7.20486 12.1946 7.26414 12.2545L6.59797 13.5868L4.74129 14.2056C2.5825 14.9255 1.01562 17.1981 1.01562 19.6094C1.01562 19.8251 1.19051 20 1.40625 20H18.5938C18.8095 20 18.9844 19.8251 18.9844 19.6094C18.9844 17.1981 17.4175 14.9255 15.2587 14.2056ZM15.0781 8.32031C15.0781 8.5357 14.9029 8.71094 14.6875 8.71094H14.0913C14.1906 7.9418 14.2568 7.12332 14.2834 6.31719C14.2842 6.29445 14.2848 6.27234 14.2855 6.25H15.0781V8.32031ZM5.3125 8.71094C5.09711 8.71094 4.92188 8.5357 4.92188 8.32031V6.25H5.71477C5.71605 6.29074 5.71742 6.33168 5.71895 6.37289L5.7191 6.37707V6.37742C5.74645 7.16148 5.81176 7.95871 5.90879 8.7109H5.3125V8.71094ZM6.09375 10.2734C5.87836 10.2734 5.70312 10.0982 5.70312 9.88281V9.49219H6.02336L6.10648 9.99059C6.12247 10.0855 6.14178 10.1799 6.16437 10.2734H6.09375ZM5.70379 5.46875H4.93672C5.13457 2.85074 7.31941 0.78125 10 0.78125C12.6687 0.78125 14.8631 2.85047 15.0632 5.46875H14.2963C14.2681 3.31145 12.5114 1.5625 10.3496 1.5625H9.65043C7.48875 1.5625 5.73187 3.31145 5.70379 5.46875ZM9.65039 2.34375H10.3496C12.1 2.34375 13.5166 3.77543 13.5156 5.52383C13.5156 5.64676 13.5146 5.75379 13.5126 5.85117L13.5125 5.855L13.0239 5.7852C11.6966 5.59566 10.4433 4.96902 9.49496 4.02066C9.4217 3.94742 9.32235 3.90626 9.21875 3.90625C8.16969 3.90625 7.16547 4.38422 6.50164 5.19172C6.66523 3.60113 8.00988 2.34375 9.65039 2.34375ZM6.97422 10.2734C6.77867 9.62293 6.55492 7.70887 6.50547 6.48231L7.03121 5.78129C7.51406 5.1377 8.26527 4.73781 9.06437 4.69191C10.1158 5.69254 11.4761 6.35332 12.9135 6.55855L13.4886 6.64074C13.4501 7.45656 13.3716 8.27523 13.259 9.02816L13.2589 9.02895C13.2231 9.27102 13.1949 9.4268 13.1229 9.86191C12.916 11.1027 11.9902 12.2248 10.7679 12.5304C10.2637 12.656 9.73645 12.656 9.23227 12.5304C8.4691 12.3396 7.76934 11.8116 7.31773 11.0547H8.11406C8.27531 11.5093 8.70949 11.8359 9.21875 11.8359H10C10.6475 11.8359 11.1719 11.3116 11.1719 10.6641C11.1719 10.0179 10.6462 9.49219 10 9.49219H9.21875C8.69816 9.49219 8.27039 9.82844 8.1134 10.2734H6.97422ZM9.1859 13.3209C9.45358 13.3775 9.72641 13.4061 10 13.4062C10.2137 13.4062 10.4275 13.3884 10.6388 13.3537L9.94855 14.0836L9.1859 13.3209ZM9.41152 14.6515L8.17254 15.9618C7.83119 15.3083 7.53886 14.6305 7.29797 13.9338L7.76324 13.0032L9.41152 14.6515ZM12.1705 12.8709L12.702 13.9337C12.4611 14.6307 12.1687 15.3087 11.8273 15.9623L10.5012 14.6362L12.1705 12.8709ZM8.82812 10.6641C8.82812 10.4484 9.00305 10.2734 9.21875 10.2734H10C10.2154 10.2734 10.3906 10.4487 10.3906 10.6641C10.3906 10.8798 10.2157 11.0547 10 11.0547H9.21875C9.00336 11.0547 8.82812 10.8795 8.82812 10.6641ZM1.8125 19.2188C1.9673 17.2836 3.25516 15.5247 4.98836 14.9468L6.63266 14.3988C6.93431 15.2327 7.30626 16.0395 7.74449 16.8105L7.74668 16.8145L7.74672 16.8145C8.06884 17.3805 8.42594 17.9258 8.81594 18.4473L9.29648 19.2188H1.8125ZM10 18.8705L9.47023 18.02C9.4643 18.0105 9.45797 18.0012 9.45125 17.9923C9.13477 17.5699 8.84097 17.1309 8.57109 16.6773L9.96418 15.2041L11.4321 16.672C11.1614 17.1275 10.8665 17.5682 10.5488 17.9922C10.5297 18.0177 10.5568 17.9775 10 18.8705ZM10.7035 19.2188L11.184 18.4473C11.5771 17.9219 11.9367 17.3722 12.2607 16.8016C12.2627 16.7981 12.2645 16.7946 12.2665 16.7912L12.2672 16.7899C12.7004 16.0252 13.0684 15.2253 13.3673 14.3988L15.0116 14.9468C16.7448 15.5247 18.0327 17.2836 18.1875 19.2188H10.7035Z" fill="#3A3A3A"/>
<path d="M17.0139 17.6384C16.7529 17.1158 16.3705 16.6516 15.9081 16.2959C15.7371 16.1643 15.4919 16.1963 15.3603 16.3673C15.2288 16.5383 15.2608 16.7836 15.4318 16.9151C15.801 17.1992 16.1064 17.5701 16.315 17.9875C16.4116 18.1808 16.6464 18.2587 16.839 18.1624C17.032 18.066 17.1103 17.8314 17.0139 17.6384Z" fill="#3A3A3A"/>
</svg>
