<svg width="20" height="20" viewBox="0 0 20 20" fill="none" xmlns="http://www.w3.org/2000/svg">
<path d="M3.90625 12.6281H6.25C6.68148 12.6281 7.03125 12.2784 7.03125 11.8469C7.03125 11.4154 6.68148 11.0656 6.25 11.0656H3.90625C3.47477 11.0656 3.125 11.4154 3.125 11.8469C3.125 12.2784 3.47477 12.6281 3.90625 12.6281ZM3.90625 9.50314H6.25C6.68148 9.50314 7.03125 9.15338 7.03125 8.72189C7.03125 8.29041 6.68148 7.94064 6.25 7.94064H3.90625C3.47477 7.94064 3.125 8.29041 3.125 8.72189C3.125 9.15338 3.47477 9.50314 3.90625 9.50314ZM8.49379 11.8469C8.49379 12.2784 8.84355 12.6281 9.27504 12.6281C10.9087 12.6281 12.4445 11.992 13.5997 10.8368L19.313 5.12299C20.2289 4.20709 20.2291 2.72447 19.313 1.80842C18.3992 0.89459 16.9123 0.89459 15.9984 1.80842L10.2851 7.52225C9.13 8.67744 8.49379 10.2133 8.49379 11.8469ZM17.1033 2.9133C17.4079 2.60869 17.9036 2.60869 18.2081 2.9133C18.5134 3.21854 18.5136 3.71279 18.2081 4.01814L12.4948 9.73197C11.8417 10.3851 11.0251 10.8154 10.1373 10.9846C10.3066 10.0969 10.7369 9.28025 11.3899 8.62713L17.1033 2.9133Z" fill="#3A3A3A"/>
<path d="M2.34375 18.8789C2.92016 18.8792 3.47642 18.6668 3.90594 18.2824L4.9859 17.3164H12.9688C15.1227 17.3164 16.875 15.5641 16.875 13.4102V11.6577C16.875 11.2262 16.5252 10.8764 16.0938 10.8764C15.6623 10.8764 15.3125 11.2262 15.3125 11.6577V13.4102C15.3125 14.7025 14.2611 15.7539 12.9688 15.7539H4.6875C4.49532 15.7539 4.30988 15.8247 4.16664 15.9529L2.86438 17.1177C2.72121 17.2458 2.53583 17.3165 2.34375 17.3164C1.91297 17.3164 1.5625 16.9659 1.5625 16.5352V7.16016C1.5625 5.86781 2.61391 4.81641 3.90625 4.81641H10.4589C10.8904 4.81641 11.2402 4.46664 11.2402 4.03516C11.2402 3.60367 10.8904 3.25391 10.4589 3.25391H3.90625C1.7523 3.25391 0 5.00625 0 7.16016V16.5352C0 17.8275 1.05141 18.8789 2.34375 18.8789Z" fill="#3A3A3A"/>
</svg>
