<svg width="20" height="20" viewBox="0 0 20 20" fill="none" xmlns="http://www.w3.org/2000/svg">
<g clip-path="url(#clip0_229_2503)">
<mask id="mask0_229_2503" style="mask-type:luminance" maskUnits="userSpaceOnUse" x="0" y="0" width="20" height="20">
<path d="M0 0H20V20H0V0Z" fill="white"/>
</mask>
<g mask="url(#mask0_229_2503)">
<path d="M13.8244 7.5H12.4993V3.33333C12.4993 2.875 12.1244 2.5 11.666 2.5H8.33268C7.87435 2.5 7.49935 2.875 7.49935 3.33333V7.5H6.17435C5.43268 7.5 5.05768 8.4 5.58268 8.925L9.40768 12.75C9.73268 13.075 10.2577 13.075 10.5827 12.75L14.4077 8.925C14.9327 8.4 14.566 7.5 13.8244 7.5ZM4.16602 15.8333C4.16602 16.2917 4.54102 16.6667 4.99935 16.6667H14.9994C15.4577 16.6667 15.8327 16.2917 15.8327 15.8333C15.8327 15.375 15.4577 15 14.9994 15H4.99935C4.54102 15 4.16602 15.375 4.16602 15.8333Z" fill="#3A3A3A"/>
</g>
</g>
<defs>
<clipPath id="clip0_229_2503">
<rect width="20" height="20" fill="white"/>
</clipPath>
</defs>
</svg>
