<svg width="20" height="20" viewBox="0 0 20 20" fill="none" xmlns="http://www.w3.org/2000/svg">
<path d="M7.33132 5.51139H17.7553L12.0611 9.98294C11.9468 10.0704 11.81 10.1236 11.6667 10.1365C11.5225 10.1234 11.385 10.0702 11.2695 9.98294L7.20021 6.78628C7.15715 6.7514 7.10782 6.72508 7.05487 6.70872C7.25233 6.43202 7.35577 6.09926 7.34999 5.75939C7.34828 5.67644 7.34204 5.59365 7.33132 5.51139ZM4.68043 2.63561C4.69354 2.63783 4.7151 2.64605 4.76199 2.66783C4.85465 2.71183 5.00199 2.82517 5.14621 2.98317C5.43665 3.29961 5.72687 3.77894 5.87754 4.09539C5.88221 4.10472 5.8871 4.11494 5.89154 4.12539C6.3191 4.85894 6.50354 5.42005 6.5091 5.77205C6.5151 6.12561 6.42021 6.27783 6.12043 6.45005L5.3471 6.89583C4.84332 7.18583 4.60532 7.70561 4.54621 8.1905C4.48687 8.67561 4.57421 9.14694 4.78998 9.51961L6.69887 12.8096C6.9151 13.1821 7.28421 13.4936 7.73554 13.6849C8.18732 13.8767 8.75865 13.9309 9.26243 13.6416L10.0358 13.1967C10.3353 13.0249 10.5164 13.0214 10.8207 13.2023C11.1258 13.3836 11.522 13.8216 11.9478 14.5556C11.9538 14.5665 11.9595 14.5756 11.9664 14.5861C12.166 14.8738 12.4378 15.3621 12.5689 15.7709C12.634 15.9741 12.6595 16.1576 12.6513 16.2592C12.6422 16.3612 12.64 16.3507 12.6131 16.3667L12.0247 16.7041C10.5464 17.3452 9.19154 17.2005 7.98065 16.5725C6.76754 15.9418 5.7131 14.8029 4.97798 13.4658C4.97554 13.4632 4.97443 13.4598 4.97243 13.4581L3.36221 10.6829C3.35954 10.6803 3.35843 10.6778 3.35621 10.6743C2.55954 9.37205 2.09532 7.89361 2.15354 6.53339C2.21176 5.17517 2.76287 3.93694 4.0611 2.98428L4.64976 2.64805C4.66332 2.64028 4.66776 2.63428 4.68043 2.63561ZM4.68643 1.80872C4.53065 1.80628 4.37176 1.83894 4.22887 1.92183L3.60643 2.27983C3.59243 2.28783 3.57954 2.29605 3.56687 2.30405C2.06932 3.40005 1.37976 4.92583 1.31243 6.4985C1.2451 8.0705 1.76998 9.69294 2.6371 11.1114L4.24198 13.8769L4.23821 13.8687C5.03932 15.3245 6.18732 16.5874 7.59021 17.3149C8.99376 18.0436 10.6658 18.2125 12.3689 17.4698C12.3829 17.4638 12.3971 17.4572 12.4098 17.4494L13.0331 17.0914C13.3213 16.9274 13.4662 16.6083 13.4898 16.3296C13.514 16.0518 13.4573 15.7814 13.3713 15.5149C13.2029 14.9881 12.9091 14.4763 12.6664 14.1252C12.208 13.3365 11.7653 12.7892 11.2538 12.4832C11.0066 12.3346 10.7242 12.255 10.4358 12.2528C10.1475 12.2505 9.86381 12.3257 9.61443 12.4705L8.8411 12.9163C8.61265 13.0478 8.34554 13.0325 8.06443 12.9136C7.78465 12.7947 7.52554 12.5569 7.42932 12.3903L5.52043 9.1005C5.42399 8.93294 5.3451 8.59117 5.38243 8.28983C5.41843 7.98939 5.54043 7.75405 5.7691 7.62228L6.52043 7.19028C6.53998 7.29094 6.59687 7.38228 6.67932 7.44361L10.7489 10.6409C11.0049 10.8436 11.3169 10.9629 11.6429 10.9829C11.6591 10.9838 11.6753 10.9838 11.6915 10.9829C12.0171 10.9628 12.3287 10.8435 12.5844 10.6409L18.1893 6.23783V13.5121C18.1893 13.6227 18.0631 13.7685 17.8155 13.7685H13.9353C13.88 13.7681 13.8251 13.7787 13.7739 13.7996C13.7227 13.8205 13.6761 13.8513 13.6368 13.8903C13.5975 13.9292 13.5663 13.9756 13.545 14.0267C13.5237 14.0777 13.5127 14.1325 13.5127 14.1878C13.5127 14.4196 13.702 14.6081 13.9353 14.6067H17.8155C18.4498 14.6067 19.0327 14.1483 19.0327 13.5121V5.76783C19.0327 5.13117 18.4498 4.67294 17.8155 4.67294H7.10043C6.98176 4.37628 6.8251 4.06183 6.62776 3.72005C6.4431 3.33561 6.14354 2.82739 5.76865 2.41872C5.57932 2.21161 5.3751 2.02805 5.11976 1.90939V1.9105C4.98394 1.84688 4.83637 1.81222 4.68643 1.80872Z" fill="#3A3A3A"/>
</svg>
