<svg width="48" height="48" viewBox="0 0 48 48" fill="none" xmlns="http://www.w3.org/2000/svg">
<path d="M32.5697 17.9314L26.4154 24L32.5697 30.0686C32.741 30.2289 32.8775 30.4227 32.9708 30.638C33.0642 30.8532 33.1123 31.0854 33.1123 31.32C33.1123 31.5546 33.0642 31.7867 32.9708 32.002C32.8775 32.2173 32.741 32.4111 32.5697 32.5714C32.4095 32.7303 32.2195 32.856 32.0107 32.9413C31.8018 33.0266 31.5782 33.0699 31.3525 33.0686C30.9028 33.0667 30.4718 32.8881 30.1525 32.5714L23.9983 26.4171L17.9297 32.5714C17.6104 32.8881 17.1794 33.0667 16.7297 33.0686C16.5041 33.0699 16.2804 33.0266 16.0716 32.9413C15.8627 32.856 15.6727 32.7303 15.5125 32.5714C15.1933 32.2502 15.014 31.8157 15.014 31.3629C15.014 30.91 15.1933 30.4755 15.5125 30.1543L21.5811 24L15.5125 17.9314C15.2317 17.6035 15.0849 17.1816 15.1016 16.7502C15.1183 16.3188 15.2971 15.9095 15.6024 15.6042C15.9077 15.2989 16.317 15.12 16.7485 15.1034C17.1799 15.0867 17.6017 15.2334 17.9297 15.5143L23.9983 21.5829L30.0668 15.5143C30.2255 15.35 30.4151 15.2185 30.6246 15.1274C30.8341 15.0363 31.0595 14.9874 31.2879 14.9834C31.5164 14.9794 31.7434 15.0205 31.9559 15.1042C32.1685 15.1879 32.3625 15.3127 32.5268 15.4714C32.6912 15.6301 32.8226 15.8197 32.9137 16.0292C33.0048 16.2387 33.0538 16.4641 33.0577 16.6926C33.0617 16.921 33.0207 17.148 32.9369 17.3605C32.8532 17.5731 32.7284 17.7671 32.5697 17.9314ZM40.9697 40.9714C37.6131 44.3276 33.3367 46.6132 28.6813 47.539C24.0258 48.4649 19.2003 47.9894 14.815 46.1729C10.4297 44.3563 6.6816 41.2801 4.04456 37.3334C1.40751 33.3867 0 28.7466 0 24C0 19.2534 1.40751 14.6133 4.04456 10.6666C6.6816 6.71985 10.4297 3.64371 14.815 1.82714C19.2003 0.0105613 24.0258 -0.464862 28.6813 0.460985C33.3367 1.38683 37.6131 3.67236 40.9697 7.02858C43.1985 9.25722 44.9666 11.9031 46.1729 14.815C47.3791 17.727 48 20.8481 48 24C48 27.1519 47.3791 30.273 46.1729 33.185C44.9666 36.0969 43.1985 38.7428 40.9697 40.9714ZM38.5525 9.44572C35.6727 6.5759 32.0071 4.62376 28.0186 3.83579C24.0301 3.04782 19.8976 3.45937 16.1428 5.01847C12.388 6.57757 9.17941 9.2143 6.92215 12.5957C4.66489 15.9771 3.4602 19.9515 3.4602 24.0171C3.4602 28.0827 4.66489 32.0572 6.92215 35.4386C9.17941 38.82 12.388 41.4567 16.1428 43.0158C19.8976 44.5749 24.0301 44.9865 28.0186 44.1985C32.0071 43.4105 35.6727 41.4584 38.5525 38.5886C40.4703 36.6774 41.992 34.4065 43.0303 31.906C44.0686 29.4055 44.603 26.7246 44.603 24.0171C44.603 21.3097 44.0686 18.6288 43.0303 16.1283C41.992 13.6278 40.4703 11.3569 38.5525 9.44572Z" fill="white"/>
</svg>
