<svg width="51" height="48" viewBox="0 0 51 48" fill="none" xmlns="http://www.w3.org/2000/svg">
<path d="M50.2817 0.993876C50.2954 0.956251 50.3059 0.917541 50.3134 0.878139C50.3138 0.876164 50.3144 0.874287 50.3147 0.872312C50.3218 0.833305 50.3256 0.793607 50.3263 0.75381L50.3265 0.74907C50.327 0.709742 50.3242 0.670444 50.3183 0.631555C50.318 0.629481 50.318 0.627407 50.3176 0.625432C50.3115 0.588039 50.3027 0.551162 50.291 0.515126C50.2897 0.511176 50.2887 0.507128 50.2873 0.503178C50.2794 0.479436 50.2703 0.456102 50.2601 0.433261C50.2552 0.422695 50.2497 0.412721 50.2445 0.402549C50.2418 0.397414 50.2393 0.39218 50.2366 0.387144C50.219 0.354829 50.199 0.323867 50.1768 0.294515C50.1738 0.290466 50.1709 0.286417 50.1677 0.282467C50.144 0.252302 50.1179 0.224039 50.0897 0.197935C50.088 0.196256 50.0867 0.19438 50.0849 0.192701C50.0835 0.191516 50.0819 0.190628 50.0806 0.189443C50.052 0.163748 50.0213 0.140338 49.989 0.119427C49.9853 0.116959 49.9815 0.114391 49.9776 0.112021C49.946 0.0923234 49.9128 0.075058 49.8785 0.0603739C49.8742 0.0584976 49.87 0.0565226 49.8657 0.0547451C49.8312 0.040759 49.7958 0.0293706 49.7596 0.0206755C49.7558 0.019688 49.7519 0.0186018 49.748 0.0178118C49.7115 0.00964626 49.6745 0.00429779 49.6373 0.00181392L49.6255 0.00102396C49.5836 -0.00119437 49.5415 0.000193238 49.4998 0.00517153C49.4705 0.00845885 49.4414 0.0134378 49.4127 0.0200832L30.3257 4.61007C30.1361 4.65729 29.9729 4.77751 29.8715 4.94455C29.7701 5.11158 29.7389 5.31191 29.7846 5.50188C29.8302 5.69185 29.9491 5.85608 30.1153 5.9588C30.2815 6.06152 30.4816 6.09439 30.6719 6.05027L46.0348 2.35586L45.0935 3.02501L22.112 19.3625L14.0391 10.05L27.6446 6.77817C27.8342 6.73096 27.9974 6.61074 28.0988 6.4437C28.2002 6.27666 28.2314 6.07634 28.1857 5.88636C28.1401 5.69639 28.0212 5.53216 27.855 5.42944C27.6888 5.32673 27.4887 5.29385 27.2984 5.33797L12.5087 8.89452C12.385 8.92425 12.2711 8.98531 12.1779 9.07182C12.0847 9.15833 12.0154 9.26739 11.9765 9.38848C11.9377 9.50957 11.9307 9.63862 11.9562 9.76321C11.9817 9.88779 12.0389 10.0037 12.1222 10.0998L20.0804 19.2801L19.5744 26.0887C19.5669 26.1903 19.5804 26.2924 19.6141 26.3885C19.6478 26.4847 19.701 26.5728 19.7703 26.6475C19.8396 26.7222 19.9236 26.7817 20.017 26.8225C20.1104 26.8632 20.2112 26.8842 20.3131 26.8843C20.3808 26.8843 20.449 26.875 20.5158 26.8559L25.1684 25.5315L30.7912 32.5916C30.8663 32.6859 30.9633 32.7605 31.0737 32.8088C31.1841 32.8571 31.3047 32.8777 31.4249 32.8689C31.5451 32.8601 31.6613 32.822 31.7635 32.7581C31.8657 32.6941 31.9507 32.6062 32.0112 32.502L35.385 26.6881C35.4343 26.604 35.4665 26.5109 35.4798 26.4143C35.4931 26.3177 35.4871 26.2194 35.4623 26.125C35.4375 26.0307 35.3942 25.9422 35.3351 25.8646C35.276 25.787 35.2021 25.7219 35.1177 25.6729C35.0334 25.624 34.9402 25.5922 34.8435 25.5794C34.7468 25.5665 34.6485 25.5729 34.5543 25.5982C34.4601 25.6234 34.3718 25.667 34.2945 25.7265C34.2171 25.786 34.1523 25.8601 34.1038 25.9447L31.2743 30.8206L23.0598 20.5063L47.2308 3.32314L35.6852 23.2197C35.5866 23.3896 35.5595 23.5917 35.61 23.7815C35.6604 23.9714 35.7842 24.1334 35.9541 24.232C36.0382 24.2808 36.1311 24.3126 36.2275 24.3255C36.3239 24.3384 36.4219 24.3322 36.5159 24.3073C36.61 24.2823 36.6981 24.239 36.7754 24.18C36.8527 24.1209 36.9176 24.0472 36.9664 23.9631L50.2266 1.11179L50.2272 1.1106C50.2478 1.07475 50.2654 1.03733 50.2797 0.998813L50.2817 0.993876ZM21.1303 25.1409L21.4484 20.8606L24.1685 24.276L21.1303 25.1409ZM16.5469 21.8528C16.4895 21.7742 16.4172 21.7077 16.3341 21.6571C16.2511 21.6066 16.1589 21.5728 16.0628 21.5579C15.9666 21.5429 15.8685 21.547 15.774 21.57C15.6795 21.5929 15.5905 21.6343 15.5119 21.6917C15.3417 21.8161 15.1748 21.945 15.0115 22.0784C14.8603 22.203 14.7646 22.3823 14.7454 22.5773C14.7262 22.7722 14.7849 22.9668 14.9089 23.1185C15.0328 23.2702 15.2117 23.3666 15.4066 23.3867C15.6014 23.4068 15.7963 23.3489 15.9485 23.2256C16.0912 23.109 16.2371 22.9964 16.3859 22.8878C16.4644 22.8304 16.5309 22.7581 16.5815 22.675C16.6321 22.5919 16.6658 22.4997 16.6807 22.4036C16.6957 22.3075 16.6916 22.2094 16.6686 22.1149C16.6456 22.0203 16.6042 21.9313 16.5469 21.8528ZM12.3948 27.0544C12.4848 27.092 12.5814 27.1114 12.6789 27.1114C12.8253 27.1114 12.9684 27.068 13.0902 26.9868C13.2119 26.9056 13.3069 26.7901 13.3631 26.655C13.4987 26.3287 13.6545 26.0112 13.8296 25.7043C13.9269 25.5337 13.9525 25.3314 13.9007 25.1419C13.8489 24.9524 13.724 24.7913 13.5534 24.6939C13.4689 24.6457 13.3758 24.6146 13.2793 24.6024C13.1828 24.5902 13.0848 24.5971 12.991 24.6228C12.8972 24.6484 12.8093 24.6923 12.7325 24.7519C12.6556 24.8115 12.5912 24.8857 12.5431 24.9702C12.3377 25.3305 12.1548 25.7032 11.9955 26.0861C11.9581 26.1759 11.9388 26.2722 11.9386 26.3695C11.9385 26.4668 11.9575 26.5631 11.9945 26.653C12.0316 26.7429 12.0861 26.8247 12.1548 26.8935C12.2234 26.9624 12.305 27.0171 12.3948 27.0544ZM11.9456 31.7122C12.1419 31.7042 12.3269 31.6185 12.46 31.4741C12.5931 31.3296 12.6634 31.1382 12.6553 30.942C12.6486 30.7781 12.6452 30.614 12.6452 30.45C12.6452 30.2522 12.6503 30.0537 12.6604 29.8601C12.6702 29.6641 12.6018 29.4722 12.4703 29.3266C12.3388 29.1809 12.1548 29.0934 11.9589 29.0833C11.7629 29.0732 11.5709 29.1412 11.4251 29.2725C11.2793 29.4038 11.1915 29.5877 11.1811 29.7836C11.1602 30.1897 11.1583 30.5965 11.1754 31.0027C11.1835 31.1989 11.2692 31.3839 11.4136 31.517C11.558 31.65 11.7494 31.7203 11.9456 31.7122ZM1.92544 40.4583C1.74777 40.3746 1.54411 40.3648 1.35926 40.4312C1.17441 40.4976 1.02349 40.6347 0.939695 40.8123C0.762405 41.1893 0.610354 41.5777 0.484547 41.9748C0.4544 42.0677 0.442929 42.1657 0.450794 42.2631C0.45866 42.3604 0.485707 42.4553 0.530377 42.5421C0.575048 42.629 0.63646 42.7062 0.711077 42.7692C0.785695 42.8322 0.872044 42.8799 0.965153 42.9094C1.05826 42.9389 1.15629 42.9498 1.2536 42.9412C1.35091 42.9327 1.44557 42.905 1.53213 42.8598C1.6187 42.8145 1.69546 42.7526 1.75799 42.6776C1.82053 42.6025 1.8676 42.5159 1.8965 42.4226C2.0023 42.0882 2.13024 41.7613 2.27946 41.4439C2.32094 41.356 2.34468 41.2607 2.34933 41.1636C2.35399 41.0664 2.33946 40.9693 2.30659 40.8778C2.27371 40.7863 2.22313 40.7021 2.15773 40.6301C2.09234 40.5582 2.0134 40.4998 1.92544 40.4583ZM4.24956 37.0182C3.90667 37.249 3.5778 37.4999 3.26471 37.7698C3.15045 37.8686 3.06913 38 3.03167 38.1464C2.9942 38.2927 3.00237 38.447 3.05509 38.5886C3.1078 38.7302 3.20254 38.8523 3.3266 38.9385C3.45066 39.0247 3.59811 39.0709 3.74919 39.0709C3.92062 39.0709 4.09304 39.0117 4.23297 38.8908C4.50149 38.6595 4.78349 38.4444 5.0775 38.2465C5.15815 38.1921 5.2273 38.1224 5.28101 38.0413C5.33471 37.9602 5.37192 37.8693 5.3905 37.7738C5.40907 37.6784 5.40866 37.5802 5.38929 37.4849C5.36991 37.3896 5.33195 37.299 5.27757 37.2184C5.22324 37.1377 5.15354 37.0685 5.07246 37.0148C4.99138 36.9611 4.90051 36.9239 4.80504 36.9053C4.70957 36.8867 4.61138 36.8871 4.51607 36.9065C4.42076 36.9258 4.3302 36.9638 4.24956 37.0182ZM8.8199 35.1158C8.42272 35.2055 8.02989 35.3099 7.65226 35.4261C7.46799 35.4867 7.31485 35.6172 7.22574 35.7895C7.13664 35.9619 7.11868 36.1623 7.17572 36.3477C7.23276 36.5331 7.36025 36.6887 7.53081 36.7812C7.70136 36.8736 7.90137 36.8954 8.08786 36.842C8.43703 36.735 8.79012 36.6412 9.14638 36.5608C9.33797 36.5175 9.50453 36.3999 9.6094 36.2338C9.71428 36.0677 9.74889 35.8668 9.70561 35.6752C9.68421 35.5803 9.64433 35.4905 9.58823 35.411C9.53213 35.3315 9.46091 35.2639 9.37866 35.212C9.2964 35.16 9.20472 35.1248 9.10885 35.1083C9.01297 35.0918 8.91479 35.0944 8.8199 35.1158ZM18.0578 36.9123C18.1306 36.9356 18.2065 36.9474 18.2829 36.9475C18.4597 36.9476 18.6307 36.8845 18.7651 36.7695C18.8994 36.6545 18.9881 36.4953 19.0153 36.3206C19.0424 36.1458 19.0062 35.9672 18.9131 35.8169C18.82 35.6665 18.6762 35.5545 18.5077 35.501C18.1238 35.379 17.7354 35.2716 17.3435 35.1789C17.1524 35.1336 16.951 35.166 16.7838 35.2691C16.6166 35.3722 16.4972 35.5375 16.4519 35.7286C16.4065 35.9197 16.4389 36.121 16.542 36.2882C16.6451 36.4554 16.8104 36.5749 17.0015 36.6202C17.3643 36.7062 17.7196 36.8046 18.0578 36.9123ZM21.6464 39.0683C21.7154 39.1599 21.8049 39.2342 21.9076 39.2854C22.0103 39.3365 22.1235 39.363 22.2382 39.3629C22.3759 39.3628 22.5108 39.3243 22.6279 39.2517C22.7449 39.1792 22.8394 39.0755 22.9007 38.9522C22.9621 38.8289 22.9879 38.691 22.9752 38.5539C22.9625 38.4168 22.9118 38.2859 22.8289 38.176C22.5785 37.8443 22.2665 37.5254 21.9013 37.228C21.8259 37.1666 21.7391 37.1206 21.6459 37.0928C21.5527 37.0649 21.455 37.0556 21.3582 37.0655C21.2615 37.0754 21.1676 37.1043 21.082 37.1505C20.9964 37.1967 20.9208 37.2593 20.8594 37.3347C20.7979 37.4101 20.752 37.4969 20.7241 37.59C20.6962 37.6832 20.687 37.781 20.6969 37.8777C20.7068 37.9745 20.7356 38.0684 20.7818 38.1539C20.828 38.2395 20.8906 38.3152 20.966 38.3766C21.2389 38.5989 21.4678 38.8316 21.6464 39.0683ZM22.7671 41.2947C22.6819 41.2478 22.5883 41.2182 22.4916 41.2074C22.395 41.1967 22.2971 41.2051 22.2037 41.2322C22.1103 41.2593 22.0231 41.3045 21.9472 41.3653C21.8713 41.4261 21.808 41.5012 21.7612 41.5864C21.5993 41.8805 21.416 42.12 21.2163 42.2984C21.1438 42.3632 21.0848 42.4416 21.0426 42.5292C21.0004 42.6169 20.9758 42.712 20.9704 42.8091C20.9649 42.9062 20.9786 43.0034 21.0108 43.0952C21.0429 43.187 21.0928 43.2716 21.1576 43.3441C21.2224 43.4167 21.3008 43.4757 21.3885 43.5179C21.4761 43.5601 21.5712 43.5846 21.6683 43.5901C21.7654 43.5956 21.8626 43.5818 21.9545 43.5497C22.0463 43.5176 22.1308 43.4677 22.2034 43.4029C22.5282 43.1127 22.816 42.7417 23.0588 42.3006C23.1057 42.2154 23.1353 42.1218 23.146 42.0252C23.1568 41.9285 23.1484 41.8307 23.1213 41.7373C23.0942 41.6439 23.049 41.5567 22.9882 41.4808C22.9275 41.4049 22.8523 41.3416 22.7671 41.2947ZM18.7505 42.2938C18.471 42.1439 18.1821 41.954 17.8916 41.7292C17.8147 41.6692 17.7267 41.625 17.6327 41.5991C17.5386 41.5731 17.4404 41.5661 17.3436 41.5782C17.2468 41.5903 17.1534 41.6215 17.0687 41.6698C16.984 41.7182 16.9097 41.7828 16.85 41.8599C16.7903 41.9371 16.7465 42.0253 16.721 42.1194C16.6954 42.2136 16.6888 42.3118 16.7014 42.4086C16.7139 42.5053 16.7455 42.5986 16.7942 42.6831C16.843 42.7676 16.9079 42.8416 16.9853 42.9009C17.3404 43.1757 17.6987 43.4105 18.0502 43.599C18.1359 43.645 18.2298 43.6737 18.3266 43.6834C18.4234 43.6931 18.5211 43.6836 18.6142 43.6556C18.7074 43.6275 18.794 43.5813 18.8693 43.5197C18.9446 43.4581 19.007 43.3823 19.053 43.2965C19.1458 43.1235 19.1661 42.9206 19.1094 42.7325C19.0527 42.5445 18.9236 42.3867 18.7505 42.2938ZM14.3968 35.4574C14.4006 35.3602 14.3852 35.2632 14.3514 35.172C14.3177 35.0807 14.2663 34.9971 14.2002 34.9257C14.1342 34.8543 14.0547 34.7966 13.9663 34.756C13.8779 34.7153 13.7824 34.6925 13.6852 34.6887C13.5699 34.6843 13.4538 34.6808 13.338 34.6784C13.2941 34.5402 13.2521 34.4015 13.2119 34.2622C13.185 34.1687 13.1399 34.0815 13.0793 34.0054C13.0187 33.9294 12.9436 33.866 12.8585 33.819C12.7734 33.7719 12.6798 33.7421 12.5831 33.7313C12.4865 33.7204 12.3886 33.7287 12.2952 33.7556C12.1064 33.81 11.947 33.9371 11.852 34.1091C11.757 34.281 11.7342 34.4836 11.7886 34.6723C11.8208 34.784 11.8543 34.8961 11.889 35.0081C11.8193 35.1128 11.7774 35.2336 11.7673 35.359C11.7571 35.4844 11.7791 35.6104 11.8312 35.7249C11.8832 35.8395 11.9636 35.9389 12.0647 36.0138C12.1658 36.0887 12.2843 36.1366 12.409 36.153C12.5379 36.2506 12.6951 36.3035 12.8568 36.3037C12.9406 36.3037 13.0259 36.2893 13.1094 36.2591C13.1763 36.2349 13.2394 36.2011 13.2967 36.1589C13.4072 36.1612 13.5176 36.1645 13.628 36.1688C14.0335 36.182 14.381 35.8661 14.3968 35.4574ZM15.0248 38.3747C14.9224 38.2071 14.7577 38.0869 14.5667 38.0407C14.3758 37.9945 14.1743 38.0261 14.0067 38.1284C13.839 38.2308 13.7188 38.3956 13.6726 38.5865C13.6265 38.7774 13.658 38.9789 13.7604 39.1466C13.9694 39.4892 14.1903 39.8245 14.4225 40.1519C14.491 40.2484 14.5816 40.3271 14.6868 40.3814C14.7919 40.4357 14.9086 40.4639 15.027 40.4637C15.1628 40.4636 15.2961 40.4261 15.4121 40.3554C15.5281 40.2846 15.6224 40.1833 15.6846 40.0626C15.7469 39.9418 15.7748 39.8062 15.7652 39.6707C15.7555 39.5352 15.7088 39.4049 15.6301 39.2941C15.4178 38.9947 15.2159 38.6881 15.0248 38.3747ZM1.48086 45.6943C1.46812 45.2854 1.12624 44.9622 0.717404 44.9773C0.620191 44.9803 0.524528 45.0025 0.43588 45.0425C0.347231 45.0825 0.267333 45.1396 0.200748 45.2105C0.134164 45.2814 0.0821963 45.3647 0.0478144 45.4557C0.0134324 45.5467 -0.0026907 45.6435 0.000365779 45.7407C0.00678466 45.9464 0.0180424 46.1564 0.0336452 46.3649C0.0484126 46.5607 0.14037 46.7427 0.289296 46.8708C0.438222 46.9989 0.631924 47.0626 0.827809 47.0479C0.924799 47.0406 1.0194 47.0143 1.10622 46.9704C1.19303 46.9266 1.27035 46.866 1.33377 46.7923C1.39719 46.7185 1.44547 46.633 1.47584 46.5406C1.50621 46.4482 1.51808 46.3507 1.51078 46.2538C1.49675 46.0667 1.48668 45.8785 1.48086 45.6943Z" fill="white"/>
</svg>
