<svg width="20" height="20" viewBox="0 0 20 20" fill="none" xmlns="http://www.w3.org/2000/svg">
<path d="M17 2.30003C16.58 1.88003 16.04 1.66003 15.44 1.66003C14.86 1.66003 14.3 1.88003 13.88 2.30003L2.02003 14.18C1.96003 14.24 1.94003 14.3 1.92003 14.36L1.08003 17.76C1.04003 17.9 1.08003 18.04 1.18003 18.14C1.26003 18.22 1.36003 18.26 1.46003 18.26C1.50003 18.26 1.52003 18.26 1.56003 18.24L4.96003 17.4C5.04003 17.38 5.10003 17.34 5.14003 17.3L17 5.40003C17.86 4.54003 17.86 3.16003 17 2.30003ZM2.86003 14.46L11.92 5.40003L13.9 7.38003L4.84003 16.44L2.86003 14.46ZM12.48 4.84003L13.32 4.00003L15.3 5.98003L14.46 6.82003L12.48 4.84003ZM2.52003 15.24L4.06003 16.78L2.00003 17.3L2.52003 15.24ZM16.44 4.84003L15.88 5.40003L13.9 3.42003L14.46 2.86003C14.72 2.60003 15.08 2.46003 15.46 2.46003C15.84 2.46003 16.18 2.60003 16.44 2.86003C16.98 3.40003 16.98 4.30003 16.44 4.84003ZM18.94 17.94C18.94 18.16 18.76 18.34 18.54 18.34H7.34003C7.12003 18.34 6.94003 18.16 6.94003 17.94C6.94003 17.72 7.12003 17.54 7.34003 17.54H18.54C18.78 17.54 18.94 17.72 18.94 17.94Z" fill="#747373"/>
</svg>
