<svg width="20" height="16" viewBox="0 0 20 16" fill="none" xmlns="http://www.w3.org/2000/svg">
<path d="M12.483 8.16848L13.6189 7.03254C13.7015 7.34176 13.75 7.66504 13.75 8.00004C13.75 10.0679 12.0678 11.75 9.99998 11.75C9.66498 11.75 9.3417 11.7016 9.03248 11.6189L10.1684 10.483C10.7688 10.4422 11.3341 10.1853 11.7597 9.75974C12.1852 9.33421 12.4422 8.7689 12.483 8.16848ZM19.9212 7.69644C19.8444 7.55816 18.754 5.6477 16.6228 4.02863L15.7133 4.93816C17.2673 6.08082 18.252 7.41348 18.6397 8.00098C17.8989 9.12894 14.993 13 9.99998 13C9.25123 13 8.55498 12.9043 7.89983 12.7514L6.87279 13.7785C7.81701 14.068 8.85483 14.25 9.99998 14.25C16.5426 14.25 19.7864 8.54629 19.9212 8.30363C19.9729 8.21078 20 8.10629 20 8.00004C20 7.89379 19.9729 7.7893 19.9212 7.69644ZM17.3169 1.56691L3.56686 15.3169C3.44483 15.4389 3.28483 15.5 3.12498 15.5C2.96514 15.5 2.80514 15.4389 2.68311 15.3169C2.62504 15.2589 2.57897 15.19 2.54753 15.1142C2.5161 15.0384 2.49992 14.9571 2.49992 14.875C2.49992 14.793 2.5161 14.7117 2.54753 14.6359C2.57897 14.56 2.62504 14.4912 2.68311 14.4332L4.43248 12.6838C1.60436 10.9764 0.167326 8.46316 0.0787323 8.30363C0.0270977 8.21075 0 8.10623 0 7.99996C0 7.89369 0.0270977 7.78917 0.0787323 7.69629C0.213576 7.45379 3.45733 1.75004 9.99998 1.75004C11.6917 1.75004 13.157 2.13598 14.4097 2.7066L16.4331 0.683164C16.6773 0.438945 17.0728 0.438945 17.3169 0.683164C17.5609 0.927383 17.5611 1.32285 17.3169 1.56691ZM5.36451 11.7518L6.94686 10.1694C6.50983 9.55629 6.24998 8.80863 6.24998 8.00004C6.24998 5.93223 7.93217 4.25004 9.99998 4.25004C10.8086 4.25004 11.5562 4.50988 12.1694 4.94676L13.4489 3.66723C12.438 3.26238 11.2892 3.00004 9.99998 3.00004C5.00701 3.00004 2.10108 6.87113 1.36045 7.9991C1.83076 8.71191 3.18264 10.5163 5.36451 11.7518ZM7.8542 9.26191L11.2619 5.85426C10.8901 5.63473 10.4622 5.50004 9.99998 5.50004C8.62154 5.50004 7.49998 6.6216 7.49998 8.00004C7.49998 8.46223 7.63467 8.89019 7.8542 9.26191Z" fill="#646464"/>
</svg>
