<svg width="20" height="20" viewBox="0 0 20 20" fill="none" xmlns="http://www.w3.org/2000/svg">
<path d="M10.0002 0.587891C7.05905 0.587891 4.70611 2.94083 4.70611 5.88201V8.23495C3.70611 8.23495 2.94141 8.99966 2.94141 9.99966V17.6467C2.94141 18.6467 3.70611 19.4114 4.70611 19.4114H15.2943C16.2943 19.4114 17.0591 18.6467 17.0591 17.6467V9.99966C17.0591 8.99966 16.2943 8.23495 15.2943 8.23495V5.88201C15.2943 2.94083 12.9414 0.587891 10.0002 0.587891ZM15.8826 9.99966V17.6467C15.8826 17.9997 15.6473 18.235 15.2943 18.235H4.70611C4.35317 18.235 4.11788 17.9997 4.11788 17.6467V9.99966C4.11788 9.64671 4.35317 9.41142 4.70611 9.41142H15.2943C15.6473 9.41142 15.8826 9.64671 15.8826 9.99966ZM5.88258 8.23495V5.88201C5.88258 3.58789 7.70611 1.76436 10.0002 1.76436C12.2943 1.76436 14.1179 3.58789 14.1179 5.88201V8.23495H5.88258Z" fill="#747373"/>
<path d="M10.001 11.1758C9.00103 11.1758 8.23633 11.9405 8.23633 12.9405C8.23633 13.7052 8.70692 14.3523 9.4128 14.5875V15.8817C9.4128 16.2346 9.64809 16.4699 10.001 16.4699C10.354 16.4699 10.5893 16.2346 10.5893 15.8817V14.5875C11.2952 14.3523 11.7657 13.7052 11.7657 12.9405C11.7657 11.9405 11.001 11.1758 10.001 11.1758ZM10.001 13.5287C9.64809 13.5287 9.4128 13.2934 9.4128 12.9405C9.4128 12.5875 9.64809 12.3523 10.001 12.3523C10.354 12.3523 10.5893 12.5875 10.5893 12.9405C10.5893 13.2934 10.354 13.5287 10.001 13.5287Z" fill="#747373"/>
</svg>
