<svg width="20" height="20" viewBox="0 0 20 20" fill="none" xmlns="http://www.w3.org/2000/svg">
<g clip-path="url(#clip0_0_783)">
<path d="M10 4.54547C11.2531 4.54547 12.2727 3.52585 12.2727 2.27276C12.2727 1.01966 11.2531 0 10 0C8.74692 0 7.72731 1.01962 7.72731 2.27271C7.72731 3.52581 8.74688 4.54547 10 4.54547ZM10 0.909077C10.752 0.909077 11.3637 1.52075 11.3637 2.27271C11.3637 3.02468 10.752 3.63635 10 3.63635C9.24806 3.63635 8.63638 3.02468 8.63638 2.27271C8.63638 1.52075 9.24806 0.909077 10 0.909077ZM6.883 9.0909H13.117C13.6541 9.0909 14.0909 8.61947 14.0909 8.03975V7.74857C14.0909 6.98907 13.715 6.29527 13.109 5.93792C12.3833 5.50999 11.2549 4.99999 10 4.99999C8.74513 4.99999 7.61677 5.51003 6.89101 5.93792C6.28509 6.29523 5.90911 6.98907 5.90911 7.74857V8.03975C5.90911 8.61951 6.3459 9.0909 6.883 9.0909ZM6.81819 7.74857C6.81819 7.31579 7.02814 6.9127 7.35265 6.72094C7.98077 6.35071 8.95023 5.90907 10 5.90907C11.0498 5.90907 12.0193 6.35076 12.6474 6.72094C12.9719 6.9127 13.1819 7.31574 13.1819 7.74857V8.03975C13.1819 8.13431 13.1282 8.18178 13.117 8.18178H6.883C6.87192 8.18178 6.81819 8.13427 6.81819 8.03975V7.74857ZM4.09091 15.4546C5.34401 15.4546 6.36363 14.435 6.36363 13.1819C6.36363 11.9288 5.34401 10.9091 4.09091 10.9091C2.83781 10.9091 1.8182 11.9287 1.8182 13.1818C1.8182 14.4349 2.83781 15.4546 4.09091 15.4546ZM4.09091 11.8182C4.84287 11.8182 5.45455 12.4299 5.45455 13.1818C5.45455 13.9338 4.84287 14.5454 4.09091 14.5454C3.33895 14.5454 2.72727 13.9338 2.72727 13.1818C2.72727 12.4299 3.33895 11.8182 4.09091 11.8182ZM7.19992 16.8471C6.47417 16.4191 5.3458 15.9091 4.09091 15.9091C2.83602 15.9091 1.70766 16.4192 0.981904 16.8471C0.37598 17.2044 0 17.8982 0 18.6577V18.9488C0 19.5286 0.43679 20 0.973893 20H7.20793C7.74503 20 8.18182 19.5286 8.18182 18.9488V18.6577C8.18182 17.8982 7.80584 17.2044 7.19992 16.8471ZM7.27275 18.9489C7.27275 19.0434 7.21905 19.0909 7.20793 19.0909H0.973893C0.962813 19.0909 0.909077 19.0434 0.909077 18.9489V18.6577C0.909077 18.2249 1.11903 17.8218 1.44354 17.6301C2.07166 17.2599 3.04112 16.8182 4.09091 16.8182C5.1407 16.8182 6.11016 17.2599 6.73829 17.6301C7.06279 17.8218 7.27275 18.2249 7.27275 18.6577V18.9489ZM15.9091 15.4546C17.1622 15.4546 18.1818 14.435 18.1818 13.1819C18.1818 11.9288 17.1622 10.9091 15.9091 10.9091C14.6559 10.9091 13.6364 11.9287 13.6364 13.1818C13.6364 14.4349 14.656 15.4546 15.9091 15.4546ZM15.9091 11.8182C16.661 11.8182 17.2727 12.4299 17.2727 13.1818C17.2727 13.9338 16.661 14.5454 15.9091 14.5454C15.1571 14.5454 14.5454 13.9338 14.5454 13.1818C14.5454 12.4299 15.1572 11.8182 15.9091 11.8182ZM19.0181 16.8471C18.2924 16.4191 17.164 15.9091 15.9091 15.9091C14.6542 15.9091 13.5259 16.4192 12.8001 16.8471C12.1942 17.2044 11.8182 17.8982 11.8182 18.6577V18.9489C11.8182 19.5286 12.255 20 12.7921 20H19.0261C19.5633 20 20 19.5286 20 18.9489V18.6577C20 17.8982 19.624 17.2044 19.0181 16.8471ZM19.0909 18.9489C19.0909 19.0434 19.0372 19.0909 19.0261 19.0909H12.7921C12.781 19.0909 12.7273 19.0434 12.7273 18.9489V18.6577C12.7273 18.2249 12.9372 17.8218 13.2617 17.6301C13.8898 17.2599 14.8593 16.8182 15.9091 16.8182C16.9589 16.8182 17.9283 17.2599 18.5565 17.6301C18.881 17.8218 19.0909 18.2249 19.0909 18.6577V18.9489ZM12.2723 15.4546C12.4059 15.4546 12.5378 15.396 12.6279 15.2841C12.7846 15.0879 12.7526 14.802 12.5568 14.6449L10.4546 12.9631V10.4546C10.4546 10.2033 10.2513 10 10 10C9.74877 10 9.54546 10.2033 9.54546 10.4545V12.9634L7.4432 14.6449C7.24743 14.802 7.21547 15.0879 7.37216 15.2841C7.46229 15.3959 7.5941 15.4545 7.72773 15.4545C7.82715 15.4545 7.92751 15.4221 8.01137 15.3551L10 13.7642L11.9886 15.3551C12.0691 15.4196 12.1692 15.4547 12.2723 15.4546Z" fill="#747373"/>
</g>
<defs>
<clipPath id="clip0_0_783">
<rect width="20" height="20" fill="white"/>
</clipPath>
</defs>
</svg>
