<svg width="20" height="20" viewBox="0 0 20 20" fill="none" xmlns="http://www.w3.org/2000/svg">
<g clip-path="url(#clip0_0_726)">
<path d="M19.6869 7.50033C19.6214 7.50028 19.5575 7.47961 19.5043 7.44125C19.4511 7.40289 19.4114 7.34878 19.3907 7.28658L19.0782 6.34908C19.0636 6.30978 19.057 6.26795 19.0589 6.22607C19.0608 6.1842 19.0711 6.14313 19.0892 6.10532C19.1073 6.06751 19.1328 6.03372 19.1643 6.00598C19.1957 5.97823 19.2324 5.95709 19.2721 5.94382C19.3119 5.93054 19.3539 5.9254 19.3957 5.92871C19.4375 5.93201 19.4782 5.94368 19.5154 5.96304C19.5526 5.98239 19.5855 6.00903 19.6122 6.04137C19.6388 6.07371 19.6587 6.11108 19.6707 6.15126L19.9832 7.08876C19.9989 7.13574 20.0032 7.18577 19.9957 7.23473C19.9883 7.2837 19.9693 7.3302 19.9404 7.37039C19.9115 7.41059 19.8734 7.44333 19.8293 7.46592C19.7852 7.48851 19.7364 7.50031 19.6869 7.50033Z" fill="#747373"/>
<path d="M19.375 6.56445H18.75C18.6671 6.56445 18.5876 6.53153 18.529 6.47292C18.4704 6.41432 18.4375 6.33483 18.4375 6.25195C18.4375 6.16907 18.4704 6.08959 18.529 6.03098C18.5876 5.97238 18.6671 5.93945 18.75 5.93945H19.375C19.4579 5.93945 19.5374 5.97238 19.596 6.03098C19.6546 6.08959 19.6875 6.16907 19.6875 6.25195C19.6875 6.33483 19.6546 6.41432 19.596 6.47292C19.5374 6.53153 19.4579 6.56445 19.375 6.56445Z" fill="#747373"/>
<path d="M18.1248 7.81458C18.0716 7.81455 18.0192 7.80092 17.9727 7.77498C17.9262 7.74903 17.8871 7.71163 17.8591 7.66634C17.8312 7.62104 17.8152 7.56934 17.8128 7.51614C17.8104 7.46295 17.8217 7.41003 17.8455 7.3624L18.4705 6.1124C18.5075 6.03822 18.5725 5.9818 18.6512 5.95554C18.7298 5.92929 18.8157 5.93535 18.8898 5.9724C18.964 6.00944 19.0204 6.07444 19.0467 6.15309C19.0729 6.23174 19.0669 6.31759 19.0298 6.39177L18.4048 7.64177C18.3789 7.69377 18.3389 7.73748 18.2894 7.76801C18.24 7.79854 18.183 7.81467 18.1248 7.81458Z" fill="#747373"/>
<path d="M18.125 7.81445H16.875C16.7921 7.81445 16.7126 7.78153 16.654 7.72292C16.5954 7.66432 16.5625 7.58483 16.5625 7.50195C16.5625 7.41907 16.5954 7.33959 16.654 7.28098C16.7126 7.22238 16.7921 7.18945 16.875 7.18945H18.125C18.2079 7.18945 18.2874 7.22238 18.346 7.28098C18.4046 7.33959 18.4375 7.41907 18.4375 7.50195C18.4375 7.58483 18.4046 7.66432 18.346 7.72292C18.2874 7.78153 18.2079 7.81445 18.125 7.81445Z" fill="#747373"/>
<path d="M16.875 8.75195C16.7921 8.75195 16.7126 8.71903 16.654 8.66042C16.5954 8.60182 16.5625 8.52233 16.5625 8.43945V7.50195C16.5625 7.41907 16.5954 7.33959 16.654 7.28098C16.7126 7.22238 16.7921 7.18945 16.875 7.18945C16.9579 7.18945 17.0374 7.22238 17.096 7.28098C17.1546 7.33959 17.1875 7.41907 17.1875 7.50195V8.43945C17.1875 8.52233 17.1546 8.60182 17.096 8.66042C17.0374 8.71903 16.9579 8.75195 16.875 8.75195Z" fill="#747373"/>
<path d="M16.875 8.75195H15.9375C15.8546 8.75195 15.7751 8.71903 15.7165 8.66042C15.6579 8.60182 15.625 8.52233 15.625 8.43945C15.625 8.35657 15.6579 8.27709 15.7165 8.21848C15.7751 8.15988 15.8546 8.12695 15.9375 8.12695H16.875C16.9579 8.12695 17.0374 8.15988 17.096 8.21848C17.1546 8.27709 17.1875 8.35657 17.1875 8.43945C17.1875 8.52233 17.1546 8.60182 17.096 8.66042C17.0374 8.71903 16.9579 8.75195 16.875 8.75195Z" fill="#747373"/>
<path d="M15.9375 9.68945C15.8546 9.68945 15.7751 9.65653 15.7165 9.59792C15.6579 9.53932 15.625 9.45983 15.625 9.37695V8.43945C15.625 8.35657 15.6579 8.27709 15.7165 8.21848C15.7751 8.15988 15.8546 8.12695 15.9375 8.12695C16.0204 8.12695 16.0999 8.15988 16.1585 8.21848C16.2171 8.27709 16.25 8.35657 16.25 8.43945V9.37695C16.25 9.45983 16.2171 9.53932 16.1585 9.59792C16.0999 9.65653 16.0204 9.68945 15.9375 9.68945Z" fill="#747373"/>
<path d="M15.0004 10.3145C14.9333 10.3146 14.8679 10.2931 14.814 10.2531C14.7601 10.2132 14.7205 10.157 14.701 10.0927C14.6815 10.0285 14.6832 9.95976 14.7058 9.89659C14.7284 9.83343 14.7708 9.77922 14.8266 9.74199L15.7641 9.11699C15.8331 9.071 15.9175 9.05427 15.9988 9.07051C16.0801 9.08674 16.1516 9.1346 16.1976 9.20356C16.2436 9.27251 16.2603 9.35692 16.2441 9.4382C16.2278 9.51949 16.18 9.59099 16.111 9.63699L15.1735 10.262C15.1223 10.2962 15.062 10.3145 15.0004 10.3145Z" fill="#747373"/>
<path d="M15 10.3145H14.6875C14.6046 10.3145 14.5251 10.2815 14.4665 10.2229C14.4079 10.1643 14.375 10.0848 14.375 10.002C14.375 9.91907 14.4079 9.83959 14.4665 9.78098C14.5251 9.72238 14.6046 9.68945 14.6875 9.68945H15C15.0829 9.68945 15.1624 9.72238 15.221 9.78098C15.2796 9.83959 15.3125 9.91907 15.3125 10.002C15.3125 10.0848 15.2796 10.1643 15.221 10.2229C15.1624 10.2815 15.0829 10.3145 15 10.3145Z" fill="#747373"/>
<path d="M14.6875 10.3145C14.6046 10.3145 14.5251 10.2815 14.4665 10.2229C14.4079 10.1643 14.375 10.0848 14.375 10.002V8.43945C14.375 8.35657 14.4079 8.27709 14.4665 8.21848C14.5251 8.15988 14.6046 8.12695 14.6875 8.12695C14.7704 8.12695 14.8499 8.15988 14.9085 8.21848C14.9671 8.27709 15 8.35657 15 8.43945V10.002C15 10.0848 14.9671 10.1643 14.9085 10.2229C14.8499 10.2815 14.7704 10.3145 14.6875 10.3145Z" fill="#747373"/>
<path d="M14.6876 8.75202C14.6465 8.75206 14.6059 8.74399 14.568 8.72828C14.53 8.71257 14.4956 8.68952 14.4666 8.66046L13.5291 7.72296C13.4722 7.66402 13.4407 7.58508 13.4414 7.50314C13.4421 7.42121 13.475 7.34283 13.5329 7.28489C13.5909 7.22695 13.6693 7.19408 13.7512 7.19337C13.8331 7.19266 13.9121 7.22416 13.971 7.28108L14.9085 8.21858C14.9522 8.26229 14.9819 8.31796 14.994 8.37857C15.0061 8.43918 14.9999 8.50201 14.9762 8.5591C14.9526 8.61619 14.9125 8.66499 14.8611 8.69933C14.8098 8.73367 14.7494 8.75201 14.6876 8.75202Z" fill="#747373"/>
<path d="M13.7501 7.81456H13.1945C13.1116 7.81456 13.0321 7.78164 12.9735 7.72303C12.9149 7.66443 12.882 7.58494 12.882 7.50206C12.882 7.41918 12.9149 7.3397 12.9735 7.28109C13.0321 7.22249 13.1116 7.18956 13.1945 7.18956H13.7501C13.833 7.18956 13.9125 7.22249 13.9711 7.28109C14.0297 7.3397 14.0626 7.41918 14.0626 7.50206C14.0626 7.58494 14.0297 7.66443 13.9711 7.72303C13.9125 7.78164 13.833 7.81456 13.7501 7.81456ZM5.93792 6.4355C5.92518 6.43552 5.91245 6.43479 5.8998 6.43331L1.8373 5.93737C1.755 5.92735 1.68005 5.88504 1.62895 5.81975C1.57784 5.75446 1.55477 5.67155 1.5648 5.58925C1.57482 5.50695 1.61714 5.432 1.68242 5.3809C1.74771 5.3298 1.83062 5.30672 1.91292 5.31675L5.97542 5.813C6.05409 5.823 6.12601 5.86253 6.17661 5.92358C6.22722 5.98463 6.25272 6.06264 6.24795 6.1418C6.24318 6.22095 6.2085 6.29533 6.15093 6.34987C6.09337 6.40441 6.01722 6.43502 5.93792 6.4355Z" fill="#747373"/>
<path d="M1.56243 6.25202C1.50064 6.25201 1.44023 6.23367 1.38885 6.19933C1.33747 6.16499 1.29743 6.11619 1.27378 6.0591C1.25014 6.00201 1.24395 5.93918 1.256 5.87857C1.26805 5.81796 1.29781 5.76229 1.3415 5.71858L1.654 5.40608C1.71293 5.34916 1.79187 5.31766 1.87381 5.31837C1.95575 5.31908 2.03412 5.35195 2.09206 5.40989C2.15 5.46783 2.18287 5.54621 2.18358 5.62814C2.18429 5.71008 2.1528 5.78902 2.09587 5.84796L1.78337 6.16046C1.75439 6.18952 1.71995 6.21257 1.68204 6.22828C1.64412 6.24399 1.60348 6.25206 1.56243 6.25202Z" fill="#747373"/>
<path d="M1.56196 6.25102C1.51356 6.25098 1.46583 6.23964 1.42259 6.2179L0.797587 5.9054C0.724116 5.86796 0.668417 5.80301 0.642629 5.72468C0.616841 5.64636 0.623054 5.56102 0.659914 5.48726C0.696774 5.4135 0.761293 5.3573 0.839411 5.3309C0.91753 5.3045 1.00292 5.31005 1.07696 5.34633L1.70196 5.65883C1.76502 5.69026 1.81561 5.74208 1.84552 5.80587C1.87542 5.86966 1.8829 5.94169 1.86672 6.01027C1.85054 6.07884 1.81167 6.13994 1.75641 6.18364C1.70114 6.22734 1.63242 6.25109 1.56196 6.25102Z" fill="#747373"/>
<path d="M0.9375 7.18945C0.85462 7.18945 0.775134 7.15653 0.716529 7.09792C0.657924 7.03932 0.625 6.95983 0.625 6.87695V5.62695C0.625 5.54407 0.657924 5.46459 0.716529 5.40598C0.775134 5.34738 0.85462 5.31445 0.9375 5.31445C1.02038 5.31445 1.09987 5.34738 1.15847 5.40598C1.21708 5.46459 1.25 5.54407 1.25 5.62695V6.87695C1.25 6.95983 1.21708 7.03932 1.15847 7.09792C1.09987 7.15653 1.02038 7.18945 0.9375 7.18945Z" fill="#747373"/>
<path d="M0.312333 8.43958C0.259086 8.43955 0.206729 8.42592 0.160231 8.39998C0.113732 8.37403 0.0746345 8.33663 0.0466474 8.29134C0.0186604 8.24604 0.00271231 8.19434 0.000316524 8.14114C-0.00207927 8.08795 0.00915668 8.03503 0.0329582 7.9874L0.657958 6.7374C0.695006 6.66322 0.760003 6.6068 0.838651 6.58054C0.917299 6.55429 1.00316 6.56035 1.07733 6.5974C1.15151 6.63444 1.20793 6.69944 1.23419 6.77809C1.26044 6.85674 1.25438 6.94259 1.21733 7.01677L0.592333 8.26677C0.566351 8.31877 0.526382 8.36248 0.476919 8.39301C0.427456 8.42354 0.370459 8.43967 0.312333 8.43958Z" fill="#747373"/>
<path d="M0.3125 11.252C0.22962 11.252 0.150134 11.219 0.0915291 11.1604C0.032924 11.1018 0 11.0223 0 10.9395V8.12695C0 8.04407 0.032924 7.96459 0.0915291 7.90598C0.150134 7.84738 0.22962 7.81445 0.3125 7.81445C0.39538 7.81445 0.474866 7.84738 0.533471 7.90598C0.592076 7.96459 0.625 8.04407 0.625 8.12695V10.9395C0.625 11.0223 0.592076 11.1018 0.533471 11.1604C0.474866 11.219 0.39538 11.252 0.3125 11.252Z" fill="#747373"/>
<path d="M1.56327 14.0642C1.50247 14.0643 1.44298 14.0466 1.39208 14.0134C1.34118 13.9801 1.30108 13.9327 1.2767 13.877L0.0267045 11.0242C-0.00537005 10.9485 -0.00630607 10.8632 0.0240994 10.7868C0.0545048 10.7104 0.113801 10.6491 0.189132 10.6161C0.264462 10.5831 0.349756 10.5811 0.426519 10.6106C0.503282 10.6401 0.565328 10.6987 0.599205 10.7736L1.8492 13.6264C1.88243 13.7023 1.88415 13.7883 1.85396 13.8655C1.82378 13.9427 1.76418 14.0047 1.68827 14.038C1.64888 14.0553 1.60631 14.0643 1.56327 14.0642Z" fill="#747373"/>
<path d="M5.00009 15.3145C4.96364 15.3146 4.92748 15.3082 4.89321 15.2958L1.45571 14.0458C1.37781 14.0174 1.31435 13.9593 1.2793 13.8842C1.24426 13.8091 1.24049 13.7231 1.26884 13.6452C1.29718 13.5673 1.35532 13.5038 1.43045 13.4688C1.50558 13.4337 1.59156 13.4299 1.66946 13.4583L5.10696 14.7083C5.17607 14.7334 5.23412 14.782 5.27091 14.8457C5.30769 14.9093 5.32086 14.9839 5.3081 15.0563C5.29534 15.1287 5.25746 15.1943 5.20112 15.2415C5.14479 15.2887 5.0736 15.3146 5.00009 15.3145Z" fill="#747373"/>
<path d="M4.99993 15.3145C4.93814 15.3145 4.87773 15.2962 4.82635 15.2618C4.77497 15.2275 4.73493 15.1787 4.71128 15.1216C4.68764 15.0645 4.68145 15.0017 4.6935 14.9411C4.70555 14.8805 4.73531 14.8248 4.779 14.7811L5.0915 14.4686C5.15043 14.4117 5.22937 14.3802 5.31131 14.3809C5.39325 14.3816 5.47162 14.4144 5.52956 14.4724C5.5875 14.5303 5.62037 14.6087 5.62108 14.6906C5.62179 14.7726 5.5903 14.8515 5.53337 14.9105L5.22087 15.223C5.19189 15.252 5.15745 15.2751 5.11954 15.2908C5.08162 15.3065 5.04098 15.3146 4.99993 15.3145Z" fill="#747373"/>
<path d="M5.9375 15.002H5.3125C5.22962 15.002 5.15013 14.969 5.09153 14.9104C5.03292 14.8518 5 14.7723 5 14.6895C5 14.6066 5.03292 14.5271 5.09153 14.4685C5.15013 14.4099 5.22962 14.377 5.3125 14.377H5.9375C6.02038 14.377 6.09987 14.4099 6.15847 14.4685C6.21708 14.5271 6.25 14.6066 6.25 14.6895C6.25 14.7723 6.21708 14.8518 6.15847 14.9104C6.09987 14.969 6.02038 15.002 5.9375 15.002Z" fill="#747373"/>
<path d="M6.87627 16.5634C6.82228 16.5635 6.76921 16.5496 6.72221 16.523C6.67522 16.4965 6.63592 16.4582 6.60814 16.4119L5.67064 14.8494C5.64862 14.8142 5.63383 14.775 5.62714 14.734C5.62044 14.693 5.62198 14.6511 5.63166 14.6107C5.64133 14.5704 5.65896 14.5323 5.6835 14.4989C5.70804 14.4654 5.739 14.4371 5.77458 14.4157C5.81017 14.3944 5.84965 14.3803 5.89074 14.3743C5.93182 14.3684 5.97368 14.3707 6.01387 14.3811C6.05405 14.3915 6.09177 14.4098 6.1248 14.4349C6.15784 14.4601 6.18553 14.4915 6.20627 14.5275L7.14377 16.09C7.17224 16.1374 7.18763 16.1915 7.18837 16.2468C7.1891 16.302 7.17516 16.3565 7.14797 16.4047C7.12077 16.4528 7.08129 16.4928 7.03356 16.5207C6.98583 16.5486 6.93155 16.5634 6.87627 16.5634Z" fill="#747373"/>
<path d="M7.1875 16.5645H6.875C6.79212 16.5645 6.71263 16.5315 6.65403 16.4729C6.59542 16.4143 6.5625 16.3348 6.5625 16.252C6.5625 16.1691 6.59542 16.0896 6.65403 16.031C6.71263 15.9724 6.79212 15.9395 6.875 15.9395H7.1875C7.27038 15.9395 7.34987 15.9724 7.40847 16.031C7.46708 16.0896 7.5 16.1691 7.5 16.252C7.5 16.3348 7.46708 16.4143 7.40847 16.4729C7.34987 16.5315 7.27038 16.5645 7.1875 16.5645Z" fill="#747373"/>
<path d="M7.18743 16.5645C7.12564 16.5645 7.06523 16.5462 7.01385 16.5118C6.96247 16.4775 6.92243 16.4287 6.89878 16.3716C6.87514 16.3145 6.86895 16.2517 6.881 16.1911C6.89305 16.1305 6.92281 16.0748 6.9665 16.0311L7.279 15.7186C7.33793 15.6617 7.41687 15.6302 7.49881 15.6309C7.58075 15.6316 7.65912 15.6644 7.71706 15.7224C7.775 15.7803 7.80787 15.8587 7.80858 15.9406C7.80929 16.0226 7.7778 16.1015 7.72087 16.1605L7.40837 16.473C7.37939 16.502 7.34495 16.5251 7.30704 16.5408C7.26912 16.5565 7.22848 16.5646 7.18743 16.5645Z" fill="#747373"/>
<path d="M8.125 16.252H7.5C7.41712 16.252 7.33763 16.219 7.27903 16.1604C7.22042 16.1018 7.1875 16.0223 7.1875 15.9395C7.1875 15.8566 7.22042 15.7771 7.27903 15.7185C7.33763 15.6599 7.41712 15.627 7.5 15.627H8.125C8.20788 15.627 8.28737 15.6599 8.34597 15.7185C8.40458 15.7771 8.4375 15.8566 8.4375 15.9395C8.4375 16.0223 8.40458 16.1018 8.34597 16.1604C8.28737 16.219 8.20788 16.252 8.125 16.252Z" fill="#747373"/>
<path d="M9.06294 18.1271C9.00482 18.1272 8.94782 18.111 8.89836 18.0805C8.84889 18.05 8.80892 18.0063 8.78294 17.9543L7.84544 16.0793C7.8271 16.0425 7.81617 16.0026 7.81328 15.9616C7.81038 15.9207 7.81559 15.8795 7.82859 15.8406C7.84159 15.8016 7.86213 15.7656 7.88904 15.7346C7.91596 15.7036 7.94871 15.6782 7.98544 15.6599C8.02217 15.6416 8.06215 15.6306 8.10311 15.6277C8.14406 15.6248 8.18518 15.63 8.22413 15.643C8.26307 15.656 8.29907 15.6766 8.33007 15.7035C8.36108 15.7304 8.38647 15.7632 8.40482 15.7999L9.34232 17.6749C9.36613 17.7226 9.37737 17.7755 9.37496 17.8287C9.37255 17.8819 9.35657 17.9337 9.32855 17.979C9.30052 18.0243 9.26138 18.0617 9.21484 18.0876C9.1683 18.1135 9.11622 18.1271 9.06294 18.1271Z" fill="#747373"/>
<path d="M9.6875 18.1271H9.0625C8.97962 18.1271 8.90013 18.0942 8.84153 18.0356C8.78292 17.9769 8.75 17.8975 8.75 17.8146C8.75 17.7317 8.78292 17.6522 8.84153 17.5936C8.90013 17.535 8.97962 17.5021 9.0625 17.5021H9.6875C9.77038 17.5021 9.84987 17.535 9.90847 17.5936C9.96708 17.6522 10 17.7317 10 17.8146C10 17.8975 9.96708 17.9769 9.90847 18.0356C9.84987 18.0942 9.77038 18.1271 9.6875 18.1271ZM9.68781 17.1896C9.61733 17.1897 9.54887 17.166 9.49355 17.1223C9.43823 17.0787 9.39931 17.0176 9.38309 16.949C9.36687 16.8804 9.37432 16.8083 9.40423 16.7445C9.43413 16.6807 9.48473 16.6288 9.54781 16.5974L10.7978 15.9724C10.872 15.9353 10.9578 15.9293 11.0365 15.9555C11.0754 15.9685 11.1114 15.9891 11.1424 16.016C11.1734 16.0429 11.1988 16.0757 11.2172 16.1124C11.2355 16.1491 11.2465 16.1891 11.2494 16.2301C11.2522 16.271 11.247 16.3121 11.234 16.3511C11.221 16.39 11.2005 16.426 11.1736 16.457C11.1467 16.488 11.1139 16.5134 11.0772 16.5318L9.82719 17.1568C9.78389 17.1783 9.73618 17.1896 9.68781 17.1896Z" fill="#747373"/>
<path d="M12.8125 16.5645H10.9375C10.8546 16.5645 10.7751 16.5315 10.7165 16.4729C10.6579 16.4143 10.625 16.3348 10.625 16.252C10.625 16.1691 10.6579 16.0896 10.7165 16.031C10.7751 15.9724 10.8546 15.9395 10.9375 15.9395H12.8125C12.8954 15.9395 12.9749 15.9724 13.0335 16.031C13.0921 16.0896 13.125 16.1691 13.125 16.252C13.125 16.3348 13.0921 16.4143 13.0335 16.4729C12.9749 16.5315 12.8954 16.5645 12.8125 16.5645ZM9.6875 18.127C9.60462 18.127 9.52513 18.094 9.46653 18.0354C9.40792 17.9768 9.375 17.8973 9.375 17.8145V16.877C9.375 16.7941 9.40792 16.7146 9.46653 16.656C9.52513 16.5974 9.60462 16.5645 9.6875 16.5645C9.77038 16.5645 9.84987 16.5974 9.90847 16.656C9.96708 16.7146 10 16.7941 10 16.877V17.8145C10 17.8973 9.96708 17.9768 9.90847 18.0354C9.84987 18.094 9.77038 18.127 9.6875 18.127Z" fill="#747373"/>
<path d="M12.8123 16.5646C12.7591 16.5646 12.7067 16.5509 12.6602 16.525C12.6137 16.499 12.5746 16.4616 12.5466 16.4163C12.5187 16.371 12.5027 16.3193 12.5003 16.2661C12.4979 16.213 12.5092 16.16 12.533 16.1124L12.8455 15.4874C12.8825 15.4132 12.9475 15.3568 13.0262 15.3305C13.1048 15.3043 13.1907 15.3103 13.2648 15.3474C13.339 15.3844 13.3954 15.4494 13.4217 15.5281C13.4479 15.6067 13.4419 15.6926 13.4048 15.7668L13.0923 16.3918C13.0664 16.4438 13.0264 16.4875 12.9769 16.518C12.9275 16.5485 12.8705 16.5647 12.8123 16.5646Z" fill="#747373"/>
<path d="M15.3125 15.9395H13.125C13.0421 15.9395 12.9626 15.9065 12.904 15.8479C12.8454 15.7893 12.8125 15.7098 12.8125 15.627C12.8125 15.5441 12.8454 15.4646 12.904 15.406C12.9626 15.3474 13.0421 15.3145 13.125 15.3145H15.3125C15.3954 15.3145 15.4749 15.3474 15.5335 15.406C15.5921 15.4646 15.625 15.5441 15.625 15.627C15.625 15.7098 15.5921 15.7893 15.5335 15.8479C15.4749 15.9065 15.3954 15.9395 15.3125 15.9395Z" fill="#747373"/>
<path d="M15.9369 17.8128C15.8714 17.8128 15.8075 17.7921 15.7543 17.7537C15.7011 17.7154 15.6614 17.6613 15.6407 17.5991L15.0157 15.7241C15.0011 15.6848 14.9945 15.643 14.9964 15.6011C14.9983 15.5592 15.0086 15.5181 15.0267 15.4803C15.0448 15.4425 15.0703 15.4087 15.1018 15.381C15.1332 15.3532 15.1699 15.3321 15.2096 15.3188C15.2494 15.3055 15.2914 15.3004 15.3332 15.3037C15.375 15.307 15.4157 15.3187 15.4529 15.338C15.4901 15.3574 15.523 15.384 15.5497 15.4164C15.5763 15.4487 15.5962 15.4861 15.6082 15.5263L16.2332 17.4013C16.2489 17.4482 16.2532 17.4983 16.2457 17.5472C16.2383 17.5962 16.2193 17.6427 16.1904 17.6829C16.1615 17.7231 16.1234 17.7558 16.0793 17.7784C16.0352 17.801 15.9864 17.8128 15.9369 17.8128Z" fill="#747373"/>
<path d="M17.1875 17.8145H15.9375C15.8546 17.8145 15.7751 17.7815 15.7165 17.7229C15.6579 17.6643 15.625 17.5848 15.625 17.502C15.625 17.4191 15.6579 17.3396 15.7165 17.281C15.7751 17.2224 15.8546 17.1895 15.9375 17.1895H17.1875C17.2704 17.1895 17.3499 17.2224 17.4085 17.281C17.4671 17.3396 17.5 17.4191 17.5 17.502C17.5 17.5848 17.4671 17.6643 17.4085 17.7229C17.3499 17.7815 17.2704 17.8145 17.1875 17.8145Z" fill="#747373"/>
<path d="M17.1877 17.8127C17.1241 17.8128 17.0619 17.7934 17.0096 17.7571C16.9573 17.7209 16.9173 17.6695 16.8949 17.6099L15.9574 15.1099C15.943 15.0715 15.9363 15.0306 15.9377 14.9896C15.9391 14.9486 15.9485 14.9082 15.9655 14.8708C15.9825 14.8334 16.0066 14.7998 16.0366 14.7717C16.0666 14.7437 16.1018 14.7219 16.1402 14.7074C16.1787 14.693 16.2196 14.6863 16.2606 14.6877C16.3016 14.6891 16.342 14.6985 16.3794 14.7155C16.4167 14.7325 16.4504 14.7566 16.4784 14.7866C16.5065 14.8166 16.5283 14.8518 16.5427 14.8902L17.4802 17.3902C17.498 17.4375 17.5041 17.4884 17.4979 17.5386C17.4917 17.5887 17.4734 17.6366 17.4447 17.6781C17.4159 17.7197 17.3775 17.7536 17.3328 17.7771C17.288 17.8005 17.2383 17.8127 17.1877 17.8127Z" fill="#747373"/>
<path d="M16.2499 14.6895C16.1881 14.6895 16.1277 14.6712 16.0764 14.6368C16.025 14.6025 15.9849 14.5537 15.9613 14.4966C15.9376 14.4395 15.9314 14.3767 15.9435 14.3161C15.9556 14.2555 15.9853 14.1998 16.029 14.1561L17.5915 12.5936C17.6504 12.5367 17.7294 12.5052 17.8113 12.5059C17.8932 12.5066 17.9716 12.5394 18.0296 12.5974C18.0875 12.6553 18.1204 12.7337 18.1211 12.8156C18.1218 12.8976 18.0903 12.9765 18.0334 13.0355L16.4709 14.598C16.4419 14.627 16.4075 14.6501 16.3695 14.6658C16.3316 14.6815 16.291 14.6896 16.2499 14.6895Z" fill="#747373"/>
<path d="M16.25 15.3145C16.1671 15.3145 16.0876 15.2816 16.029 15.2229C15.9704 15.1643 15.9375 15.0849 15.9375 15.002V14.377C15.9375 14.2941 15.9704 14.2146 16.029 14.156C16.0876 14.0974 16.1671 14.0645 16.25 14.0645C16.3329 14.0645 16.4124 14.0974 16.471 14.156C16.5296 14.2146 16.5625 14.2941 16.5625 14.377V15.002C16.5625 15.0849 16.5296 15.1643 16.471 15.2229C16.4124 15.2816 16.3329 15.3145 16.25 15.3145ZM17.8128 13.127C17.8012 13.127 17.7896 13.1263 17.7781 13.1251C17.6958 13.1159 17.6204 13.0744 17.5686 13.0097C17.5168 12.9451 17.4928 12.8625 17.5019 12.7801L17.8144 9.9676C17.8235 9.88522 17.865 9.80983 17.9297 9.75802C17.9617 9.73237 17.9985 9.71328 18.0379 9.70184C18.0773 9.6904 18.1186 9.68684 18.1594 9.69135C18.2002 9.69586 18.2397 9.70837 18.2756 9.72815C18.3116 9.74793 18.3433 9.7746 18.369 9.80664C18.3946 9.83867 18.4137 9.87545 18.4251 9.91486C18.4366 9.95428 18.4401 9.99556 18.4356 10.0363L18.1231 12.8489C18.1147 12.9253 18.0783 12.9959 18.0211 13.0472C17.9638 13.0985 17.8897 13.1269 17.8128 13.127Z" fill="#747373"/>
<path d="M18.1243 9.68966C18.0482 9.6895 17.9746 9.6615 17.9176 9.61094C17.8606 9.56038 17.8241 9.49074 17.8148 9.4151C17.8056 9.33947 17.8243 9.26306 17.8674 9.20025C17.9105 9.13744 17.9751 9.09255 18.049 9.07403L19.299 8.76153C19.3787 8.74361 19.4622 8.75756 19.5316 8.8004C19.6011 8.84324 19.6511 8.91156 19.6708 8.99076C19.6906 9.06996 19.6786 9.15375 19.6374 9.22421C19.5962 9.29466 19.529 9.34619 19.4503 9.36778L18.2003 9.68028C18.1755 9.68653 18.1499 9.68968 18.1243 9.68966Z" fill="#747373"/>
<path d="M18.125 10.3145C18.0421 10.3145 17.9626 10.2815 17.904 10.2229C17.8454 10.1643 17.8125 10.0848 17.8125 10.002V9.37695C17.8125 9.29407 17.8454 9.21459 17.904 9.15598C17.9626 9.09738 18.0421 9.06445 18.125 9.06445C18.2079 9.06445 18.2874 9.09738 18.346 9.15598C18.4046 9.21459 18.4375 9.29407 18.4375 9.37695V10.002C18.4375 10.0848 18.4046 10.1643 18.346 10.2229C18.2874 10.2815 18.2079 10.3145 18.125 10.3145ZM19.375 9.37695C19.2921 9.37695 19.2126 9.34403 19.154 9.28542C19.0954 9.22682 19.0625 9.14733 19.0625 9.06445V8.12695C19.0625 8.04407 19.0954 7.96459 19.154 7.90598C19.2126 7.84738 19.2921 7.81445 19.375 7.81445C19.4579 7.81445 19.5374 7.84738 19.596 7.90598C19.6546 7.96459 19.6875 8.04407 19.6875 8.12695V9.06445C19.6875 9.14733 19.6546 9.22682 19.596 9.28542C19.5374 9.34403 19.4579 9.37695 19.375 9.37695Z" fill="#747373"/>
<path d="M19.375 8.43867C19.3255 8.43865 19.2767 8.42686 19.2326 8.40427C19.1885 8.38168 19.1504 8.34893 19.1215 8.30874C19.0926 8.26854 19.0736 8.22204 19.0662 8.17308C19.0587 8.12411 19.063 8.07408 19.0787 8.02711L19.3912 7.08961C19.4032 7.04942 19.4231 7.01205 19.4498 6.97972C19.4764 6.94738 19.5093 6.92074 19.5465 6.90138C19.5837 6.88203 19.6244 6.87035 19.6662 6.86705C19.708 6.86375 19.75 6.86889 19.7898 6.88216C19.8295 6.89544 19.8662 6.91658 19.8977 6.94432C19.9291 6.97207 19.9546 7.00585 19.9727 7.04366C19.9908 7.08148 20.0011 7.12254 20.003 7.16442C20.0049 7.2063 19.9984 7.24813 19.9838 7.28742L19.6713 8.22492C19.6505 8.28712 19.6108 8.34123 19.5576 8.37959C19.5044 8.41795 19.4406 8.43862 19.375 8.43867ZM9.6875 12.8105C9.61444 12.8106 9.54368 12.7851 9.4875 12.7384C9.32938 12.6068 5.625 9.47867 5.625 5.93555C5.625 4.85811 6.05301 3.82479 6.81488 3.06293C7.57675 2.30106 8.61006 1.87305 9.6875 1.87305C10.7649 1.87305 11.7983 2.30106 12.5601 3.06293C13.322 3.82479 13.75 4.85811 13.75 5.93555C13.75 9.47867 10.0453 12.6068 9.8875 12.7384C9.83132 12.7851 9.76056 12.8106 9.6875 12.8105ZM9.6875 2.49805C8.77612 2.49904 7.90236 2.86152 7.25792 3.50596C6.61348 4.1504 6.25099 5.02417 6.25 5.93555C6.25 8.73961 8.925 11.3843 9.6875 12.0805C10.4494 11.3837 13.125 8.73586 13.125 5.93555C13.124 5.02417 12.7615 4.1504 12.1171 3.50596C11.4726 2.86152 10.5989 2.49904 9.6875 2.49805Z" fill="#747373"/>
<path d="M9.6875 8.12305C9.25485 8.12305 8.83192 7.99475 8.47219 7.75439C8.11246 7.51402 7.83208 7.17238 7.66651 6.77267C7.50095 6.37295 7.45763 5.93312 7.54203 5.50879C7.62644 5.08445 7.83478 4.69468 8.14071 4.38875C8.44663 4.08282 8.83641 3.87449 9.26074 3.79008C9.68507 3.70567 10.1249 3.74899 10.5246 3.91456C10.9243 4.08013 11.266 4.36051 11.5063 4.72024C11.7467 5.07997 11.875 5.5029 11.875 5.93555C11.8743 6.51551 11.6437 7.07152 11.2336 7.48161C10.8235 7.89171 10.2675 8.12239 9.6875 8.12305ZM9.6875 4.37305C9.37847 4.37305 9.07637 4.46469 8.81942 4.63638C8.56247 4.80807 8.3622 5.0521 8.24394 5.3376C8.12568 5.62311 8.09473 5.93728 8.15502 6.24038C8.21531 6.54347 8.36413 6.82188 8.58265 7.0404C8.80117 7.25892 9.07958 7.40773 9.38267 7.46802C9.68577 7.52831 9.99993 7.49737 10.2854 7.37911C10.571 7.26085 10.815 7.06058 10.9867 6.80363C11.1584 6.54667 11.25 6.24458 11.25 5.93555C11.2495 5.5213 11.0847 5.12416 10.7918 4.83124C10.4989 4.53832 10.1017 4.37354 9.6875 4.37305Z" fill="#747373"/>
</g>
<defs>
<clipPath id="clip0_0_726">
<rect width="20" height="20" fill="white"/>
</clipPath>
</defs>
</svg>
