<svg width="24" height="24" viewBox="0 0 24 24" fill="none" xmlns="http://www.w3.org/2000/svg">
<g clip-path="url(#clip0_229_627)">
<path d="M18.3859 9.22303C18.3859 9.22303 18.2591 8.26453 17.8684 7.84228C17.3726 7.28878 16.8176 7.28578 16.5626 7.25428C14.7386 7.11328 12.0034 7.11328 12.0034 7.11328H11.9974C11.9974 7.11328 9.26213 7.11328 7.43813 7.25428C7.18388 7.28578 6.62887 7.28878 6.13237 7.84228C5.74237 8.26453 5.61488 9.22303 5.61488 9.22303C5.61488 9.22303 5.48438 10.348 5.48438 11.4723V12.5268C5.48438 13.6525 5.61488 14.7768 5.61488 14.7768C5.61488 14.7768 5.74162 15.7353 6.13237 16.156C6.62887 16.7095 7.27913 16.6923 7.56938 16.75C8.61188 16.8573 12.0004 16.8903 12.0004 16.8903C12.0004 16.8903 14.7386 16.8858 16.5626 16.7455C16.8169 16.7125 17.3726 16.7095 17.8684 16.1568C18.2584 15.7353 18.3859 14.7775 18.3859 14.7775C18.3859 14.7775 18.5164 13.6525 18.5164 12.5275V11.473C18.5164 10.348 18.3859 9.22303 18.3859 9.22303ZM10.3729 14.446V9.55753L14.4469 12.0018L10.3729 14.446Z" fill="#F68939"/>
<path d="M12 0.75C18.2033 0.75 23.25 5.79675 23.25 12C23.25 18.2033 18.2033 23.25 12 23.25C5.79675 23.25 0.75 18.2033 0.75 12C0.75 5.79675 5.79675 0.75 12 0.75ZM12 0C5.373 0 0 5.373 0 12C0 18.627 5.373 24 12 24C18.627 24 24 18.6278 24 12C24 5.37225 18.627 0 12 0Z" fill="#F68939"/>
</g>
<defs>
<clipPath id="clip0_229_627">
<rect width="24" height="24" fill="white"/>
</clipPath>
</defs>
</svg>
