<svg width="20" height="20" viewBox="0 0 20 20" fill="none" xmlns="http://www.w3.org/2000/svg">
<g clip-path="url(#clip0_0_777)">
<path d="M17.657 8.86095C17.8729 8.86095 18.0478 8.68598 18.0478 8.47011V6.10959C18.0478 5.89373 17.8729 5.71875 17.657 5.71875H15.2965C15.0806 5.71875 14.9056 5.89373 14.9056 6.10959V8.47011C14.9056 8.68598 15.0806 8.86095 15.2965 8.86095H17.657ZM15.6873 6.50043H17.2662V8.07927H15.6873V6.50043ZM12.9905 10.4507C12.9905 10.6665 13.1655 10.8415 13.3814 10.8415H17.657C17.8729 10.8415 18.0478 10.6665 18.0478 10.4507C18.0478 10.2348 17.8729 10.0598 17.657 10.0598H13.3814C13.1655 10.0598 12.9905 10.2348 12.9905 10.4507ZM11.3398 12.3596C11.3398 12.5755 11.5148 12.7504 11.7307 12.7504H17.657C17.8729 12.7504 18.0478 12.5755 18.0478 12.3596C18.0478 12.1437 17.8729 11.9688 17.657 11.9688H11.7307C11.5148 11.9688 11.3398 12.1437 11.3398 12.3596Z" fill="#747373"/>
<path d="M0.435285 16.3574C0.975818 16.861 1.85607 16.8233 2.37347 16.3059L3.51382 15.1656H18.3433C19.2568 15.1656 20 14.4224 20 13.5089V4.9399C20 4.02639 19.2568 3.2832 18.3433 3.2832H12.4724C12.2565 3.2832 12.0816 3.45818 12.0816 3.67404C12.0816 3.88991 12.2565 4.06489 12.4724 4.06489H18.3433C18.8258 4.06489 19.2183 4.45741 19.2183 4.9399V13.5089C19.2183 13.9913 18.8258 14.3839 18.3433 14.3839H4.2957L4.51078 14.1688C4.92237 13.7568 5.02102 13.1015 4.74012 12.5888L5.34612 11.9782C6.01884 12.5084 6.84422 12.7961 7.71392 12.7961C8.73819 12.7961 9.70115 12.3972 10.4254 11.6729C11.1497 10.9487 11.5486 9.9857 11.5486 8.96138C11.5486 7.9371 11.1497 6.97415 10.4254 6.24988C9.70115 5.52557 8.73819 5.12672 7.71388 5.12672C5.62362 5.12672 3.87922 6.87116 3.87922 8.96142C3.87922 9.87736 4.19842 10.7441 4.78378 11.4352L4.19834 12.025C3.66973 11.697 2.98017 11.7853 2.54289 12.2226L2.39883 12.3667V4.93994C2.39883 4.45745 2.79135 4.06492 3.27385 4.06492H9.03453C9.25039 4.06492 9.42537 3.88994 9.42537 3.67408C9.42537 3.45822 9.25039 3.28324 9.03453 3.28324H3.27388C2.36037 3.28324 1.61719 4.02643 1.61719 4.93994V13.1485L0.399718 14.3659C-0.147186 14.9128 -0.130536 15.8302 0.435285 16.3574ZM5.55514 6.80261C6.13175 6.226 6.89843 5.9084 7.71392 5.9084C8.52941 5.9084 9.29608 6.22596 9.87273 6.80261C10.4493 7.37922 10.7669 8.14589 10.7669 8.96138C10.7669 9.77687 10.4494 10.5435 9.87273 11.1202C9.29612 11.6968 8.52944 12.0144 7.71395 12.0144C6.89847 12.0144 6.13183 11.6968 5.55518 11.1202C4.97854 10.5435 4.66098 9.77683 4.66098 8.96138C4.6609 8.14589 4.9785 7.37926 5.55514 6.80261ZM0.952445 14.9186L3.09683 12.7742C3.31707 12.5552 3.67434 12.5555 3.89407 12.7752C4.13612 13.0023 4.21519 13.3587 3.9577 13.6161L1.82066 15.7532C1.58471 15.9892 1.20223 16.0036 0.968079 15.7855C0.722045 15.5562 0.714423 15.1567 0.952445 14.9186Z" fill="#747373"/>
<path d="M6.11265 9.42471C6.11319 9.42842 6.11398 9.42971 6.11507 9.42862L7.01819 10.8897C7.16667 11.1299 7.42368 11.2732 7.70603 11.2732H7.70743C7.99029 11.2727 8.2475 11.1285 8.39543 10.8874L9.29026 9.42901C9.47064 9.12595 9.56545 8.77877 9.55732 8.4256C9.5343 7.42403 8.67742 6.60084 7.67656 6.61405C6.66807 6.62805 5.84766 7.46015 5.84766 8.46895C5.84762 8.8012 5.93747 9.14115 6.11265 9.42471ZM7.68738 7.39562C8.26618 7.38686 8.76255 7.86494 8.7758 8.4435C8.78053 8.64998 8.72362 8.85166 8.61864 9.02875L7.72913 10.4786C7.72616 10.4834 7.72119 10.4915 7.70611 10.4915H7.70607C7.69102 10.4915 7.68606 10.4835 7.68308 10.4787L6.78403 9.02421C6.68542 8.85439 6.62934 8.66632 6.62934 8.46891C6.6293 7.88519 7.10398 7.40371 7.68738 7.39562ZM11.1329 3.45735C11.0139 3.28041 10.7685 3.23164 10.5908 3.34948C10.4131 3.46731 10.3655 3.71433 10.4829 3.89118C10.6006 4.06839 10.8478 4.11771 11.0246 3.99944C11.2017 3.88102 11.2511 3.63471 11.1329 3.45735Z" fill="#747373"/>
<path d="M8.02876 8.28157C7.90975 8.10463 7.66434 8.05586 7.48666 8.1737C7.30899 8.29153 7.26135 8.53855 7.37879 8.7154C7.49644 8.89261 7.74372 8.94193 7.9205 8.82366C8.09755 8.70524 8.14695 8.45893 8.02876 8.28157Z" fill="#747373"/>
</g>
<defs>
<clipPath id="clip0_0_777">
<rect width="20" height="20" fill="white"/>
</clipPath>
</defs>
</svg>
